%TF.GenerationSoftware,KiCad,Pcbnew,7.0.5*%
%TF.CreationDate,2023-10-03T15:35:51+05:30*%
%TF.ProjectId,ADS122C04,41445331-3232-4433-9034-2e6b69636164,rev?*%
%TF.SameCoordinates,Original*%
%TF.FileFunction,Legend,Top*%
%TF.FilePolarity,Positive*%
%FSLAX46Y46*%
G04 Gerber Fmt 4.6, Leading zero omitted, Abs format (unit mm)*
G04 Created by KiCad (PCBNEW 7.0.5) date 2023-10-03 15:35:51*
%MOMM*%
%LPD*%
G01*
G04 APERTURE LIST*
%ADD10C,0.150000*%
%ADD11C,0.120000*%
%ADD12C,0.127000*%
%ADD13C,0.200000*%
G04 APERTURE END LIST*
D10*
%TO.C,R7*%
X202224819Y-96686666D02*
X201748628Y-97019999D01*
X202224819Y-97258094D02*
X201224819Y-97258094D01*
X201224819Y-97258094D02*
X201224819Y-96877142D01*
X201224819Y-96877142D02*
X201272438Y-96781904D01*
X201272438Y-96781904D02*
X201320057Y-96734285D01*
X201320057Y-96734285D02*
X201415295Y-96686666D01*
X201415295Y-96686666D02*
X201558152Y-96686666D01*
X201558152Y-96686666D02*
X201653390Y-96734285D01*
X201653390Y-96734285D02*
X201701009Y-96781904D01*
X201701009Y-96781904D02*
X201748628Y-96877142D01*
X201748628Y-96877142D02*
X201748628Y-97258094D01*
X201224819Y-96353332D02*
X201224819Y-95686666D01*
X201224819Y-95686666D02*
X202224819Y-96115237D01*
%TO.C,TP3*%
X181618095Y-96516819D02*
X182189523Y-96516819D01*
X181903809Y-97516819D02*
X181903809Y-96516819D01*
X182522857Y-97516819D02*
X182522857Y-96516819D01*
X182522857Y-96516819D02*
X182903809Y-96516819D01*
X182903809Y-96516819D02*
X182999047Y-96564438D01*
X182999047Y-96564438D02*
X183046666Y-96612057D01*
X183046666Y-96612057D02*
X183094285Y-96707295D01*
X183094285Y-96707295D02*
X183094285Y-96850152D01*
X183094285Y-96850152D02*
X183046666Y-96945390D01*
X183046666Y-96945390D02*
X182999047Y-96993009D01*
X182999047Y-96993009D02*
X182903809Y-97040628D01*
X182903809Y-97040628D02*
X182522857Y-97040628D01*
X183427619Y-96516819D02*
X184046666Y-96516819D01*
X184046666Y-96516819D02*
X183713333Y-96897771D01*
X183713333Y-96897771D02*
X183856190Y-96897771D01*
X183856190Y-96897771D02*
X183951428Y-96945390D01*
X183951428Y-96945390D02*
X183999047Y-96993009D01*
X183999047Y-96993009D02*
X184046666Y-97088247D01*
X184046666Y-97088247D02*
X184046666Y-97326342D01*
X184046666Y-97326342D02*
X183999047Y-97421580D01*
X183999047Y-97421580D02*
X183951428Y-97469200D01*
X183951428Y-97469200D02*
X183856190Y-97516819D01*
X183856190Y-97516819D02*
X183570476Y-97516819D01*
X183570476Y-97516819D02*
X183475238Y-97469200D01*
X183475238Y-97469200D02*
X183427619Y-97421580D01*
%TO.C,R4*%
X203451619Y-111266266D02*
X202975428Y-111599599D01*
X203451619Y-111837694D02*
X202451619Y-111837694D01*
X202451619Y-111837694D02*
X202451619Y-111456742D01*
X202451619Y-111456742D02*
X202499238Y-111361504D01*
X202499238Y-111361504D02*
X202546857Y-111313885D01*
X202546857Y-111313885D02*
X202642095Y-111266266D01*
X202642095Y-111266266D02*
X202784952Y-111266266D01*
X202784952Y-111266266D02*
X202880190Y-111313885D01*
X202880190Y-111313885D02*
X202927809Y-111361504D01*
X202927809Y-111361504D02*
X202975428Y-111456742D01*
X202975428Y-111456742D02*
X202975428Y-111837694D01*
X202784952Y-110409123D02*
X203451619Y-110409123D01*
X202404000Y-110647218D02*
X203118285Y-110885313D01*
X203118285Y-110885313D02*
X203118285Y-110266266D01*
%TO.C,TP4*%
X207526095Y-98498019D02*
X208097523Y-98498019D01*
X207811809Y-99498019D02*
X207811809Y-98498019D01*
X208430857Y-99498019D02*
X208430857Y-98498019D01*
X208430857Y-98498019D02*
X208811809Y-98498019D01*
X208811809Y-98498019D02*
X208907047Y-98545638D01*
X208907047Y-98545638D02*
X208954666Y-98593257D01*
X208954666Y-98593257D02*
X209002285Y-98688495D01*
X209002285Y-98688495D02*
X209002285Y-98831352D01*
X209002285Y-98831352D02*
X208954666Y-98926590D01*
X208954666Y-98926590D02*
X208907047Y-98974209D01*
X208907047Y-98974209D02*
X208811809Y-99021828D01*
X208811809Y-99021828D02*
X208430857Y-99021828D01*
X209859428Y-98831352D02*
X209859428Y-99498019D01*
X209621333Y-98450400D02*
X209383238Y-99164685D01*
X209383238Y-99164685D02*
X210002285Y-99164685D01*
%TO.C,C8*%
X195362533Y-107852380D02*
X195314914Y-107900000D01*
X195314914Y-107900000D02*
X195172057Y-107947619D01*
X195172057Y-107947619D02*
X195076819Y-107947619D01*
X195076819Y-107947619D02*
X194933962Y-107900000D01*
X194933962Y-107900000D02*
X194838724Y-107804761D01*
X194838724Y-107804761D02*
X194791105Y-107709523D01*
X194791105Y-107709523D02*
X194743486Y-107519047D01*
X194743486Y-107519047D02*
X194743486Y-107376190D01*
X194743486Y-107376190D02*
X194791105Y-107185714D01*
X194791105Y-107185714D02*
X194838724Y-107090476D01*
X194838724Y-107090476D02*
X194933962Y-106995238D01*
X194933962Y-106995238D02*
X195076819Y-106947619D01*
X195076819Y-106947619D02*
X195172057Y-106947619D01*
X195172057Y-106947619D02*
X195314914Y-106995238D01*
X195314914Y-106995238D02*
X195362533Y-107042857D01*
X195933962Y-107376190D02*
X195838724Y-107328571D01*
X195838724Y-107328571D02*
X195791105Y-107280952D01*
X195791105Y-107280952D02*
X195743486Y-107185714D01*
X195743486Y-107185714D02*
X195743486Y-107138095D01*
X195743486Y-107138095D02*
X195791105Y-107042857D01*
X195791105Y-107042857D02*
X195838724Y-106995238D01*
X195838724Y-106995238D02*
X195933962Y-106947619D01*
X195933962Y-106947619D02*
X196124438Y-106947619D01*
X196124438Y-106947619D02*
X196219676Y-106995238D01*
X196219676Y-106995238D02*
X196267295Y-107042857D01*
X196267295Y-107042857D02*
X196314914Y-107138095D01*
X196314914Y-107138095D02*
X196314914Y-107185714D01*
X196314914Y-107185714D02*
X196267295Y-107280952D01*
X196267295Y-107280952D02*
X196219676Y-107328571D01*
X196219676Y-107328571D02*
X196124438Y-107376190D01*
X196124438Y-107376190D02*
X195933962Y-107376190D01*
X195933962Y-107376190D02*
X195838724Y-107423809D01*
X195838724Y-107423809D02*
X195791105Y-107471428D01*
X195791105Y-107471428D02*
X195743486Y-107566666D01*
X195743486Y-107566666D02*
X195743486Y-107757142D01*
X195743486Y-107757142D02*
X195791105Y-107852380D01*
X195791105Y-107852380D02*
X195838724Y-107900000D01*
X195838724Y-107900000D02*
X195933962Y-107947619D01*
X195933962Y-107947619D02*
X196124438Y-107947619D01*
X196124438Y-107947619D02*
X196219676Y-107900000D01*
X196219676Y-107900000D02*
X196267295Y-107852380D01*
X196267295Y-107852380D02*
X196314914Y-107757142D01*
X196314914Y-107757142D02*
X196314914Y-107566666D01*
X196314914Y-107566666D02*
X196267295Y-107471428D01*
X196267295Y-107471428D02*
X196219676Y-107423809D01*
X196219676Y-107423809D02*
X196124438Y-107376190D01*
%TO.C,C9*%
X185456533Y-103280380D02*
X185408914Y-103328000D01*
X185408914Y-103328000D02*
X185266057Y-103375619D01*
X185266057Y-103375619D02*
X185170819Y-103375619D01*
X185170819Y-103375619D02*
X185027962Y-103328000D01*
X185027962Y-103328000D02*
X184932724Y-103232761D01*
X184932724Y-103232761D02*
X184885105Y-103137523D01*
X184885105Y-103137523D02*
X184837486Y-102947047D01*
X184837486Y-102947047D02*
X184837486Y-102804190D01*
X184837486Y-102804190D02*
X184885105Y-102613714D01*
X184885105Y-102613714D02*
X184932724Y-102518476D01*
X184932724Y-102518476D02*
X185027962Y-102423238D01*
X185027962Y-102423238D02*
X185170819Y-102375619D01*
X185170819Y-102375619D02*
X185266057Y-102375619D01*
X185266057Y-102375619D02*
X185408914Y-102423238D01*
X185408914Y-102423238D02*
X185456533Y-102470857D01*
X185932724Y-103375619D02*
X186123200Y-103375619D01*
X186123200Y-103375619D02*
X186218438Y-103328000D01*
X186218438Y-103328000D02*
X186266057Y-103280380D01*
X186266057Y-103280380D02*
X186361295Y-103137523D01*
X186361295Y-103137523D02*
X186408914Y-102947047D01*
X186408914Y-102947047D02*
X186408914Y-102566095D01*
X186408914Y-102566095D02*
X186361295Y-102470857D01*
X186361295Y-102470857D02*
X186313676Y-102423238D01*
X186313676Y-102423238D02*
X186218438Y-102375619D01*
X186218438Y-102375619D02*
X186027962Y-102375619D01*
X186027962Y-102375619D02*
X185932724Y-102423238D01*
X185932724Y-102423238D02*
X185885105Y-102470857D01*
X185885105Y-102470857D02*
X185837486Y-102566095D01*
X185837486Y-102566095D02*
X185837486Y-102804190D01*
X185837486Y-102804190D02*
X185885105Y-102899428D01*
X185885105Y-102899428D02*
X185932724Y-102947047D01*
X185932724Y-102947047D02*
X186027962Y-102994666D01*
X186027962Y-102994666D02*
X186218438Y-102994666D01*
X186218438Y-102994666D02*
X186313676Y-102947047D01*
X186313676Y-102947047D02*
X186361295Y-102899428D01*
X186361295Y-102899428D02*
X186408914Y-102804190D01*
%TO.C,R10*%
X186402742Y-98092419D02*
X186069409Y-97616228D01*
X185831314Y-98092419D02*
X185831314Y-97092419D01*
X185831314Y-97092419D02*
X186212266Y-97092419D01*
X186212266Y-97092419D02*
X186307504Y-97140038D01*
X186307504Y-97140038D02*
X186355123Y-97187657D01*
X186355123Y-97187657D02*
X186402742Y-97282895D01*
X186402742Y-97282895D02*
X186402742Y-97425752D01*
X186402742Y-97425752D02*
X186355123Y-97520990D01*
X186355123Y-97520990D02*
X186307504Y-97568609D01*
X186307504Y-97568609D02*
X186212266Y-97616228D01*
X186212266Y-97616228D02*
X185831314Y-97616228D01*
X187355123Y-98092419D02*
X186783695Y-98092419D01*
X187069409Y-98092419D02*
X187069409Y-97092419D01*
X187069409Y-97092419D02*
X186974171Y-97235276D01*
X186974171Y-97235276D02*
X186878933Y-97330514D01*
X186878933Y-97330514D02*
X186783695Y-97378133D01*
X187974171Y-97092419D02*
X188069409Y-97092419D01*
X188069409Y-97092419D02*
X188164647Y-97140038D01*
X188164647Y-97140038D02*
X188212266Y-97187657D01*
X188212266Y-97187657D02*
X188259885Y-97282895D01*
X188259885Y-97282895D02*
X188307504Y-97473371D01*
X188307504Y-97473371D02*
X188307504Y-97711466D01*
X188307504Y-97711466D02*
X188259885Y-97901942D01*
X188259885Y-97901942D02*
X188212266Y-97997180D01*
X188212266Y-97997180D02*
X188164647Y-98044800D01*
X188164647Y-98044800D02*
X188069409Y-98092419D01*
X188069409Y-98092419D02*
X187974171Y-98092419D01*
X187974171Y-98092419D02*
X187878933Y-98044800D01*
X187878933Y-98044800D02*
X187831314Y-97997180D01*
X187831314Y-97997180D02*
X187783695Y-97901942D01*
X187783695Y-97901942D02*
X187736076Y-97711466D01*
X187736076Y-97711466D02*
X187736076Y-97473371D01*
X187736076Y-97473371D02*
X187783695Y-97282895D01*
X187783695Y-97282895D02*
X187831314Y-97187657D01*
X187831314Y-97187657D02*
X187878933Y-97140038D01*
X187878933Y-97140038D02*
X187974171Y-97092419D01*
%TO.C,C1*%
X208113333Y-108469580D02*
X208065714Y-108517200D01*
X208065714Y-108517200D02*
X207922857Y-108564819D01*
X207922857Y-108564819D02*
X207827619Y-108564819D01*
X207827619Y-108564819D02*
X207684762Y-108517200D01*
X207684762Y-108517200D02*
X207589524Y-108421961D01*
X207589524Y-108421961D02*
X207541905Y-108326723D01*
X207541905Y-108326723D02*
X207494286Y-108136247D01*
X207494286Y-108136247D02*
X207494286Y-107993390D01*
X207494286Y-107993390D02*
X207541905Y-107802914D01*
X207541905Y-107802914D02*
X207589524Y-107707676D01*
X207589524Y-107707676D02*
X207684762Y-107612438D01*
X207684762Y-107612438D02*
X207827619Y-107564819D01*
X207827619Y-107564819D02*
X207922857Y-107564819D01*
X207922857Y-107564819D02*
X208065714Y-107612438D01*
X208065714Y-107612438D02*
X208113333Y-107660057D01*
X209065714Y-108564819D02*
X208494286Y-108564819D01*
X208780000Y-108564819D02*
X208780000Y-107564819D01*
X208780000Y-107564819D02*
X208684762Y-107707676D01*
X208684762Y-107707676D02*
X208589524Y-107802914D01*
X208589524Y-107802914D02*
X208494286Y-107850533D01*
%TO.C,R2*%
X201356933Y-106118819D02*
X201023600Y-105642628D01*
X200785505Y-106118819D02*
X200785505Y-105118819D01*
X200785505Y-105118819D02*
X201166457Y-105118819D01*
X201166457Y-105118819D02*
X201261695Y-105166438D01*
X201261695Y-105166438D02*
X201309314Y-105214057D01*
X201309314Y-105214057D02*
X201356933Y-105309295D01*
X201356933Y-105309295D02*
X201356933Y-105452152D01*
X201356933Y-105452152D02*
X201309314Y-105547390D01*
X201309314Y-105547390D02*
X201261695Y-105595009D01*
X201261695Y-105595009D02*
X201166457Y-105642628D01*
X201166457Y-105642628D02*
X200785505Y-105642628D01*
X201737886Y-105214057D02*
X201785505Y-105166438D01*
X201785505Y-105166438D02*
X201880743Y-105118819D01*
X201880743Y-105118819D02*
X202118838Y-105118819D01*
X202118838Y-105118819D02*
X202214076Y-105166438D01*
X202214076Y-105166438D02*
X202261695Y-105214057D01*
X202261695Y-105214057D02*
X202309314Y-105309295D01*
X202309314Y-105309295D02*
X202309314Y-105404533D01*
X202309314Y-105404533D02*
X202261695Y-105547390D01*
X202261695Y-105547390D02*
X201690267Y-106118819D01*
X201690267Y-106118819D02*
X202309314Y-106118819D01*
%TO.C,C2*%
X199680533Y-107539980D02*
X199632914Y-107587600D01*
X199632914Y-107587600D02*
X199490057Y-107635219D01*
X199490057Y-107635219D02*
X199394819Y-107635219D01*
X199394819Y-107635219D02*
X199251962Y-107587600D01*
X199251962Y-107587600D02*
X199156724Y-107492361D01*
X199156724Y-107492361D02*
X199109105Y-107397123D01*
X199109105Y-107397123D02*
X199061486Y-107206647D01*
X199061486Y-107206647D02*
X199061486Y-107063790D01*
X199061486Y-107063790D02*
X199109105Y-106873314D01*
X199109105Y-106873314D02*
X199156724Y-106778076D01*
X199156724Y-106778076D02*
X199251962Y-106682838D01*
X199251962Y-106682838D02*
X199394819Y-106635219D01*
X199394819Y-106635219D02*
X199490057Y-106635219D01*
X199490057Y-106635219D02*
X199632914Y-106682838D01*
X199632914Y-106682838D02*
X199680533Y-106730457D01*
X200061486Y-106730457D02*
X200109105Y-106682838D01*
X200109105Y-106682838D02*
X200204343Y-106635219D01*
X200204343Y-106635219D02*
X200442438Y-106635219D01*
X200442438Y-106635219D02*
X200537676Y-106682838D01*
X200537676Y-106682838D02*
X200585295Y-106730457D01*
X200585295Y-106730457D02*
X200632914Y-106825695D01*
X200632914Y-106825695D02*
X200632914Y-106920933D01*
X200632914Y-106920933D02*
X200585295Y-107063790D01*
X200585295Y-107063790D02*
X200013867Y-107635219D01*
X200013867Y-107635219D02*
X200632914Y-107635219D01*
%TO.C,R3*%
X194549733Y-109827219D02*
X194216400Y-109351028D01*
X193978305Y-109827219D02*
X193978305Y-108827219D01*
X193978305Y-108827219D02*
X194359257Y-108827219D01*
X194359257Y-108827219D02*
X194454495Y-108874838D01*
X194454495Y-108874838D02*
X194502114Y-108922457D01*
X194502114Y-108922457D02*
X194549733Y-109017695D01*
X194549733Y-109017695D02*
X194549733Y-109160552D01*
X194549733Y-109160552D02*
X194502114Y-109255790D01*
X194502114Y-109255790D02*
X194454495Y-109303409D01*
X194454495Y-109303409D02*
X194359257Y-109351028D01*
X194359257Y-109351028D02*
X193978305Y-109351028D01*
X194883067Y-108827219D02*
X195502114Y-108827219D01*
X195502114Y-108827219D02*
X195168781Y-109208171D01*
X195168781Y-109208171D02*
X195311638Y-109208171D01*
X195311638Y-109208171D02*
X195406876Y-109255790D01*
X195406876Y-109255790D02*
X195454495Y-109303409D01*
X195454495Y-109303409D02*
X195502114Y-109398647D01*
X195502114Y-109398647D02*
X195502114Y-109636742D01*
X195502114Y-109636742D02*
X195454495Y-109731980D01*
X195454495Y-109731980D02*
X195406876Y-109779600D01*
X195406876Y-109779600D02*
X195311638Y-109827219D01*
X195311638Y-109827219D02*
X195025924Y-109827219D01*
X195025924Y-109827219D02*
X194930686Y-109779600D01*
X194930686Y-109779600D02*
X194883067Y-109731980D01*
%TO.C,C7*%
X184966780Y-108573866D02*
X185014400Y-108621485D01*
X185014400Y-108621485D02*
X185062019Y-108764342D01*
X185062019Y-108764342D02*
X185062019Y-108859580D01*
X185062019Y-108859580D02*
X185014400Y-109002437D01*
X185014400Y-109002437D02*
X184919161Y-109097675D01*
X184919161Y-109097675D02*
X184823923Y-109145294D01*
X184823923Y-109145294D02*
X184633447Y-109192913D01*
X184633447Y-109192913D02*
X184490590Y-109192913D01*
X184490590Y-109192913D02*
X184300114Y-109145294D01*
X184300114Y-109145294D02*
X184204876Y-109097675D01*
X184204876Y-109097675D02*
X184109638Y-109002437D01*
X184109638Y-109002437D02*
X184062019Y-108859580D01*
X184062019Y-108859580D02*
X184062019Y-108764342D01*
X184062019Y-108764342D02*
X184109638Y-108621485D01*
X184109638Y-108621485D02*
X184157257Y-108573866D01*
X184062019Y-108240532D02*
X184062019Y-107573866D01*
X184062019Y-107573866D02*
X185062019Y-108002437D01*
%TO.C,C4*%
X187386933Y-104905980D02*
X187339314Y-104953600D01*
X187339314Y-104953600D02*
X187196457Y-105001219D01*
X187196457Y-105001219D02*
X187101219Y-105001219D01*
X187101219Y-105001219D02*
X186958362Y-104953600D01*
X186958362Y-104953600D02*
X186863124Y-104858361D01*
X186863124Y-104858361D02*
X186815505Y-104763123D01*
X186815505Y-104763123D02*
X186767886Y-104572647D01*
X186767886Y-104572647D02*
X186767886Y-104429790D01*
X186767886Y-104429790D02*
X186815505Y-104239314D01*
X186815505Y-104239314D02*
X186863124Y-104144076D01*
X186863124Y-104144076D02*
X186958362Y-104048838D01*
X186958362Y-104048838D02*
X187101219Y-104001219D01*
X187101219Y-104001219D02*
X187196457Y-104001219D01*
X187196457Y-104001219D02*
X187339314Y-104048838D01*
X187339314Y-104048838D02*
X187386933Y-104096457D01*
X188244076Y-104334552D02*
X188244076Y-105001219D01*
X188005981Y-103953600D02*
X187767886Y-104667885D01*
X187767886Y-104667885D02*
X188386933Y-104667885D01*
%TO.C,TP1*%
X197670895Y-98108419D02*
X198242323Y-98108419D01*
X197956609Y-99108419D02*
X197956609Y-98108419D01*
X198575657Y-99108419D02*
X198575657Y-98108419D01*
X198575657Y-98108419D02*
X198956609Y-98108419D01*
X198956609Y-98108419D02*
X199051847Y-98156038D01*
X199051847Y-98156038D02*
X199099466Y-98203657D01*
X199099466Y-98203657D02*
X199147085Y-98298895D01*
X199147085Y-98298895D02*
X199147085Y-98441752D01*
X199147085Y-98441752D02*
X199099466Y-98536990D01*
X199099466Y-98536990D02*
X199051847Y-98584609D01*
X199051847Y-98584609D02*
X198956609Y-98632228D01*
X198956609Y-98632228D02*
X198575657Y-98632228D01*
X200099466Y-99108419D02*
X199528038Y-99108419D01*
X199813752Y-99108419D02*
X199813752Y-98108419D01*
X199813752Y-98108419D02*
X199718514Y-98251276D01*
X199718514Y-98251276D02*
X199623276Y-98346514D01*
X199623276Y-98346514D02*
X199528038Y-98394133D01*
%TO.C,R8*%
X204874019Y-99429866D02*
X204397828Y-99763199D01*
X204874019Y-100001294D02*
X203874019Y-100001294D01*
X203874019Y-100001294D02*
X203874019Y-99620342D01*
X203874019Y-99620342D02*
X203921638Y-99525104D01*
X203921638Y-99525104D02*
X203969257Y-99477485D01*
X203969257Y-99477485D02*
X204064495Y-99429866D01*
X204064495Y-99429866D02*
X204207352Y-99429866D01*
X204207352Y-99429866D02*
X204302590Y-99477485D01*
X204302590Y-99477485D02*
X204350209Y-99525104D01*
X204350209Y-99525104D02*
X204397828Y-99620342D01*
X204397828Y-99620342D02*
X204397828Y-100001294D01*
X204302590Y-98858437D02*
X204254971Y-98953675D01*
X204254971Y-98953675D02*
X204207352Y-99001294D01*
X204207352Y-99001294D02*
X204112114Y-99048913D01*
X204112114Y-99048913D02*
X204064495Y-99048913D01*
X204064495Y-99048913D02*
X203969257Y-99001294D01*
X203969257Y-99001294D02*
X203921638Y-98953675D01*
X203921638Y-98953675D02*
X203874019Y-98858437D01*
X203874019Y-98858437D02*
X203874019Y-98667961D01*
X203874019Y-98667961D02*
X203921638Y-98572723D01*
X203921638Y-98572723D02*
X203969257Y-98525104D01*
X203969257Y-98525104D02*
X204064495Y-98477485D01*
X204064495Y-98477485D02*
X204112114Y-98477485D01*
X204112114Y-98477485D02*
X204207352Y-98525104D01*
X204207352Y-98525104D02*
X204254971Y-98572723D01*
X204254971Y-98572723D02*
X204302590Y-98667961D01*
X204302590Y-98667961D02*
X204302590Y-98858437D01*
X204302590Y-98858437D02*
X204350209Y-98953675D01*
X204350209Y-98953675D02*
X204397828Y-99001294D01*
X204397828Y-99001294D02*
X204493066Y-99048913D01*
X204493066Y-99048913D02*
X204683542Y-99048913D01*
X204683542Y-99048913D02*
X204778780Y-99001294D01*
X204778780Y-99001294D02*
X204826400Y-98953675D01*
X204826400Y-98953675D02*
X204874019Y-98858437D01*
X204874019Y-98858437D02*
X204874019Y-98667961D01*
X204874019Y-98667961D02*
X204826400Y-98572723D01*
X204826400Y-98572723D02*
X204778780Y-98525104D01*
X204778780Y-98525104D02*
X204683542Y-98477485D01*
X204683542Y-98477485D02*
X204493066Y-98477485D01*
X204493066Y-98477485D02*
X204397828Y-98525104D01*
X204397828Y-98525104D02*
X204350209Y-98572723D01*
X204350209Y-98572723D02*
X204302590Y-98667961D01*
%TO.C,R5*%
X190028533Y-108354019D02*
X189695200Y-107877828D01*
X189457105Y-108354019D02*
X189457105Y-107354019D01*
X189457105Y-107354019D02*
X189838057Y-107354019D01*
X189838057Y-107354019D02*
X189933295Y-107401638D01*
X189933295Y-107401638D02*
X189980914Y-107449257D01*
X189980914Y-107449257D02*
X190028533Y-107544495D01*
X190028533Y-107544495D02*
X190028533Y-107687352D01*
X190028533Y-107687352D02*
X189980914Y-107782590D01*
X189980914Y-107782590D02*
X189933295Y-107830209D01*
X189933295Y-107830209D02*
X189838057Y-107877828D01*
X189838057Y-107877828D02*
X189457105Y-107877828D01*
X190933295Y-107354019D02*
X190457105Y-107354019D01*
X190457105Y-107354019D02*
X190409486Y-107830209D01*
X190409486Y-107830209D02*
X190457105Y-107782590D01*
X190457105Y-107782590D02*
X190552343Y-107734971D01*
X190552343Y-107734971D02*
X190790438Y-107734971D01*
X190790438Y-107734971D02*
X190885676Y-107782590D01*
X190885676Y-107782590D02*
X190933295Y-107830209D01*
X190933295Y-107830209D02*
X190980914Y-107925447D01*
X190980914Y-107925447D02*
X190980914Y-108163542D01*
X190980914Y-108163542D02*
X190933295Y-108258780D01*
X190933295Y-108258780D02*
X190885676Y-108306400D01*
X190885676Y-108306400D02*
X190790438Y-108354019D01*
X190790438Y-108354019D02*
X190552343Y-108354019D01*
X190552343Y-108354019D02*
X190457105Y-108306400D01*
X190457105Y-108306400D02*
X190409486Y-108258780D01*
%TO.C,R6*%
X181798933Y-111148019D02*
X181465600Y-110671828D01*
X181227505Y-111148019D02*
X181227505Y-110148019D01*
X181227505Y-110148019D02*
X181608457Y-110148019D01*
X181608457Y-110148019D02*
X181703695Y-110195638D01*
X181703695Y-110195638D02*
X181751314Y-110243257D01*
X181751314Y-110243257D02*
X181798933Y-110338495D01*
X181798933Y-110338495D02*
X181798933Y-110481352D01*
X181798933Y-110481352D02*
X181751314Y-110576590D01*
X181751314Y-110576590D02*
X181703695Y-110624209D01*
X181703695Y-110624209D02*
X181608457Y-110671828D01*
X181608457Y-110671828D02*
X181227505Y-110671828D01*
X182656076Y-110148019D02*
X182465600Y-110148019D01*
X182465600Y-110148019D02*
X182370362Y-110195638D01*
X182370362Y-110195638D02*
X182322743Y-110243257D01*
X182322743Y-110243257D02*
X182227505Y-110386114D01*
X182227505Y-110386114D02*
X182179886Y-110576590D01*
X182179886Y-110576590D02*
X182179886Y-110957542D01*
X182179886Y-110957542D02*
X182227505Y-111052780D01*
X182227505Y-111052780D02*
X182275124Y-111100400D01*
X182275124Y-111100400D02*
X182370362Y-111148019D01*
X182370362Y-111148019D02*
X182560838Y-111148019D01*
X182560838Y-111148019D02*
X182656076Y-111100400D01*
X182656076Y-111100400D02*
X182703695Y-111052780D01*
X182703695Y-111052780D02*
X182751314Y-110957542D01*
X182751314Y-110957542D02*
X182751314Y-110719447D01*
X182751314Y-110719447D02*
X182703695Y-110624209D01*
X182703695Y-110624209D02*
X182656076Y-110576590D01*
X182656076Y-110576590D02*
X182560838Y-110528971D01*
X182560838Y-110528971D02*
X182370362Y-110528971D01*
X182370362Y-110528971D02*
X182275124Y-110576590D01*
X182275124Y-110576590D02*
X182227505Y-110624209D01*
X182227505Y-110624209D02*
X182179886Y-110719447D01*
%TO.C,C10*%
X201693542Y-100130780D02*
X201645923Y-100178400D01*
X201645923Y-100178400D02*
X201503066Y-100226019D01*
X201503066Y-100226019D02*
X201407828Y-100226019D01*
X201407828Y-100226019D02*
X201264971Y-100178400D01*
X201264971Y-100178400D02*
X201169733Y-100083161D01*
X201169733Y-100083161D02*
X201122114Y-99987923D01*
X201122114Y-99987923D02*
X201074495Y-99797447D01*
X201074495Y-99797447D02*
X201074495Y-99654590D01*
X201074495Y-99654590D02*
X201122114Y-99464114D01*
X201122114Y-99464114D02*
X201169733Y-99368876D01*
X201169733Y-99368876D02*
X201264971Y-99273638D01*
X201264971Y-99273638D02*
X201407828Y-99226019D01*
X201407828Y-99226019D02*
X201503066Y-99226019D01*
X201503066Y-99226019D02*
X201645923Y-99273638D01*
X201645923Y-99273638D02*
X201693542Y-99321257D01*
X202645923Y-100226019D02*
X202074495Y-100226019D01*
X202360209Y-100226019D02*
X202360209Y-99226019D01*
X202360209Y-99226019D02*
X202264971Y-99368876D01*
X202264971Y-99368876D02*
X202169733Y-99464114D01*
X202169733Y-99464114D02*
X202074495Y-99511733D01*
X203264971Y-99226019D02*
X203360209Y-99226019D01*
X203360209Y-99226019D02*
X203455447Y-99273638D01*
X203455447Y-99273638D02*
X203503066Y-99321257D01*
X203503066Y-99321257D02*
X203550685Y-99416495D01*
X203550685Y-99416495D02*
X203598304Y-99606971D01*
X203598304Y-99606971D02*
X203598304Y-99845066D01*
X203598304Y-99845066D02*
X203550685Y-100035542D01*
X203550685Y-100035542D02*
X203503066Y-100130780D01*
X203503066Y-100130780D02*
X203455447Y-100178400D01*
X203455447Y-100178400D02*
X203360209Y-100226019D01*
X203360209Y-100226019D02*
X203264971Y-100226019D01*
X203264971Y-100226019D02*
X203169733Y-100178400D01*
X203169733Y-100178400D02*
X203122114Y-100130780D01*
X203122114Y-100130780D02*
X203074495Y-100035542D01*
X203074495Y-100035542D02*
X203026876Y-99845066D01*
X203026876Y-99845066D02*
X203026876Y-99606971D01*
X203026876Y-99606971D02*
X203074495Y-99416495D01*
X203074495Y-99416495D02*
X203122114Y-99321257D01*
X203122114Y-99321257D02*
X203169733Y-99273638D01*
X203169733Y-99273638D02*
X203264971Y-99226019D01*
%TO.C,R9*%
X198772319Y-101766666D02*
X198296128Y-102099999D01*
X198772319Y-102338094D02*
X197772319Y-102338094D01*
X197772319Y-102338094D02*
X197772319Y-101957142D01*
X197772319Y-101957142D02*
X197819938Y-101861904D01*
X197819938Y-101861904D02*
X197867557Y-101814285D01*
X197867557Y-101814285D02*
X197962795Y-101766666D01*
X197962795Y-101766666D02*
X198105652Y-101766666D01*
X198105652Y-101766666D02*
X198200890Y-101814285D01*
X198200890Y-101814285D02*
X198248509Y-101861904D01*
X198248509Y-101861904D02*
X198296128Y-101957142D01*
X198296128Y-101957142D02*
X198296128Y-102338094D01*
X198772319Y-101290475D02*
X198772319Y-101099999D01*
X198772319Y-101099999D02*
X198724700Y-101004761D01*
X198724700Y-101004761D02*
X198677080Y-100957142D01*
X198677080Y-100957142D02*
X198534223Y-100861904D01*
X198534223Y-100861904D02*
X198343747Y-100814285D01*
X198343747Y-100814285D02*
X197962795Y-100814285D01*
X197962795Y-100814285D02*
X197867557Y-100861904D01*
X197867557Y-100861904D02*
X197819938Y-100909523D01*
X197819938Y-100909523D02*
X197772319Y-101004761D01*
X197772319Y-101004761D02*
X197772319Y-101195237D01*
X197772319Y-101195237D02*
X197819938Y-101290475D01*
X197819938Y-101290475D02*
X197867557Y-101338094D01*
X197867557Y-101338094D02*
X197962795Y-101385713D01*
X197962795Y-101385713D02*
X198200890Y-101385713D01*
X198200890Y-101385713D02*
X198296128Y-101338094D01*
X198296128Y-101338094D02*
X198343747Y-101290475D01*
X198343747Y-101290475D02*
X198391366Y-101195237D01*
X198391366Y-101195237D02*
X198391366Y-101004761D01*
X198391366Y-101004761D02*
X198343747Y-100909523D01*
X198343747Y-100909523D02*
X198296128Y-100861904D01*
X198296128Y-100861904D02*
X198200890Y-100814285D01*
%TO.C,C3*%
X196327733Y-105820380D02*
X196280114Y-105868000D01*
X196280114Y-105868000D02*
X196137257Y-105915619D01*
X196137257Y-105915619D02*
X196042019Y-105915619D01*
X196042019Y-105915619D02*
X195899162Y-105868000D01*
X195899162Y-105868000D02*
X195803924Y-105772761D01*
X195803924Y-105772761D02*
X195756305Y-105677523D01*
X195756305Y-105677523D02*
X195708686Y-105487047D01*
X195708686Y-105487047D02*
X195708686Y-105344190D01*
X195708686Y-105344190D02*
X195756305Y-105153714D01*
X195756305Y-105153714D02*
X195803924Y-105058476D01*
X195803924Y-105058476D02*
X195899162Y-104963238D01*
X195899162Y-104963238D02*
X196042019Y-104915619D01*
X196042019Y-104915619D02*
X196137257Y-104915619D01*
X196137257Y-104915619D02*
X196280114Y-104963238D01*
X196280114Y-104963238D02*
X196327733Y-105010857D01*
X196661067Y-104915619D02*
X197280114Y-104915619D01*
X197280114Y-104915619D02*
X196946781Y-105296571D01*
X196946781Y-105296571D02*
X197089638Y-105296571D01*
X197089638Y-105296571D02*
X197184876Y-105344190D01*
X197184876Y-105344190D02*
X197232495Y-105391809D01*
X197232495Y-105391809D02*
X197280114Y-105487047D01*
X197280114Y-105487047D02*
X197280114Y-105725142D01*
X197280114Y-105725142D02*
X197232495Y-105820380D01*
X197232495Y-105820380D02*
X197184876Y-105868000D01*
X197184876Y-105868000D02*
X197089638Y-105915619D01*
X197089638Y-105915619D02*
X196803924Y-105915619D01*
X196803924Y-105915619D02*
X196708686Y-105868000D01*
X196708686Y-105868000D02*
X196661067Y-105820380D01*
%TO.C,R1*%
X183334819Y-101665066D02*
X182858628Y-101998399D01*
X183334819Y-102236494D02*
X182334819Y-102236494D01*
X182334819Y-102236494D02*
X182334819Y-101855542D01*
X182334819Y-101855542D02*
X182382438Y-101760304D01*
X182382438Y-101760304D02*
X182430057Y-101712685D01*
X182430057Y-101712685D02*
X182525295Y-101665066D01*
X182525295Y-101665066D02*
X182668152Y-101665066D01*
X182668152Y-101665066D02*
X182763390Y-101712685D01*
X182763390Y-101712685D02*
X182811009Y-101760304D01*
X182811009Y-101760304D02*
X182858628Y-101855542D01*
X182858628Y-101855542D02*
X182858628Y-102236494D01*
X183334819Y-100712685D02*
X183334819Y-101284113D01*
X183334819Y-100998399D02*
X182334819Y-100998399D01*
X182334819Y-100998399D02*
X182477676Y-101093637D01*
X182477676Y-101093637D02*
X182572914Y-101188875D01*
X182572914Y-101188875D02*
X182620533Y-101284113D01*
%TO.C,TP2*%
X207221295Y-94484819D02*
X207792723Y-94484819D01*
X207507009Y-95484819D02*
X207507009Y-94484819D01*
X208126057Y-95484819D02*
X208126057Y-94484819D01*
X208126057Y-94484819D02*
X208507009Y-94484819D01*
X208507009Y-94484819D02*
X208602247Y-94532438D01*
X208602247Y-94532438D02*
X208649866Y-94580057D01*
X208649866Y-94580057D02*
X208697485Y-94675295D01*
X208697485Y-94675295D02*
X208697485Y-94818152D01*
X208697485Y-94818152D02*
X208649866Y-94913390D01*
X208649866Y-94913390D02*
X208602247Y-94961009D01*
X208602247Y-94961009D02*
X208507009Y-95008628D01*
X208507009Y-95008628D02*
X208126057Y-95008628D01*
X209078438Y-94580057D02*
X209126057Y-94532438D01*
X209126057Y-94532438D02*
X209221295Y-94484819D01*
X209221295Y-94484819D02*
X209459390Y-94484819D01*
X209459390Y-94484819D02*
X209554628Y-94532438D01*
X209554628Y-94532438D02*
X209602247Y-94580057D01*
X209602247Y-94580057D02*
X209649866Y-94675295D01*
X209649866Y-94675295D02*
X209649866Y-94770533D01*
X209649866Y-94770533D02*
X209602247Y-94913390D01*
X209602247Y-94913390D02*
X209030819Y-95484819D01*
X209030819Y-95484819D02*
X209649866Y-95484819D01*
%TO.C,C5*%
X187183733Y-111763980D02*
X187136114Y-111811600D01*
X187136114Y-111811600D02*
X186993257Y-111859219D01*
X186993257Y-111859219D02*
X186898019Y-111859219D01*
X186898019Y-111859219D02*
X186755162Y-111811600D01*
X186755162Y-111811600D02*
X186659924Y-111716361D01*
X186659924Y-111716361D02*
X186612305Y-111621123D01*
X186612305Y-111621123D02*
X186564686Y-111430647D01*
X186564686Y-111430647D02*
X186564686Y-111287790D01*
X186564686Y-111287790D02*
X186612305Y-111097314D01*
X186612305Y-111097314D02*
X186659924Y-111002076D01*
X186659924Y-111002076D02*
X186755162Y-110906838D01*
X186755162Y-110906838D02*
X186898019Y-110859219D01*
X186898019Y-110859219D02*
X186993257Y-110859219D01*
X186993257Y-110859219D02*
X187136114Y-110906838D01*
X187136114Y-110906838D02*
X187183733Y-110954457D01*
X188088495Y-110859219D02*
X187612305Y-110859219D01*
X187612305Y-110859219D02*
X187564686Y-111335409D01*
X187564686Y-111335409D02*
X187612305Y-111287790D01*
X187612305Y-111287790D02*
X187707543Y-111240171D01*
X187707543Y-111240171D02*
X187945638Y-111240171D01*
X187945638Y-111240171D02*
X188040876Y-111287790D01*
X188040876Y-111287790D02*
X188088495Y-111335409D01*
X188088495Y-111335409D02*
X188136114Y-111430647D01*
X188136114Y-111430647D02*
X188136114Y-111668742D01*
X188136114Y-111668742D02*
X188088495Y-111763980D01*
X188088495Y-111763980D02*
X188040876Y-111811600D01*
X188040876Y-111811600D02*
X187945638Y-111859219D01*
X187945638Y-111859219D02*
X187707543Y-111859219D01*
X187707543Y-111859219D02*
X187612305Y-111811600D01*
X187612305Y-111811600D02*
X187564686Y-111763980D01*
%TO.C,C6*%
X205471733Y-111212780D02*
X205424114Y-111260400D01*
X205424114Y-111260400D02*
X205281257Y-111308019D01*
X205281257Y-111308019D02*
X205186019Y-111308019D01*
X205186019Y-111308019D02*
X205043162Y-111260400D01*
X205043162Y-111260400D02*
X204947924Y-111165161D01*
X204947924Y-111165161D02*
X204900305Y-111069923D01*
X204900305Y-111069923D02*
X204852686Y-110879447D01*
X204852686Y-110879447D02*
X204852686Y-110736590D01*
X204852686Y-110736590D02*
X204900305Y-110546114D01*
X204900305Y-110546114D02*
X204947924Y-110450876D01*
X204947924Y-110450876D02*
X205043162Y-110355638D01*
X205043162Y-110355638D02*
X205186019Y-110308019D01*
X205186019Y-110308019D02*
X205281257Y-110308019D01*
X205281257Y-110308019D02*
X205424114Y-110355638D01*
X205424114Y-110355638D02*
X205471733Y-110403257D01*
X206328876Y-110308019D02*
X206138400Y-110308019D01*
X206138400Y-110308019D02*
X206043162Y-110355638D01*
X206043162Y-110355638D02*
X205995543Y-110403257D01*
X205995543Y-110403257D02*
X205900305Y-110546114D01*
X205900305Y-110546114D02*
X205852686Y-110736590D01*
X205852686Y-110736590D02*
X205852686Y-111117542D01*
X205852686Y-111117542D02*
X205900305Y-111212780D01*
X205900305Y-111212780D02*
X205947924Y-111260400D01*
X205947924Y-111260400D02*
X206043162Y-111308019D01*
X206043162Y-111308019D02*
X206233638Y-111308019D01*
X206233638Y-111308019D02*
X206328876Y-111260400D01*
X206328876Y-111260400D02*
X206376495Y-111212780D01*
X206376495Y-111212780D02*
X206424114Y-111117542D01*
X206424114Y-111117542D02*
X206424114Y-110879447D01*
X206424114Y-110879447D02*
X206376495Y-110784209D01*
X206376495Y-110784209D02*
X206328876Y-110736590D01*
X206328876Y-110736590D02*
X206233638Y-110688971D01*
X206233638Y-110688971D02*
X206043162Y-110688971D01*
X206043162Y-110688971D02*
X205947924Y-110736590D01*
X205947924Y-110736590D02*
X205900305Y-110784209D01*
X205900305Y-110784209D02*
X205852686Y-110879447D01*
%TO.C,C11*%
X199051942Y-104296380D02*
X199004323Y-104344000D01*
X199004323Y-104344000D02*
X198861466Y-104391619D01*
X198861466Y-104391619D02*
X198766228Y-104391619D01*
X198766228Y-104391619D02*
X198623371Y-104344000D01*
X198623371Y-104344000D02*
X198528133Y-104248761D01*
X198528133Y-104248761D02*
X198480514Y-104153523D01*
X198480514Y-104153523D02*
X198432895Y-103963047D01*
X198432895Y-103963047D02*
X198432895Y-103820190D01*
X198432895Y-103820190D02*
X198480514Y-103629714D01*
X198480514Y-103629714D02*
X198528133Y-103534476D01*
X198528133Y-103534476D02*
X198623371Y-103439238D01*
X198623371Y-103439238D02*
X198766228Y-103391619D01*
X198766228Y-103391619D02*
X198861466Y-103391619D01*
X198861466Y-103391619D02*
X199004323Y-103439238D01*
X199004323Y-103439238D02*
X199051942Y-103486857D01*
X200004323Y-104391619D02*
X199432895Y-104391619D01*
X199718609Y-104391619D02*
X199718609Y-103391619D01*
X199718609Y-103391619D02*
X199623371Y-103534476D01*
X199623371Y-103534476D02*
X199528133Y-103629714D01*
X199528133Y-103629714D02*
X199432895Y-103677333D01*
X200956704Y-104391619D02*
X200385276Y-104391619D01*
X200670990Y-104391619D02*
X200670990Y-103391619D01*
X200670990Y-103391619D02*
X200575752Y-103534476D01*
X200575752Y-103534476D02*
X200480514Y-103629714D01*
X200480514Y-103629714D02*
X200385276Y-103677333D01*
D11*
%TO.C,R7*%
X202677500Y-96774724D02*
X202677500Y-96265276D01*
X203722500Y-96774724D02*
X203722500Y-96265276D01*
%TO.C,TP3*%
X184080000Y-99060000D02*
G75*
G03*
X184080000Y-99060000I-1200000J0D01*
G01*
%TO.C,R4*%
X202474300Y-108560324D02*
X202474300Y-108050876D01*
X203519300Y-108560324D02*
X203519300Y-108050876D01*
%TO.C,TP4*%
X209988000Y-101041200D02*
G75*
G03*
X209988000Y-101041200I-1200000J0D01*
G01*
%TO.C,C8*%
X192590033Y-106932000D02*
X192882567Y-106932000D01*
X192590033Y-107952000D02*
X192882567Y-107952000D01*
%TO.C,C9*%
X185630433Y-101039200D02*
X185922967Y-101039200D01*
X185630433Y-102059200D02*
X185922967Y-102059200D01*
%TO.C,R10*%
X187351124Y-99480900D02*
X186841676Y-99480900D01*
X187351124Y-98435900D02*
X186841676Y-98435900D01*
%TO.C,C1*%
X208426267Y-107190000D02*
X208133733Y-107190000D01*
X208426267Y-106170000D02*
X208133733Y-106170000D01*
%TO.C,R2*%
X204470724Y-106186500D02*
X203961276Y-106186500D01*
X204470724Y-105141500D02*
X203961276Y-105141500D01*
D12*
%TO.C,U1*%
X191605000Y-98775000D02*
X195135000Y-98775000D01*
X195135000Y-103775000D02*
X191605000Y-103775000D01*
D13*
X189280000Y-99000000D02*
G75*
G03*
X189280000Y-99000000I-100000J0D01*
G01*
D11*
%TO.C,C2*%
X199700933Y-108100400D02*
X199993467Y-108100400D01*
X199700933Y-109120400D02*
X199993467Y-109120400D01*
%TO.C,R3*%
X191872776Y-108697500D02*
X192382224Y-108697500D01*
X191872776Y-109742500D02*
X192382224Y-109742500D01*
%TO.C,C7*%
X183995600Y-105859967D02*
X183995600Y-105567433D01*
X185015600Y-105859967D02*
X185015600Y-105567433D01*
%TO.C,C4*%
X187750667Y-106428000D02*
X187458133Y-106428000D01*
X187750667Y-105408000D02*
X187458133Y-105408000D01*
%TO.C,TP1*%
X199320000Y-96520000D02*
G75*
G03*
X199320000Y-96520000I-1200000J0D01*
G01*
%TO.C,R8*%
X206262500Y-98805276D02*
X206262500Y-99314724D01*
X205217500Y-98805276D02*
X205217500Y-99314724D01*
%TO.C,R5*%
X187298876Y-107173500D02*
X187808324Y-107173500D01*
X187298876Y-108218500D02*
X187808324Y-108218500D01*
%TO.C,R6*%
X181712776Y-108697500D02*
X182222224Y-108697500D01*
X181712776Y-109742500D02*
X182222224Y-109742500D01*
%TO.C,C10*%
X203002933Y-100632800D02*
X203295467Y-100632800D01*
X203002933Y-101652800D02*
X203295467Y-101652800D01*
%TO.C,R9*%
X199225000Y-101854724D02*
X199225000Y-101345276D01*
X200270000Y-101854724D02*
X200270000Y-101345276D01*
%TO.C,C3*%
X193757333Y-104950800D02*
X194049867Y-104950800D01*
X193757333Y-105970800D02*
X194049867Y-105970800D01*
%TO.C,R1*%
X182357500Y-104394724D02*
X182357500Y-103885276D01*
X183402500Y-104394724D02*
X183402500Y-103885276D01*
%TO.C,TP2*%
X209683200Y-97028000D02*
G75*
G03*
X209683200Y-97028000I-1200000J0D01*
G01*
%TO.C,C5*%
X187204133Y-109472000D02*
X187496667Y-109472000D01*
X187204133Y-110492000D02*
X187496667Y-110492000D01*
%TO.C,C6*%
X205784667Y-109933200D02*
X205492133Y-109933200D01*
X205784667Y-108913200D02*
X205492133Y-108913200D01*
%TO.C,C11*%
X202837167Y-103989600D02*
X202544633Y-103989600D01*
X202837167Y-102969600D02*
X202544633Y-102969600D01*
%TD*%
M02*
