%TF.GenerationSoftware,KiCad,Pcbnew,7.0.5*%
%TF.CreationDate,2023-10-03T15:35:51+05:30*%
%TF.ProjectId,ADS122C04,41445331-3232-4433-9034-2e6b69636164,rev?*%
%TF.SameCoordinates,Original*%
%TF.FileFunction,Copper,L1,Top*%
%TF.FilePolarity,Positive*%
%FSLAX46Y46*%
G04 Gerber Fmt 4.6, Leading zero omitted, Abs format (unit mm)*
G04 Created by KiCad (PCBNEW 7.0.5) date 2023-10-03 15:35:51*
%MOMM*%
%LPD*%
G01*
G04 APERTURE LIST*
G04 Aperture macros list*
%AMRoundRect*
0 Rectangle with rounded corners*
0 $1 Rounding radius*
0 $2 $3 $4 $5 $6 $7 $8 $9 X,Y pos of 4 corners*
0 Add a 4 corners polygon primitive as box body*
4,1,4,$2,$3,$4,$5,$6,$7,$8,$9,$2,$3,0*
0 Add four circle primitives for the rounded corners*
1,1,$1+$1,$2,$3*
1,1,$1+$1,$4,$5*
1,1,$1+$1,$6,$7*
1,1,$1+$1,$8,$9*
0 Add four rect primitives between the rounded corners*
20,1,$1+$1,$2,$3,$4,$5,0*
20,1,$1+$1,$4,$5,$6,$7,0*
20,1,$1+$1,$6,$7,$8,$9,0*
20,1,$1+$1,$8,$9,$2,$3,0*%
G04 Aperture macros list end*
%TA.AperFunction,SMDPad,CuDef*%
%ADD10RoundRect,0.237500X0.237500X-0.250000X0.237500X0.250000X-0.237500X0.250000X-0.237500X-0.250000X0*%
%TD*%
%TA.AperFunction,SMDPad,CuDef*%
%ADD11C,2.000000*%
%TD*%
%TA.AperFunction,SMDPad,CuDef*%
%ADD12RoundRect,0.237500X-0.300000X-0.237500X0.300000X-0.237500X0.300000X0.237500X-0.300000X0.237500X0*%
%TD*%
%TA.AperFunction,SMDPad,CuDef*%
%ADD13RoundRect,0.237500X0.250000X0.237500X-0.250000X0.237500X-0.250000X-0.237500X0.250000X-0.237500X0*%
%TD*%
%TA.AperFunction,SMDPad,CuDef*%
%ADD14RoundRect,0.237500X0.300000X0.237500X-0.300000X0.237500X-0.300000X-0.237500X0.300000X-0.237500X0*%
%TD*%
%TA.AperFunction,SMDPad,CuDef*%
%ADD15RoundRect,0.020500X-0.764500X-0.184500X0.764500X-0.184500X0.764500X0.184500X-0.764500X0.184500X0*%
%TD*%
%TA.AperFunction,SMDPad,CuDef*%
%ADD16RoundRect,0.237500X-0.250000X-0.237500X0.250000X-0.237500X0.250000X0.237500X-0.250000X0.237500X0*%
%TD*%
%TA.AperFunction,SMDPad,CuDef*%
%ADD17RoundRect,0.237500X0.237500X-0.300000X0.237500X0.300000X-0.237500X0.300000X-0.237500X-0.300000X0*%
%TD*%
%TA.AperFunction,SMDPad,CuDef*%
%ADD18RoundRect,0.237500X-0.237500X0.250000X-0.237500X-0.250000X0.237500X-0.250000X0.237500X0.250000X0*%
%TD*%
%TA.AperFunction,ComponentPad*%
%ADD19R,1.700000X1.700000*%
%TD*%
%TA.AperFunction,ComponentPad*%
%ADD20O,1.700000X1.700000*%
%TD*%
%TA.AperFunction,ViaPad*%
%ADD21C,0.800000*%
%TD*%
%TA.AperFunction,Conductor*%
%ADD22C,0.250000*%
%TD*%
G04 APERTURE END LIST*
D10*
%TO.P,R7,1*%
%TO.N,+3V3*%
X203200000Y-97432500D03*
%TO.P,R7,2*%
%TO.N,Net-(J2-Pin_1)*%
X203200000Y-95607500D03*
%TD*%
D11*
%TO.P,TP3,1,1*%
%TO.N,GND*%
X182880000Y-99060000D03*
%TD*%
D10*
%TO.P,R4,1*%
%TO.N,Net-(J1-Pin_2)*%
X202996800Y-109218100D03*
%TO.P,R4,2*%
%TO.N,Net-(U1-AIN1)*%
X202996800Y-107393100D03*
%TD*%
D11*
%TO.P,TP4,1,1*%
%TO.N,+3V3*%
X208788000Y-101041200D03*
%TD*%
D12*
%TO.P,C8,1*%
%TO.N,Net-(U1-REFN)*%
X191873800Y-107442000D03*
%TO.P,C8,2*%
%TO.N,Net-(U1-REFP)*%
X193598800Y-107442000D03*
%TD*%
%TO.P,C9,1*%
%TO.N,GND*%
X184914200Y-101549200D03*
%TO.P,C9,2*%
%TO.N,Net-(U1-AIN3)*%
X186639200Y-101549200D03*
%TD*%
D13*
%TO.P,R10,1*%
%TO.N,Reset*%
X188008900Y-98958400D03*
%TO.P,R10,2*%
%TO.N,Net-(J3-Pin_4)*%
X186183900Y-98958400D03*
%TD*%
D14*
%TO.P,C1,1*%
%TO.N,GND*%
X209142500Y-106680000D03*
%TO.P,C1,2*%
%TO.N,Net-(U1-AIN0)*%
X207417500Y-106680000D03*
%TD*%
D13*
%TO.P,R2,1*%
%TO.N,Net-(J1-Pin_1)*%
X205128500Y-105664000D03*
%TO.P,R2,2*%
%TO.N,Net-(U1-AIN0)*%
X203303500Y-105664000D03*
%TD*%
D15*
%TO.P,U1,1,A0*%
%TO.N,GND*%
X190500000Y-99000000D03*
%TO.P,U1,2,A1*%
X190500000Y-99650000D03*
%TO.P,U1,3,RESET*%
%TO.N,Reset*%
X190500000Y-100300000D03*
%TO.P,U1,4,DGND*%
%TO.N,GND*%
X190500000Y-100950000D03*
%TO.P,U1,5,AVSS*%
%TO.N,Net-(J3-Pin_3)*%
X190500000Y-101600000D03*
%TO.P,U1,6,AIN3*%
%TO.N,Net-(U1-AIN3)*%
X190500000Y-102250000D03*
%TO.P,U1,7,AIN2*%
%TO.N,Net-(U1-AIN2)*%
X190500000Y-102900000D03*
%TO.P,U1,8,REFN*%
%TO.N,Net-(U1-REFN)*%
X190500000Y-103550000D03*
%TO.P,U1,9,REFP*%
%TO.N,Net-(U1-REFP)*%
X196240000Y-103550000D03*
%TO.P,U1,10,AIN1*%
%TO.N,Net-(U1-AIN1)*%
X196240000Y-102900000D03*
%TO.P,U1,11,AIN0*%
%TO.N,Net-(U1-AIN0)*%
X196240000Y-102250000D03*
%TO.P,U1,12,AVDD*%
%TO.N,Net-(J3-Pin_2)*%
X196240000Y-101600000D03*
%TO.P,U1,13,DVDD*%
%TO.N,+3V3*%
X196240000Y-100950000D03*
%TO.P,U1,14,DRDY*%
%TO.N,Net-(J3-Pin_1)*%
X196240000Y-100300000D03*
%TO.P,U1,15,SDA*%
%TO.N,Net-(J2-Pin_2)*%
X196240000Y-99650000D03*
%TO.P,U1,16,SCL*%
%TO.N,Net-(J2-Pin_1)*%
X196240000Y-99000000D03*
%TD*%
D12*
%TO.P,C2,1*%
%TO.N,GND*%
X198984700Y-108610400D03*
%TO.P,C2,2*%
%TO.N,Net-(U1-AIN1)*%
X200709700Y-108610400D03*
%TD*%
D16*
%TO.P,R3,1*%
%TO.N,Net-(J1-Pin_6)*%
X191215000Y-109220000D03*
%TO.P,R3,2*%
%TO.N,Net-(U1-REFP)*%
X193040000Y-109220000D03*
%TD*%
D17*
%TO.P,C7,1*%
%TO.N,Net-(U1-AIN2)*%
X184505600Y-106576200D03*
%TO.P,C7,2*%
%TO.N,Net-(U1-AIN3)*%
X184505600Y-104851200D03*
%TD*%
D14*
%TO.P,C4,1*%
%TO.N,Net-(U1-AIN2)*%
X188466900Y-105918000D03*
%TO.P,C4,2*%
%TO.N,GND*%
X186741900Y-105918000D03*
%TD*%
D11*
%TO.P,TP1,1,1*%
%TO.N,Net-(J2-Pin_1)*%
X198120000Y-96520000D03*
%TD*%
D18*
%TO.P,R8,1*%
%TO.N,Net-(J2-Pin_2)*%
X205740000Y-98147500D03*
%TO.P,R8,2*%
%TO.N,+3V3*%
X205740000Y-99972500D03*
%TD*%
D16*
%TO.P,R5,1*%
%TO.N,Net-(J1-Pin_5)*%
X186641100Y-107696000D03*
%TO.P,R5,2*%
%TO.N,Net-(U1-REFN)*%
X188466100Y-107696000D03*
%TD*%
%TO.P,R6,1*%
%TO.N,Net-(J1-Pin_3)*%
X181055000Y-109220000D03*
%TO.P,R6,2*%
%TO.N,Net-(U1-AIN2)*%
X182880000Y-109220000D03*
%TD*%
D12*
%TO.P,C10,1*%
%TO.N,+3V3*%
X202286700Y-101142800D03*
%TO.P,C10,2*%
%TO.N,GND*%
X204011700Y-101142800D03*
%TD*%
D10*
%TO.P,R9,1*%
%TO.N,+3V3*%
X199747500Y-102512500D03*
%TO.P,R9,2*%
%TO.N,Net-(J3-Pin_1)*%
X199747500Y-100687500D03*
%TD*%
D12*
%TO.P,C3,1*%
%TO.N,Net-(U1-REFP)*%
X193041100Y-105460800D03*
%TO.P,C3,2*%
%TO.N,GND*%
X194766100Y-105460800D03*
%TD*%
D10*
%TO.P,R1,1*%
%TO.N,Net-(J1-Pin_4)*%
X182880000Y-105052500D03*
%TO.P,R1,2*%
%TO.N,Net-(U1-AIN3)*%
X182880000Y-103227500D03*
%TD*%
D11*
%TO.P,TP2,1,1*%
%TO.N,Net-(J2-Pin_2)*%
X208483200Y-97028000D03*
%TD*%
D12*
%TO.P,C5,1*%
%TO.N,Net-(U1-REFN)*%
X186487900Y-109982000D03*
%TO.P,C5,2*%
%TO.N,GND*%
X188212900Y-109982000D03*
%TD*%
D14*
%TO.P,C6,1*%
%TO.N,Net-(U1-AIN0)*%
X206500900Y-109423200D03*
%TO.P,C6,2*%
%TO.N,Net-(U1-AIN1)*%
X204775900Y-109423200D03*
%TD*%
%TO.P,C11,1*%
%TO.N,GND*%
X203553400Y-103479600D03*
%TO.P,C11,2*%
%TO.N,Net-(J3-Pin_2)*%
X201828400Y-103479600D03*
%TD*%
D19*
%TO.P,J1,1,Pin_1*%
%TO.N,Net-(J1-Pin_1)*%
X177901600Y-97028000D03*
D20*
%TO.P,J1,2,Pin_2*%
%TO.N,Net-(J1-Pin_2)*%
X177901600Y-99568000D03*
%TO.P,J1,3,Pin_3*%
%TO.N,Net-(J1-Pin_3)*%
X177901600Y-102108000D03*
%TO.P,J1,4,Pin_4*%
%TO.N,Net-(J1-Pin_4)*%
X177901600Y-104648000D03*
%TO.P,J1,5,Pin_5*%
%TO.N,Net-(J1-Pin_5)*%
X177901600Y-107188000D03*
%TO.P,J1,6,Pin_6*%
%TO.N,Net-(J1-Pin_6)*%
X177901600Y-109728000D03*
%TD*%
D19*
%TO.P,J2,1,Pin_1*%
%TO.N,Net-(J2-Pin_1)*%
X212953600Y-98348800D03*
D20*
%TO.P,J2,2,Pin_2*%
%TO.N,Net-(J2-Pin_2)*%
X212953600Y-100888800D03*
%TO.P,J2,3,Pin_3*%
%TO.N,+3V3*%
X212953600Y-103428800D03*
%TO.P,J2,4,Pin_4*%
%TO.N,GND*%
X212953600Y-105968800D03*
%TD*%
D19*
%TO.P,J3,1,Pin_1*%
%TO.N,Net-(J3-Pin_1)*%
X193954400Y-95605600D03*
D20*
%TO.P,J3,2,Pin_2*%
%TO.N,Net-(J3-Pin_2)*%
X191414400Y-95605600D03*
%TO.P,J3,3,Pin_3*%
%TO.N,Net-(J3-Pin_3)*%
X188874400Y-95605600D03*
%TO.P,J3,4,Pin_4*%
%TO.N,Net-(J3-Pin_4)*%
X186334400Y-95605600D03*
%TD*%
D21*
%TO.N,GND*%
X207314800Y-105105200D03*
X205384400Y-102666800D03*
X180949600Y-95351600D03*
%TD*%
D22*
%TO.N,+3V3*%
X199747500Y-101549200D02*
X200456800Y-101549200D01*
X211020159Y-103428800D02*
X212953600Y-103428800D01*
X210308959Y-104140000D02*
X210716459Y-103732500D01*
X196240000Y-100950000D02*
X198185000Y-100950000D01*
X208788000Y-101041200D02*
X210820000Y-103073200D01*
X209075996Y-103690000D02*
X209525996Y-104140000D01*
X202076300Y-101353200D02*
X202286700Y-101142800D01*
X210716459Y-103732500D02*
X211020159Y-103428800D01*
X200456800Y-101549200D02*
X200652800Y-101353200D01*
X205740000Y-99972500D02*
X206603600Y-100836100D01*
X210820000Y-103073200D02*
X210820000Y-103732500D01*
X200652800Y-101353200D02*
X202076300Y-101353200D01*
X198185000Y-100950000D02*
X199747500Y-102512500D01*
X210716459Y-103732500D02*
X210820000Y-103732500D01*
X206603600Y-103073200D02*
X207220400Y-103690000D01*
X199747500Y-102512500D02*
X199747500Y-101549200D01*
X203200000Y-97432500D02*
X205740000Y-99972500D01*
X200652800Y-101353200D02*
X200652800Y-99972500D01*
X209525996Y-104140000D02*
X210308959Y-104140000D01*
X206603600Y-100836100D02*
X206603600Y-103073200D01*
X207220400Y-103690000D02*
X209075996Y-103690000D01*
X200652800Y-99972500D02*
X205740000Y-99972500D01*
%TO.N,Net-(U1-AIN0)*%
X198292500Y-103905000D02*
X199032437Y-103905000D01*
X207417500Y-108506600D02*
X206500900Y-109423200D01*
X203303500Y-105664000D02*
X203606400Y-105664000D01*
X198120000Y-103328785D02*
X198120000Y-103732500D01*
X203606400Y-105664000D02*
X204622400Y-106680000D01*
X203203800Y-104851200D02*
X203203800Y-105564300D01*
X204622400Y-106680000D02*
X207417500Y-106680000D01*
X196240000Y-102250000D02*
X197041215Y-102250000D01*
X197041215Y-102250000D02*
X198120000Y-103328785D01*
X203203800Y-105564300D02*
X203303500Y-105664000D01*
X199978637Y-104851200D02*
X203203800Y-104851200D01*
X207417500Y-106680000D02*
X207417500Y-108506600D01*
X199032437Y-103905000D02*
X199978637Y-104851200D01*
X198120000Y-103732500D02*
X198292500Y-103905000D01*
%TO.N,Net-(U1-AIN1)*%
X200806800Y-105201200D02*
X201523600Y-105918000D01*
X196240000Y-102900000D02*
X197054819Y-102900000D01*
X204571600Y-109218900D02*
X204775900Y-109423200D01*
X197510400Y-103355581D02*
X197510400Y-104184004D01*
X199833663Y-105201200D02*
X200806800Y-105201200D01*
X203811500Y-107393100D02*
X204571600Y-108153200D01*
X200990750Y-106756750D02*
X201627100Y-107393100D01*
X200709700Y-108610400D02*
X200709700Y-107037800D01*
X201523600Y-106223900D02*
X200990750Y-106756750D01*
X199179963Y-104547500D02*
X199833663Y-105201200D01*
X197873896Y-104547500D02*
X199179963Y-104547500D01*
X200709700Y-107037800D02*
X200990750Y-106756750D01*
X201627100Y-107393100D02*
X202996800Y-107393100D01*
X197054819Y-102900000D02*
X197510400Y-103355581D01*
X197510400Y-104184004D02*
X197873896Y-104547500D01*
X204571600Y-108153200D02*
X204571600Y-109218900D01*
X201523600Y-105918000D02*
X201523600Y-106223900D01*
X202996800Y-107393100D02*
X203811500Y-107393100D01*
%TO.N,Net-(U1-AIN2)*%
X189390000Y-103222389D02*
X189390000Y-104538800D01*
X185168200Y-106576200D02*
X184505600Y-106576200D01*
X185420000Y-104547500D02*
X185420000Y-106324400D01*
X189280800Y-104648000D02*
X185520500Y-104648000D01*
X182880000Y-107087500D02*
X182880000Y-109220000D01*
X189280800Y-104648000D02*
X189280800Y-105104100D01*
X189712389Y-102900000D02*
X189390000Y-103222389D01*
X183590100Y-107087500D02*
X184101400Y-106576200D01*
X184101400Y-106576200D02*
X184505600Y-106576200D01*
X189280800Y-105104100D02*
X188466900Y-105918000D01*
X185420000Y-106324400D02*
X185168200Y-106576200D01*
X190500000Y-102900000D02*
X189712389Y-102900000D01*
X183590100Y-107087500D02*
X182880000Y-107087500D01*
X189390000Y-104538800D02*
X189280800Y-104648000D01*
%TO.N,Net-(U1-REFP)*%
X194107900Y-104394000D02*
X195396000Y-104394000D01*
X193041100Y-105460800D02*
X193041100Y-106884300D01*
X193041100Y-106884300D02*
X193598800Y-107442000D01*
X193040000Y-108000800D02*
X193598800Y-107442000D01*
X195396000Y-104394000D02*
X196240000Y-103550000D01*
X193041100Y-105460800D02*
X194107900Y-104394000D01*
X193040000Y-109220000D02*
X193040000Y-108000800D01*
%TO.N,Net-(U1-REFN)*%
X189382400Y-107696000D02*
X188466100Y-107696000D01*
X188466100Y-108003800D02*
X186487900Y-109982000D01*
X188466100Y-107696000D02*
X188466100Y-108003800D01*
X190500000Y-103550000D02*
X190093600Y-103956400D01*
X191873800Y-107442000D02*
X191416600Y-106984800D01*
X190093600Y-106984800D02*
X189382400Y-107696000D01*
X191416600Y-106984800D02*
X190093600Y-106984800D01*
X190093600Y-103956400D02*
X190093600Y-106984800D01*
%TO.N,Net-(U1-AIN3)*%
X188722000Y-103835200D02*
X188417200Y-104140000D01*
X183385000Y-103732500D02*
X182880000Y-103227500D01*
X189712389Y-102250000D02*
X188722000Y-103240389D01*
X190500000Y-102250000D02*
X189712389Y-102250000D01*
X188417200Y-104140000D02*
X185931041Y-104140000D01*
X185420000Y-103732500D02*
X186639200Y-102513300D01*
X185115200Y-103732500D02*
X185115200Y-104241600D01*
X185115200Y-103732500D02*
X183385000Y-103732500D01*
X188722000Y-103240389D02*
X188722000Y-103835200D01*
X185931041Y-104140000D02*
X185523541Y-103732500D01*
X186639200Y-102513300D02*
X186639200Y-101549200D01*
X185115200Y-104241600D02*
X184505600Y-104851200D01*
X185523541Y-103732500D02*
X185420000Y-103732500D01*
X185420000Y-103732500D02*
X185115200Y-103732500D01*
%TO.N,Reset*%
X189350500Y-100300000D02*
X190500000Y-100300000D01*
X188008900Y-98958400D02*
X189350500Y-100300000D01*
%TO.N,Net-(J3-Pin_1)*%
X199360000Y-100300000D02*
X199747500Y-100687500D01*
X196240000Y-100300000D02*
X195452389Y-100300000D01*
X195452389Y-100300000D02*
X194565995Y-99413605D01*
X194565995Y-99413605D02*
X193954400Y-98802010D01*
X199747500Y-100687500D02*
X199427000Y-100367000D01*
X196240000Y-100300000D02*
X199360000Y-100300000D01*
X193954400Y-98802010D02*
X193954400Y-95605600D01*
%TO.N,Net-(J1-Pin_1)*%
X209634074Y-105980000D02*
X209905000Y-106250926D01*
X205740000Y-104140000D02*
X208889600Y-104140000D01*
X205740000Y-104140000D02*
X205740000Y-105052500D01*
X208889600Y-104140000D02*
X209330000Y-104580400D01*
X206253600Y-112364000D02*
X176016400Y-112364000D01*
X209905000Y-108712600D02*
X206253600Y-112364000D01*
X176016400Y-112364000D02*
X175514000Y-111861600D01*
X175514000Y-111861600D02*
X175514000Y-98501200D01*
X205740000Y-105052500D02*
X205128500Y-105664000D01*
X209330000Y-104580400D02*
X209330000Y-105980000D01*
X209905000Y-106250926D02*
X209905000Y-108712600D01*
X175514000Y-98501200D02*
X176987200Y-97028000D01*
X209330000Y-105980000D02*
X209634074Y-105980000D01*
X176987200Y-97028000D02*
X177901600Y-97028000D01*
%TO.N,Net-(J1-Pin_2)*%
X175869600Y-100279200D02*
X176580800Y-99568000D01*
X203200000Y-109421300D02*
X202996800Y-109218100D01*
X203200000Y-111252000D02*
X203200000Y-109421300D01*
X177190400Y-111353600D02*
X175869600Y-110032800D01*
X202438000Y-112014000D02*
X179070000Y-112014000D01*
X176580800Y-99568000D02*
X177901600Y-99568000D01*
X179070000Y-112014000D02*
X178409600Y-111353600D01*
X175869600Y-110032800D02*
X175869600Y-100279200D01*
X178409600Y-111353600D02*
X177190400Y-111353600D01*
X203200000Y-111252000D02*
X202438000Y-112014000D01*
%TO.N,Net-(J1-Pin_6)*%
X179578000Y-111404400D02*
X189030600Y-111404400D01*
X177901600Y-109728000D02*
X179578000Y-111404400D01*
X189030600Y-111404400D02*
X191215000Y-109220000D01*
%TO.N,Net-(J1-Pin_5)*%
X177901600Y-107188000D02*
X178155600Y-107442000D01*
X178155600Y-107442000D02*
X179120800Y-107442000D01*
X179120800Y-107442000D02*
X179120800Y-109220000D01*
X184302400Y-108512600D02*
X185214900Y-108512600D01*
X185214900Y-108512600D02*
X186031500Y-107696000D01*
X180746400Y-110845600D02*
X183946800Y-110845600D01*
X183946800Y-110845600D02*
X184302400Y-110490000D01*
X186031500Y-107696000D02*
X186641100Y-107696000D01*
X179120800Y-109220000D02*
X180746400Y-110845600D01*
X184302400Y-110490000D02*
X184302400Y-108512600D01*
%TO.N,Net-(J1-Pin_4)*%
X182475500Y-104648000D02*
X177901600Y-104648000D01*
X182880000Y-105052500D02*
X182475500Y-104648000D01*
%TO.N,Net-(J1-Pin_3)*%
X181055000Y-108258600D02*
X178714400Y-105918000D01*
X181055000Y-109220000D02*
X181055000Y-108258600D01*
X176682400Y-105562400D02*
X176682400Y-103327200D01*
X178714400Y-105918000D02*
X177038000Y-105918000D01*
X177038000Y-105918000D02*
X176682400Y-105562400D01*
X176682400Y-103327200D02*
X177901600Y-102108000D01*
%TO.N,Net-(J2-Pin_2)*%
X208483200Y-97028000D02*
X212344000Y-100888800D01*
X205740000Y-98147500D02*
X204112500Y-96520000D01*
X201066400Y-96520000D02*
X197936400Y-99650000D01*
X205740000Y-98147500D02*
X206859500Y-97028000D01*
X204112500Y-96520000D02*
X201066400Y-96520000D01*
X212344000Y-100888800D02*
X212953600Y-100888800D01*
X206859500Y-97028000D02*
X208483200Y-97028000D01*
X197936400Y-99650000D02*
X196240000Y-99650000D01*
%TO.N,Net-(J2-Pin_1)*%
X203096500Y-95504000D02*
X203200000Y-95607500D01*
X209349800Y-94745000D02*
X212953600Y-98348800D01*
X199136000Y-95504000D02*
X203096500Y-95504000D01*
X196240000Y-98400000D02*
X198120000Y-96520000D01*
X204062500Y-94745000D02*
X209349800Y-94745000D01*
X196240000Y-99000000D02*
X196240000Y-98400000D01*
X203200000Y-95607500D02*
X204062500Y-94745000D01*
X198120000Y-96520000D02*
X199136000Y-95504000D01*
%TO.N,Net-(J3-Pin_4)*%
X186183900Y-98958400D02*
X186334400Y-98807900D01*
X186334400Y-98807900D02*
X186334400Y-95605600D01*
%TO.N,Net-(J3-Pin_3)*%
X192954400Y-100747196D02*
X192954400Y-99404804D01*
X192954400Y-100747196D02*
X192101596Y-101600000D01*
X189155196Y-95605600D02*
X188874400Y-95605600D01*
X192954400Y-99404804D02*
X189155196Y-95605600D01*
X192101596Y-101600000D02*
X190500000Y-101600000D01*
%TO.N,Net-(J3-Pin_2)*%
X199218833Y-103455000D02*
X199548233Y-103784400D01*
X201523600Y-103784400D02*
X201828400Y-103479600D01*
X193404400Y-100694400D02*
X193404400Y-97595600D01*
X196240000Y-101600000D02*
X197027611Y-101600000D01*
X199548233Y-103784400D02*
X201523600Y-103784400D01*
X193404400Y-100694400D02*
X194310000Y-101600000D01*
X197027611Y-101600000D02*
X198882611Y-103455000D01*
X198882611Y-103455000D02*
X199218833Y-103455000D01*
X194310000Y-101600000D02*
X196240000Y-101600000D01*
X193404400Y-97595600D02*
X191414400Y-95605600D01*
%TD*%
%TA.AperFunction,Conductor*%
%TO.N,GND*%
G36*
X214377339Y-94264985D02*
G01*
X214423094Y-94317789D01*
X214434300Y-94369300D01*
X214434300Y-112589900D01*
X214414615Y-112656939D01*
X214361811Y-112702694D01*
X214310300Y-112713900D01*
X206560150Y-112713900D01*
X206493111Y-112694215D01*
X206447356Y-112641411D01*
X206437412Y-112572253D01*
X206466437Y-112508697D01*
X206472469Y-112502219D01*
X208264459Y-110710229D01*
X210057322Y-108917365D01*
X210076108Y-108901948D01*
X210087043Y-108894643D01*
X210108515Y-108862508D01*
X210142849Y-108811124D01*
X210154919Y-108750448D01*
X210157500Y-108737470D01*
X210162447Y-108712600D01*
X210159881Y-108699701D01*
X210157499Y-108675525D01*
X210157499Y-106288014D01*
X210159883Y-106263815D01*
X210160425Y-106261091D01*
X210162448Y-106250926D01*
X210142850Y-106152405D01*
X210135202Y-106140959D01*
X210087043Y-106068883D01*
X210078688Y-106063300D01*
X210076108Y-106061576D01*
X210057318Y-106046155D01*
X209854962Y-105843799D01*
X211860469Y-105843799D01*
X211860470Y-105843800D01*
X212469195Y-105843800D01*
X212453600Y-105896911D01*
X212453600Y-106040689D01*
X212469195Y-106093800D01*
X211860470Y-106093800D01*
X211867697Y-106171789D01*
X211867697Y-106171792D01*
X211923483Y-106367863D01*
X211923486Y-106367869D01*
X212014354Y-106550356D01*
X212137208Y-106713042D01*
X212287860Y-106850378D01*
X212461184Y-106957697D01*
X212651278Y-107031339D01*
X212828600Y-107064486D01*
X212828600Y-106455969D01*
X212917837Y-106468800D01*
X212989363Y-106468800D01*
X213078600Y-106455969D01*
X213078600Y-107064486D01*
X213255921Y-107031339D01*
X213446015Y-106957697D01*
X213619339Y-106850378D01*
X213769991Y-106713042D01*
X213892845Y-106550356D01*
X213983713Y-106367869D01*
X213983716Y-106367863D01*
X214039502Y-106171792D01*
X214039502Y-106171789D01*
X214046730Y-106093800D01*
X213438005Y-106093800D01*
X213453600Y-106040689D01*
X213453600Y-105896911D01*
X213438005Y-105843800D01*
X214046730Y-105843800D01*
X214046730Y-105843799D01*
X214039502Y-105765810D01*
X214039502Y-105765807D01*
X213983716Y-105569736D01*
X213983713Y-105569730D01*
X213892845Y-105387243D01*
X213769991Y-105224557D01*
X213619339Y-105087221D01*
X213446015Y-104979902D01*
X213255921Y-104906260D01*
X213078600Y-104873112D01*
X213078600Y-105481630D01*
X212989363Y-105468800D01*
X212917837Y-105468800D01*
X212828600Y-105481630D01*
X212828600Y-104873112D01*
X212651278Y-104906260D01*
X212461184Y-104979902D01*
X212287860Y-105087221D01*
X212137208Y-105224557D01*
X212014354Y-105387243D01*
X211923486Y-105569730D01*
X211923483Y-105569736D01*
X211867697Y-105765807D01*
X211867697Y-105765810D01*
X211860469Y-105843799D01*
X209854962Y-105843799D01*
X209838843Y-105827680D01*
X209823422Y-105808890D01*
X209816117Y-105797957D01*
X209732595Y-105742150D01*
X209732593Y-105742149D01*
X209721087Y-105739860D01*
X209717288Y-105739105D01*
X209717287Y-105739104D01*
X209682306Y-105732146D01*
X209620395Y-105699760D01*
X209585822Y-105639043D01*
X209582500Y-105610537D01*
X209582500Y-104617486D01*
X209584883Y-104593292D01*
X209587448Y-104580400D01*
X209579549Y-104540691D01*
X209585775Y-104471102D01*
X209628637Y-104415924D01*
X209694527Y-104392678D01*
X209701166Y-104392500D01*
X210271872Y-104392500D01*
X210296064Y-104394883D01*
X210298002Y-104395268D01*
X210308959Y-104397448D01*
X210392168Y-104380895D01*
X210392170Y-104380895D01*
X210397320Y-104379870D01*
X210407480Y-104377850D01*
X210491002Y-104322043D01*
X210498307Y-104311108D01*
X210513724Y-104292322D01*
X210788535Y-104017511D01*
X210849856Y-103984028D01*
X210851914Y-103983598D01*
X210918521Y-103970350D01*
X210918522Y-103970349D01*
X210918523Y-103970349D01*
X210934828Y-103959454D01*
X211002043Y-103914543D01*
X211057087Y-103832163D01*
X211057849Y-103831023D01*
X211057849Y-103831022D01*
X211057850Y-103831021D01*
X211067778Y-103781107D01*
X211100162Y-103719199D01*
X211160877Y-103684624D01*
X211189395Y-103681300D01*
X211916745Y-103681300D01*
X211983784Y-103700985D01*
X212029539Y-103753789D01*
X212035405Y-103769303D01*
X212046138Y-103804685D01*
X212136902Y-103974492D01*
X212136906Y-103974499D01*
X212259058Y-104123341D01*
X212407900Y-104245493D01*
X212407907Y-104245497D01*
X212551113Y-104322042D01*
X212577717Y-104336262D01*
X212761976Y-104392157D01*
X212953600Y-104411030D01*
X213145224Y-104392157D01*
X213329483Y-104336262D01*
X213499298Y-104245494D01*
X213648141Y-104123341D01*
X213770294Y-103974498D01*
X213861062Y-103804683D01*
X213916957Y-103620424D01*
X213935830Y-103428800D01*
X213916957Y-103237176D01*
X213861062Y-103052917D01*
X213841041Y-103015461D01*
X213770297Y-102883107D01*
X213770293Y-102883100D01*
X213648141Y-102734258D01*
X213499299Y-102612106D01*
X213499292Y-102612102D01*
X213329484Y-102521338D01*
X213145226Y-102465443D01*
X212953600Y-102446570D01*
X212761973Y-102465443D01*
X212577715Y-102521338D01*
X212407907Y-102612102D01*
X212407900Y-102612106D01*
X212259058Y-102734258D01*
X212136906Y-102883100D01*
X212136902Y-102883107D01*
X212046138Y-103052914D01*
X212035405Y-103088297D01*
X211997107Y-103146735D01*
X211933294Y-103175191D01*
X211916745Y-103176300D01*
X211199720Y-103176300D01*
X211132681Y-103156615D01*
X211086926Y-103103811D01*
X211078103Y-103076492D01*
X211060233Y-102986658D01*
X211059631Y-102980551D01*
X211057850Y-102974681D01*
X211057850Y-102974680D01*
X211057850Y-102974679D01*
X211002043Y-102891157D01*
X211002040Y-102891155D01*
X211002040Y-102891154D01*
X210991108Y-102883850D01*
X210972318Y-102868429D01*
X209810641Y-101706752D01*
X209777156Y-101645429D01*
X209782140Y-101575737D01*
X209787313Y-101563817D01*
X209843866Y-101450245D01*
X209901050Y-101249265D01*
X209920330Y-101041200D01*
X209901050Y-100833135D01*
X209843866Y-100632155D01*
X209840865Y-100626129D01*
X209765842Y-100475462D01*
X209750726Y-100445105D01*
X209624802Y-100278354D01*
X209624800Y-100278351D01*
X209470381Y-100137581D01*
X209470379Y-100137579D01*
X209292726Y-100027581D01*
X209292720Y-100027579D01*
X209097877Y-99952096D01*
X208892478Y-99913700D01*
X208683522Y-99913700D01*
X208478123Y-99952096D01*
X208418973Y-99975011D01*
X208283279Y-100027579D01*
X208283273Y-100027581D01*
X208105620Y-100137579D01*
X208105618Y-100137581D01*
X207951199Y-100278351D01*
X207825274Y-100445104D01*
X207732138Y-100632144D01*
X207732132Y-100632159D01*
X207674950Y-100833133D01*
X207674949Y-100833135D01*
X207655670Y-101041199D01*
X207655670Y-101041200D01*
X207674949Y-101249264D01*
X207674950Y-101249266D01*
X207732132Y-101450240D01*
X207732138Y-101450255D01*
X207825274Y-101637295D01*
X207951199Y-101804048D01*
X208105618Y-101944818D01*
X208105620Y-101944820D01*
X208283273Y-102054818D01*
X208283274Y-102054818D01*
X208283277Y-102054820D01*
X208478123Y-102130304D01*
X208683522Y-102168700D01*
X208683524Y-102168700D01*
X208892476Y-102168700D01*
X208892478Y-102168700D01*
X209097877Y-102130304D01*
X209292723Y-102054820D01*
X209299335Y-102050726D01*
X209302971Y-102048475D01*
X209370332Y-102029918D01*
X209437031Y-102050726D01*
X209455931Y-102066220D01*
X210531180Y-103141469D01*
X210564665Y-103202792D01*
X210567499Y-103229150D01*
X210567499Y-103466010D01*
X210547814Y-103533049D01*
X210537463Y-103545894D01*
X210527110Y-103561389D01*
X210511691Y-103580177D01*
X210240687Y-103851182D01*
X210179367Y-103884666D01*
X210153008Y-103887500D01*
X209681947Y-103887500D01*
X209614908Y-103867815D01*
X209594266Y-103851181D01*
X209280765Y-103537680D01*
X209265344Y-103518890D01*
X209258039Y-103507957D01*
X209174517Y-103452150D01*
X209174515Y-103452149D01*
X209163009Y-103449860D01*
X209159210Y-103449105D01*
X209159209Y-103449104D01*
X209075997Y-103432552D01*
X209075996Y-103432552D01*
X209063102Y-103435117D01*
X209038909Y-103437500D01*
X207376351Y-103437500D01*
X207309312Y-103417815D01*
X207288670Y-103401181D01*
X206892419Y-103004930D01*
X206858934Y-102943607D01*
X206856100Y-102917249D01*
X206856100Y-100873186D01*
X206858483Y-100848992D01*
X206861048Y-100836100D01*
X206843833Y-100749559D01*
X206843231Y-100743451D01*
X206841450Y-100737581D01*
X206841450Y-100737580D01*
X206841450Y-100737579D01*
X206785643Y-100654057D01*
X206785640Y-100654055D01*
X206785640Y-100654054D01*
X206774708Y-100646750D01*
X206755918Y-100631329D01*
X206378819Y-100254230D01*
X206345334Y-100192907D01*
X206342500Y-100166549D01*
X206342500Y-99940039D01*
X206342500Y-99687860D01*
X206332163Y-99616912D01*
X206314404Y-99580585D01*
X206278663Y-99507474D01*
X206192525Y-99421336D01*
X206083091Y-99367838D01*
X206083089Y-99367837D01*
X206083088Y-99367837D01*
X206012140Y-99357500D01*
X206012135Y-99357500D01*
X205533451Y-99357500D01*
X205466412Y-99337815D01*
X205445770Y-99321181D01*
X203838818Y-97714229D01*
X203805333Y-97652906D01*
X203802499Y-97626548D01*
X203802499Y-97413557D01*
X203802500Y-97147860D01*
X203792163Y-97076912D01*
X203775388Y-97042598D01*
X203734150Y-96958243D01*
X203735602Y-96957532D01*
X203716498Y-96902556D01*
X203732885Y-96834635D01*
X203783392Y-96786356D01*
X203840350Y-96772500D01*
X203956549Y-96772500D01*
X204023588Y-96792185D01*
X204044230Y-96808818D01*
X205101182Y-97865771D01*
X205134666Y-97927092D01*
X205137500Y-97953450D01*
X205137500Y-98432140D01*
X205147837Y-98503088D01*
X205147837Y-98503089D01*
X205147838Y-98503091D01*
X205201336Y-98612525D01*
X205287474Y-98698663D01*
X205359227Y-98733740D01*
X205396912Y-98752163D01*
X205467860Y-98762500D01*
X205467865Y-98762500D01*
X206012135Y-98762500D01*
X206012140Y-98762500D01*
X206083088Y-98752163D01*
X206169424Y-98709956D01*
X206192525Y-98698663D01*
X206278663Y-98612525D01*
X206331429Y-98504589D01*
X206332163Y-98503088D01*
X206342500Y-98432140D01*
X206342500Y-97953449D01*
X206362185Y-97886411D01*
X206378819Y-97865769D01*
X206927770Y-97316819D01*
X206989093Y-97283334D01*
X207015451Y-97280500D01*
X207289153Y-97280500D01*
X207356192Y-97300185D01*
X207401947Y-97352989D01*
X207408419Y-97370565D01*
X207427333Y-97437042D01*
X207427338Y-97437055D01*
X207520474Y-97624095D01*
X207646399Y-97790848D01*
X207800818Y-97931618D01*
X207800820Y-97931620D01*
X207978473Y-98041618D01*
X207978474Y-98041618D01*
X207978477Y-98041620D01*
X208173323Y-98117104D01*
X208378722Y-98155500D01*
X208378724Y-98155500D01*
X208587676Y-98155500D01*
X208587678Y-98155500D01*
X208793077Y-98117104D01*
X208987923Y-98041620D01*
X208995121Y-98037163D01*
X208998171Y-98035275D01*
X209065532Y-98016718D01*
X209132231Y-98037526D01*
X209151131Y-98053020D01*
X211938298Y-100840187D01*
X211971783Y-100901510D01*
X211974020Y-100915714D01*
X211990243Y-101080425D01*
X212046138Y-101264684D01*
X212136902Y-101434492D01*
X212136906Y-101434499D01*
X212259058Y-101583341D01*
X212407900Y-101705493D01*
X212407907Y-101705497D01*
X212566177Y-101790094D01*
X212577717Y-101796262D01*
X212761976Y-101852157D01*
X212953600Y-101871030D01*
X213145224Y-101852157D01*
X213329483Y-101796262D01*
X213499298Y-101705494D01*
X213648141Y-101583341D01*
X213770294Y-101434498D01*
X213861062Y-101264683D01*
X213916957Y-101080424D01*
X213935830Y-100888800D01*
X213916957Y-100697176D01*
X213861062Y-100512917D01*
X213861061Y-100512915D01*
X213770297Y-100343107D01*
X213770293Y-100343100D01*
X213648141Y-100194258D01*
X213499299Y-100072106D01*
X213499292Y-100072102D01*
X213329484Y-99981338D01*
X213145226Y-99925443D01*
X212953600Y-99906570D01*
X212761973Y-99925443D01*
X212577715Y-99981338D01*
X212407907Y-100072102D01*
X212407900Y-100072106D01*
X212259059Y-100194258D01*
X212232028Y-100227194D01*
X212174281Y-100266526D01*
X212104436Y-100268395D01*
X212048496Y-100236207D01*
X209505841Y-97693552D01*
X209472356Y-97632229D01*
X209477340Y-97562537D01*
X209482513Y-97550617D01*
X209539066Y-97437045D01*
X209596250Y-97236065D01*
X209615530Y-97028000D01*
X209609921Y-96967474D01*
X209596250Y-96819935D01*
X209596249Y-96819933D01*
X209594788Y-96814799D01*
X209539066Y-96618955D01*
X209531014Y-96602785D01*
X209477455Y-96495223D01*
X209445926Y-96431905D01*
X209320002Y-96265154D01*
X209320000Y-96265151D01*
X209165581Y-96124381D01*
X209165579Y-96124379D01*
X208987926Y-96014381D01*
X208987920Y-96014379D01*
X208987164Y-96014086D01*
X208793077Y-95938896D01*
X208587678Y-95900500D01*
X208378722Y-95900500D01*
X208173323Y-95938896D01*
X208110869Y-95963091D01*
X207978479Y-96014379D01*
X207978473Y-96014381D01*
X207800820Y-96124379D01*
X207800818Y-96124381D01*
X207646399Y-96265151D01*
X207520474Y-96431904D01*
X207427338Y-96618944D01*
X207427333Y-96618957D01*
X207408419Y-96685435D01*
X207371140Y-96744528D01*
X207307830Y-96774085D01*
X207289153Y-96775500D01*
X206896587Y-96775500D01*
X206872394Y-96773117D01*
X206869292Y-96772500D01*
X206859500Y-96770552D01*
X206859498Y-96770552D01*
X206760983Y-96790148D01*
X206760980Y-96790149D01*
X206677457Y-96845956D01*
X206670151Y-96856891D01*
X206654733Y-96875676D01*
X206034230Y-97496181D01*
X205972907Y-97529666D01*
X205946549Y-97532500D01*
X205533451Y-97532500D01*
X205466412Y-97512815D01*
X205445770Y-97496181D01*
X204317269Y-96367680D01*
X204301848Y-96348890D01*
X204294543Y-96337957D01*
X204255595Y-96311933D01*
X204211023Y-96282150D01*
X204201723Y-96280300D01*
X204187644Y-96277500D01*
X204112500Y-96262552D01*
X204112499Y-96262552D01*
X204099605Y-96265117D01*
X204075413Y-96267500D01*
X203840350Y-96267500D01*
X203773311Y-96247815D01*
X203727556Y-96195011D01*
X203717612Y-96125853D01*
X203735109Y-96082226D01*
X203734150Y-96081757D01*
X203775389Y-95997400D01*
X203792163Y-95963088D01*
X203802500Y-95892140D01*
X203802500Y-95413451D01*
X203822185Y-95346412D01*
X203838819Y-95325770D01*
X204130770Y-95033819D01*
X204192093Y-95000334D01*
X204218451Y-94997500D01*
X209193849Y-94997500D01*
X209260888Y-95017185D01*
X209281530Y-95033819D01*
X211939781Y-97692069D01*
X211973266Y-97753392D01*
X211976100Y-97779750D01*
X211976100Y-99211358D01*
X211983498Y-99248549D01*
X212011677Y-99290722D01*
X212053850Y-99318901D01*
X212053852Y-99318902D01*
X212081805Y-99324462D01*
X212091041Y-99326300D01*
X212091042Y-99326300D01*
X213816159Y-99326300D01*
X213823557Y-99324828D01*
X213853348Y-99318902D01*
X213895522Y-99290722D01*
X213923702Y-99248548D01*
X213931100Y-99211358D01*
X213931100Y-97486242D01*
X213923702Y-97449052D01*
X213923701Y-97449050D01*
X213895522Y-97406877D01*
X213853349Y-97378698D01*
X213816159Y-97371300D01*
X213816158Y-97371300D01*
X212384551Y-97371300D01*
X212317512Y-97351615D01*
X212296870Y-97334981D01*
X209554569Y-94592680D01*
X209539148Y-94573890D01*
X209531843Y-94562957D01*
X209448321Y-94507150D01*
X209448319Y-94507149D01*
X209436813Y-94504860D01*
X209433014Y-94504105D01*
X209433013Y-94504104D01*
X209366717Y-94490917D01*
X209304806Y-94458532D01*
X209270232Y-94397816D01*
X209273973Y-94328046D01*
X209314839Y-94271375D01*
X209379858Y-94245793D01*
X209390909Y-94245300D01*
X214310300Y-94245300D01*
X214377339Y-94264985D01*
G37*
%TD.AperFunction*%
%TA.AperFunction,Conductor*%
G36*
X204088429Y-94264985D02*
G01*
X204134184Y-94317789D01*
X204144128Y-94386947D01*
X204115103Y-94450503D01*
X204056325Y-94488277D01*
X204045582Y-94490917D01*
X203963983Y-94507148D01*
X203963980Y-94507149D01*
X203880457Y-94562956D01*
X203875266Y-94570724D01*
X203873152Y-94573890D01*
X203873151Y-94573891D01*
X203857733Y-94592676D01*
X203494230Y-94956181D01*
X203432907Y-94989666D01*
X203406549Y-94992500D01*
X202927860Y-94992500D01*
X202856912Y-95002837D01*
X202856910Y-95002837D01*
X202856908Y-95002838D01*
X202747474Y-95056336D01*
X202661337Y-95142473D01*
X202661337Y-95142474D01*
X202642033Y-95181961D01*
X202594905Y-95233543D01*
X202530633Y-95251500D01*
X199173087Y-95251500D01*
X199148894Y-95249117D01*
X199136000Y-95246552D01*
X199135999Y-95246552D01*
X199052785Y-95263104D01*
X199052785Y-95263105D01*
X199050246Y-95263610D01*
X199037479Y-95266149D01*
X198953957Y-95321956D01*
X198946651Y-95332891D01*
X198931233Y-95351676D01*
X198787930Y-95494979D01*
X198726607Y-95528464D01*
X198656915Y-95523480D01*
X198634975Y-95512727D01*
X198624727Y-95506382D01*
X198624724Y-95506380D01*
X198624723Y-95506380D01*
X198429877Y-95430896D01*
X198224478Y-95392500D01*
X198015522Y-95392500D01*
X197810123Y-95430896D01*
X197686904Y-95478631D01*
X197615279Y-95506379D01*
X197615273Y-95506381D01*
X197437620Y-95616379D01*
X197437618Y-95616381D01*
X197283199Y-95757151D01*
X197157274Y-95923904D01*
X197064138Y-96110944D01*
X197064132Y-96110959D01*
X197006950Y-96311933D01*
X197006949Y-96311935D01*
X196987670Y-96519999D01*
X196987670Y-96520000D01*
X197006949Y-96728064D01*
X197006950Y-96728066D01*
X197064132Y-96929040D01*
X197064138Y-96929055D01*
X197120677Y-97042598D01*
X197132938Y-97111383D01*
X197106065Y-97175878D01*
X197097358Y-97185551D01*
X196087676Y-98195233D01*
X196068891Y-98210651D01*
X196057956Y-98217957D01*
X196002149Y-98301479D01*
X195999105Y-98316786D01*
X195982552Y-98399998D01*
X195982552Y-98399999D01*
X195985117Y-98412897D01*
X195987499Y-98437085D01*
X195987499Y-98543500D01*
X195967814Y-98610539D01*
X195915010Y-98656294D01*
X195863499Y-98667500D01*
X195460924Y-98667500D01*
X195417756Y-98676086D01*
X195417750Y-98676089D01*
X195368797Y-98708797D01*
X195336089Y-98757750D01*
X195336086Y-98757756D01*
X195327500Y-98800923D01*
X195327500Y-98800926D01*
X195327500Y-99199074D01*
X195327500Y-99199076D01*
X195327499Y-99199076D01*
X195336086Y-99242243D01*
X195336088Y-99242248D01*
X195345352Y-99256113D01*
X195366227Y-99322791D01*
X195347740Y-99390171D01*
X195345352Y-99393887D01*
X195336088Y-99407751D01*
X195336086Y-99407756D01*
X195327500Y-99450923D01*
X195327500Y-99518658D01*
X195307815Y-99585697D01*
X195255011Y-99631452D01*
X195185853Y-99641396D01*
X195122297Y-99612371D01*
X195115819Y-99606339D01*
X194726954Y-99217475D01*
X194243219Y-98733740D01*
X194209734Y-98672417D01*
X194206900Y-98646059D01*
X194206900Y-96707100D01*
X194226585Y-96640061D01*
X194279389Y-96594306D01*
X194330900Y-96583100D01*
X194816959Y-96583100D01*
X194824357Y-96581628D01*
X194854148Y-96575702D01*
X194896322Y-96547522D01*
X194924502Y-96505348D01*
X194931900Y-96468158D01*
X194931900Y-94743042D01*
X194924502Y-94705852D01*
X194919348Y-94698138D01*
X194896322Y-94663677D01*
X194854149Y-94635498D01*
X194816959Y-94628100D01*
X194816958Y-94628100D01*
X193091842Y-94628100D01*
X193091841Y-94628100D01*
X193054650Y-94635498D01*
X193012477Y-94663677D01*
X192984298Y-94705850D01*
X192976900Y-94743041D01*
X192976900Y-96468161D01*
X192982283Y-96495223D01*
X192976056Y-96564815D01*
X192933193Y-96619992D01*
X192867303Y-96643237D01*
X192799306Y-96627169D01*
X192772985Y-96607096D01*
X192326111Y-96160222D01*
X192292626Y-96098899D01*
X192297610Y-96029207D01*
X192304435Y-96014086D01*
X192321862Y-95981483D01*
X192334781Y-95938896D01*
X192377757Y-95797224D01*
X192396630Y-95605600D01*
X192377757Y-95413976D01*
X192321862Y-95229717D01*
X192231094Y-95059902D01*
X192231093Y-95059900D01*
X192108941Y-94911058D01*
X191960099Y-94788906D01*
X191960092Y-94788902D01*
X191790284Y-94698138D01*
X191606026Y-94642243D01*
X191414400Y-94623370D01*
X191222773Y-94642243D01*
X191038515Y-94698138D01*
X190868707Y-94788902D01*
X190868700Y-94788906D01*
X190719858Y-94911058D01*
X190597706Y-95059900D01*
X190597702Y-95059907D01*
X190506938Y-95229715D01*
X190451043Y-95413973D01*
X190432170Y-95605599D01*
X190451043Y-95797226D01*
X190506938Y-95981484D01*
X190597702Y-96151292D01*
X190597706Y-96151299D01*
X190719858Y-96300141D01*
X190868700Y-96422293D01*
X190868707Y-96422297D01*
X191005913Y-96495635D01*
X191038517Y-96513062D01*
X191222776Y-96568957D01*
X191414400Y-96587830D01*
X191606024Y-96568957D01*
X191790283Y-96513062D01*
X191822886Y-96495634D01*
X191891288Y-96481392D01*
X191956533Y-96506391D01*
X191969022Y-96517311D01*
X193115580Y-97663869D01*
X193149065Y-97725192D01*
X193151899Y-97751550D01*
X193151899Y-98945852D01*
X193132214Y-99012891D01*
X193079410Y-99058646D01*
X193010252Y-99068590D01*
X192946696Y-99039565D01*
X192940218Y-99033533D01*
X189859158Y-95952473D01*
X189825673Y-95891150D01*
X189828178Y-95828798D01*
X189837757Y-95797224D01*
X189856630Y-95605600D01*
X189837757Y-95413976D01*
X189781862Y-95229717D01*
X189691094Y-95059902D01*
X189691093Y-95059900D01*
X189568941Y-94911058D01*
X189420099Y-94788906D01*
X189420092Y-94788902D01*
X189250284Y-94698138D01*
X189066026Y-94642243D01*
X188874400Y-94623370D01*
X188682773Y-94642243D01*
X188498515Y-94698138D01*
X188328707Y-94788902D01*
X188328700Y-94788906D01*
X188179858Y-94911058D01*
X188057706Y-95059900D01*
X188057702Y-95059907D01*
X187966938Y-95229715D01*
X187911043Y-95413973D01*
X187892170Y-95605600D01*
X187911043Y-95797226D01*
X187966938Y-95981484D01*
X188057702Y-96151292D01*
X188057706Y-96151299D01*
X188179858Y-96300141D01*
X188328700Y-96422293D01*
X188328707Y-96422297D01*
X188465913Y-96495635D01*
X188498517Y-96513062D01*
X188682776Y-96568957D01*
X188874400Y-96587830D01*
X189066024Y-96568957D01*
X189250283Y-96513062D01*
X189420093Y-96422297D01*
X189420094Y-96422296D01*
X189420093Y-96422296D01*
X189420098Y-96422294D01*
X189440162Y-96405827D01*
X189504471Y-96378515D01*
X189573338Y-96390306D01*
X189606507Y-96414000D01*
X192665581Y-99473074D01*
X192699066Y-99534397D01*
X192701900Y-99560755D01*
X192701899Y-100591245D01*
X192682214Y-100658285D01*
X192665580Y-100678926D01*
X192033326Y-101311181D01*
X191972003Y-101344666D01*
X191945645Y-101347500D01*
X191649025Y-101347500D01*
X191581986Y-101327815D01*
X191536231Y-101275011D01*
X191526287Y-101205853D01*
X191527408Y-101199308D01*
X191535000Y-101161142D01*
X191535000Y-101075000D01*
X189465000Y-101075000D01*
X189465000Y-101161144D01*
X189480693Y-101240039D01*
X189480695Y-101240043D01*
X189540481Y-101329520D01*
X189549116Y-101338155D01*
X189546395Y-101340875D01*
X189577183Y-101377695D01*
X189587500Y-101427215D01*
X189587499Y-101799076D01*
X189596086Y-101842243D01*
X189596087Y-101842245D01*
X189605351Y-101856110D01*
X189626227Y-101922788D01*
X189607741Y-101990168D01*
X189605351Y-101993887D01*
X189590144Y-102016647D01*
X189555933Y-102050860D01*
X189530346Y-102067957D01*
X189530341Y-102067961D01*
X189523040Y-102078889D01*
X189507621Y-102097677D01*
X188569676Y-103035622D01*
X188550892Y-103051038D01*
X188548087Y-103052914D01*
X188539956Y-103058347D01*
X188490933Y-103131715D01*
X188475512Y-103150505D01*
X188474525Y-103151491D01*
X188477223Y-103176588D01*
X188476810Y-103178761D01*
X188464552Y-103240386D01*
X188464552Y-103240387D01*
X188464552Y-103240389D01*
X188467117Y-103253281D01*
X188469500Y-103277475D01*
X188469500Y-103679247D01*
X188449815Y-103746286D01*
X188433182Y-103766928D01*
X188348930Y-103851181D01*
X188287607Y-103884666D01*
X188261248Y-103887500D01*
X186086992Y-103887500D01*
X186019953Y-103867815D01*
X185999316Y-103851186D01*
X185916536Y-103768406D01*
X185883054Y-103707088D01*
X185888038Y-103637396D01*
X185916537Y-103593050D01*
X186791522Y-102718065D01*
X186810308Y-102702648D01*
X186821243Y-102695343D01*
X186877050Y-102611821D01*
X186877651Y-102608799D01*
X186877653Y-102608799D01*
X186877653Y-102608787D01*
X186896648Y-102513300D01*
X186894083Y-102500405D01*
X186891700Y-102476213D01*
X186891700Y-102270910D01*
X186911385Y-102203871D01*
X186964189Y-102158116D01*
X186997818Y-102148206D01*
X187044788Y-102141363D01*
X187113033Y-102108000D01*
X187154225Y-102087863D01*
X187240363Y-102001725D01*
X187282087Y-101916376D01*
X187293863Y-101892288D01*
X187304200Y-101821340D01*
X187304200Y-101277060D01*
X187293863Y-101206112D01*
X187287085Y-101192247D01*
X187240363Y-101096674D01*
X187154225Y-101010536D01*
X187044791Y-100957038D01*
X187044789Y-100957037D01*
X187044788Y-100957037D01*
X186973840Y-100946700D01*
X186304560Y-100946700D01*
X186233612Y-100957037D01*
X186233610Y-100957037D01*
X186233608Y-100957038D01*
X186124174Y-101010536D01*
X186038036Y-101096674D01*
X185984538Y-101206108D01*
X185984537Y-101206110D01*
X185984537Y-101206112D01*
X185974200Y-101277060D01*
X185974200Y-101821340D01*
X185984537Y-101892288D01*
X185984537Y-101892289D01*
X185984538Y-101892291D01*
X186038036Y-102001725D01*
X186124174Y-102087863D01*
X186210988Y-102130303D01*
X186233612Y-102141363D01*
X186280579Y-102148206D01*
X186344078Y-102177350D01*
X186381742Y-102236199D01*
X186386700Y-102270910D01*
X186386700Y-102357348D01*
X186367015Y-102424387D01*
X186350381Y-102445029D01*
X185351730Y-103443681D01*
X185290407Y-103477166D01*
X185264049Y-103480000D01*
X185152282Y-103480000D01*
X185128090Y-103477617D01*
X185115201Y-103475053D01*
X185115199Y-103475053D01*
X185102310Y-103477617D01*
X185078118Y-103480000D01*
X183606500Y-103480000D01*
X183539461Y-103460315D01*
X183493706Y-103407511D01*
X183482500Y-103356000D01*
X183482500Y-102942865D01*
X183482500Y-102942860D01*
X183472163Y-102871912D01*
X183438250Y-102802541D01*
X183418663Y-102762474D01*
X183332525Y-102676336D01*
X183223091Y-102622838D01*
X183223089Y-102622837D01*
X183223088Y-102622837D01*
X183152140Y-102612500D01*
X182607860Y-102612500D01*
X182536912Y-102622837D01*
X182536910Y-102622837D01*
X182536908Y-102622838D01*
X182427474Y-102676336D01*
X182341336Y-102762474D01*
X182287838Y-102871908D01*
X182287837Y-102871910D01*
X182287837Y-102871912D01*
X182277500Y-102942860D01*
X182277500Y-103512140D01*
X182287837Y-103583088D01*
X182287837Y-103583089D01*
X182287838Y-103583091D01*
X182341336Y-103692525D01*
X182427474Y-103778663D01*
X182532243Y-103829880D01*
X182536912Y-103832163D01*
X182607860Y-103842500D01*
X183086549Y-103842500D01*
X183153588Y-103862185D01*
X183174230Y-103878819D01*
X183180229Y-103884818D01*
X183195650Y-103903608D01*
X183202954Y-103914540D01*
X183202957Y-103914543D01*
X183286475Y-103970348D01*
X183286476Y-103970348D01*
X183286479Y-103970350D01*
X183298605Y-103972762D01*
X183298609Y-103972764D01*
X183298610Y-103972763D01*
X183384999Y-103989948D01*
X183384999Y-103989947D01*
X183385000Y-103989948D01*
X183397894Y-103987382D01*
X183422087Y-103985000D01*
X184059238Y-103985000D01*
X184126277Y-104004685D01*
X184172032Y-104057489D01*
X184181976Y-104126647D01*
X184152951Y-104190203D01*
X184113698Y-104220400D01*
X184053074Y-104250036D01*
X183966936Y-104336174D01*
X183913438Y-104445608D01*
X183913437Y-104445610D01*
X183913437Y-104445612D01*
X183903100Y-104516560D01*
X183903100Y-105185840D01*
X183913437Y-105256788D01*
X183913437Y-105256789D01*
X183913438Y-105256791D01*
X183966936Y-105366225D01*
X184053074Y-105452363D01*
X184157460Y-105503393D01*
X184162512Y-105505863D01*
X184233460Y-105516200D01*
X184233465Y-105516200D01*
X184777735Y-105516200D01*
X184777740Y-105516200D01*
X184848688Y-105505863D01*
X184924502Y-105468800D01*
X184958125Y-105452363D01*
X184966490Y-105446391D01*
X184967749Y-105448155D01*
X185017142Y-105421185D01*
X185086834Y-105426169D01*
X185142767Y-105468041D01*
X185167184Y-105533505D01*
X185167500Y-105542351D01*
X185167500Y-105885049D01*
X185147815Y-105952088D01*
X185095011Y-105997843D01*
X185025853Y-106007787D01*
X184966668Y-105980758D01*
X184966490Y-105981009D01*
X184965199Y-105980087D01*
X184962297Y-105978762D01*
X184958859Y-105975560D01*
X184958125Y-105975036D01*
X184848691Y-105921538D01*
X184848689Y-105921537D01*
X184848688Y-105921537D01*
X184777740Y-105911200D01*
X184233460Y-105911200D01*
X184162512Y-105921537D01*
X184162510Y-105921537D01*
X184162508Y-105921538D01*
X184053074Y-105975036D01*
X183966936Y-106061174D01*
X183913438Y-106170608D01*
X183913437Y-106170610D01*
X183913437Y-106170612D01*
X183903100Y-106241560D01*
X183903100Y-106241565D01*
X183903100Y-106366049D01*
X183883415Y-106433088D01*
X183866781Y-106453730D01*
X183521830Y-106798681D01*
X183460507Y-106832166D01*
X183434149Y-106835000D01*
X182917082Y-106835000D01*
X182892890Y-106832617D01*
X182880001Y-106830053D01*
X182880000Y-106830053D01*
X182855130Y-106835000D01*
X182832507Y-106839500D01*
X182781477Y-106849650D01*
X182697957Y-106905457D01*
X182642149Y-106988978D01*
X182642149Y-106988979D01*
X182622553Y-107087497D01*
X182622553Y-107087499D01*
X182622553Y-107087500D01*
X182624822Y-107098908D01*
X182625117Y-107100388D01*
X182627500Y-107124581D01*
X182627500Y-108505574D01*
X182607815Y-108572613D01*
X182555011Y-108618368D01*
X182533521Y-108624701D01*
X182533612Y-108624994D01*
X182524409Y-108627837D01*
X182414974Y-108681336D01*
X182328836Y-108767474D01*
X182275338Y-108876908D01*
X182275337Y-108876910D01*
X182275337Y-108876912D01*
X182265000Y-108947860D01*
X182265000Y-109492140D01*
X182275337Y-109563088D01*
X182275337Y-109563089D01*
X182275338Y-109563091D01*
X182328836Y-109672525D01*
X182414974Y-109758663D01*
X182519743Y-109809880D01*
X182524412Y-109812163D01*
X182595360Y-109822500D01*
X182595365Y-109822500D01*
X183164635Y-109822500D01*
X183164640Y-109822500D01*
X183235588Y-109812163D01*
X183291474Y-109784841D01*
X183345025Y-109758663D01*
X183431163Y-109672525D01*
X183474064Y-109584768D01*
X183484663Y-109563088D01*
X183495000Y-109492140D01*
X183495000Y-108947860D01*
X183484663Y-108876912D01*
X183477621Y-108862508D01*
X183431163Y-108767474D01*
X183345025Y-108681336D01*
X183235590Y-108627837D01*
X183226388Y-108624994D01*
X183227018Y-108622955D01*
X183175113Y-108599127D01*
X183137454Y-108540275D01*
X183132500Y-108505581D01*
X183132500Y-107464000D01*
X183152185Y-107396960D01*
X183204989Y-107351206D01*
X183256500Y-107340000D01*
X183553013Y-107340000D01*
X183577205Y-107342383D01*
X183579143Y-107342768D01*
X183590100Y-107344948D01*
X183673309Y-107328395D01*
X183673311Y-107328395D01*
X183678461Y-107327370D01*
X183688621Y-107325350D01*
X183772143Y-107269543D01*
X183779448Y-107258608D01*
X183794865Y-107239822D01*
X183867520Y-107167167D01*
X183928841Y-107133684D01*
X183998533Y-107138668D01*
X184042880Y-107167169D01*
X184053074Y-107177363D01*
X184144362Y-107221990D01*
X184162512Y-107230863D01*
X184233460Y-107241200D01*
X184233465Y-107241200D01*
X184777735Y-107241200D01*
X184777740Y-107241200D01*
X184848688Y-107230863D01*
X184904574Y-107203541D01*
X184958125Y-107177363D01*
X185044263Y-107091225D01*
X185078013Y-107022187D01*
X185097763Y-106981788D01*
X185105263Y-106930307D01*
X185134406Y-106866810D01*
X185193255Y-106829146D01*
X185203759Y-106826573D01*
X185251409Y-106817095D01*
X185251411Y-106817095D01*
X185256561Y-106816070D01*
X185266721Y-106814050D01*
X185350243Y-106758243D01*
X185357548Y-106747308D01*
X185372965Y-106728522D01*
X185572322Y-106529165D01*
X185591108Y-106513748D01*
X185602043Y-106506443D01*
X185657850Y-106422921D01*
X185662208Y-106401012D01*
X185663571Y-106394160D01*
X185663571Y-106394158D01*
X185677448Y-106324400D01*
X185674883Y-106311505D01*
X185672500Y-106287313D01*
X185672500Y-106043000D01*
X185954400Y-106043000D01*
X185954400Y-106202146D01*
X185960641Y-106260187D01*
X186009632Y-106391537D01*
X186093641Y-106503758D01*
X186205862Y-106587767D01*
X186337212Y-106636758D01*
X186395253Y-106642999D01*
X186395270Y-106643000D01*
X186616900Y-106643000D01*
X186616900Y-106043000D01*
X186866900Y-106043000D01*
X186866900Y-106643000D01*
X187088530Y-106643000D01*
X187088546Y-106642999D01*
X187146587Y-106636758D01*
X187277937Y-106587767D01*
X187390158Y-106503758D01*
X187474167Y-106391537D01*
X187523158Y-106260187D01*
X187529399Y-106202146D01*
X187529400Y-106202129D01*
X187529400Y-106043000D01*
X186866900Y-106043000D01*
X186616900Y-106043000D01*
X185954400Y-106043000D01*
X185672500Y-106043000D01*
X185672500Y-105793000D01*
X185954400Y-105793000D01*
X186616900Y-105793000D01*
X186616900Y-105193000D01*
X186866900Y-105193000D01*
X186866900Y-105793000D01*
X187529400Y-105793000D01*
X187529400Y-105633870D01*
X187529399Y-105633853D01*
X187523158Y-105575812D01*
X187474167Y-105444462D01*
X187390158Y-105332241D01*
X187277937Y-105248232D01*
X187146587Y-105199241D01*
X187088546Y-105193000D01*
X186866900Y-105193000D01*
X186616900Y-105193000D01*
X186395253Y-105193000D01*
X186337212Y-105199241D01*
X186205862Y-105248232D01*
X186093641Y-105332241D01*
X186009632Y-105444462D01*
X185960641Y-105575812D01*
X185954400Y-105633853D01*
X185954400Y-105793000D01*
X185672500Y-105793000D01*
X185672500Y-105024500D01*
X185692185Y-104957461D01*
X185744989Y-104911706D01*
X185796500Y-104900500D01*
X188827949Y-104900500D01*
X188894988Y-104920185D01*
X188940743Y-104972989D01*
X188950687Y-105042147D01*
X188921662Y-105105703D01*
X188915630Y-105112181D01*
X188748630Y-105279181D01*
X188687307Y-105312666D01*
X188660949Y-105315500D01*
X188132260Y-105315500D01*
X188061312Y-105325837D01*
X188061310Y-105325837D01*
X188061308Y-105325838D01*
X187951874Y-105379336D01*
X187865736Y-105465474D01*
X187812238Y-105574908D01*
X187812237Y-105574910D01*
X187812237Y-105574912D01*
X187801900Y-105645860D01*
X187801900Y-106190140D01*
X187812237Y-106261088D01*
X187812237Y-106261089D01*
X187812238Y-106261091D01*
X187865736Y-106370525D01*
X187951874Y-106456663D01*
X188053701Y-106506442D01*
X188061312Y-106510163D01*
X188132260Y-106520500D01*
X188132265Y-106520500D01*
X188801535Y-106520500D01*
X188801540Y-106520500D01*
X188872488Y-106510163D01*
X188928374Y-106482841D01*
X188981925Y-106456663D01*
X189068063Y-106370525D01*
X189096916Y-106311505D01*
X189121563Y-106261088D01*
X189131900Y-106190140D01*
X189131900Y-105661450D01*
X189151585Y-105594411D01*
X189168219Y-105573769D01*
X189297526Y-105444462D01*
X189433122Y-105308865D01*
X189451908Y-105293448D01*
X189462843Y-105286143D01*
X189484281Y-105254058D01*
X189518649Y-105202624D01*
X189520425Y-105193699D01*
X189533300Y-105128970D01*
X189538247Y-105104100D01*
X189535682Y-105091204D01*
X189533300Y-105067015D01*
X189533300Y-104810948D01*
X189552985Y-104743909D01*
X189569623Y-104723263D01*
X189572039Y-104720845D01*
X189572043Y-104720843D01*
X189573536Y-104718608D01*
X189613998Y-104658054D01*
X189667610Y-104613248D01*
X189736935Y-104604541D01*
X189799962Y-104634695D01*
X189836682Y-104694138D01*
X189841100Y-104726944D01*
X189841099Y-106828849D01*
X189821414Y-106895889D01*
X189804780Y-106916530D01*
X189314130Y-107407181D01*
X189252807Y-107440666D01*
X189226449Y-107443500D01*
X189190224Y-107443500D01*
X189123185Y-107423815D01*
X189077430Y-107371011D01*
X189071752Y-107356111D01*
X189070762Y-107352910D01*
X189017263Y-107243474D01*
X188931125Y-107157336D01*
X188821691Y-107103838D01*
X188821689Y-107103837D01*
X188821688Y-107103837D01*
X188750740Y-107093500D01*
X188181460Y-107093500D01*
X188110512Y-107103837D01*
X188110510Y-107103837D01*
X188110508Y-107103838D01*
X188001074Y-107157336D01*
X187914936Y-107243474D01*
X187861438Y-107352908D01*
X187861438Y-107352909D01*
X187861437Y-107352912D01*
X187851100Y-107423860D01*
X187851100Y-107968140D01*
X187861437Y-108039088D01*
X187879754Y-108076557D01*
X187892257Y-108102131D01*
X187904016Y-108171004D01*
X187876672Y-108235301D01*
X187868537Y-108244272D01*
X186769630Y-109343181D01*
X186708307Y-109376666D01*
X186681949Y-109379500D01*
X186153260Y-109379500D01*
X186082312Y-109389837D01*
X186082310Y-109389837D01*
X186082308Y-109389838D01*
X185972874Y-109443336D01*
X185886736Y-109529474D01*
X185833238Y-109638908D01*
X185833237Y-109638910D01*
X185833237Y-109638912D01*
X185822900Y-109709860D01*
X185822900Y-110254140D01*
X185833237Y-110325088D01*
X185833237Y-110325089D01*
X185833238Y-110325091D01*
X185886736Y-110434525D01*
X185972874Y-110520663D01*
X186069210Y-110567758D01*
X186082312Y-110574163D01*
X186153260Y-110584500D01*
X186153265Y-110584500D01*
X186822535Y-110584500D01*
X186822540Y-110584500D01*
X186893488Y-110574163D01*
X186953770Y-110544693D01*
X187002925Y-110520663D01*
X187089063Y-110434525D01*
X187115241Y-110380974D01*
X187142563Y-110325088D01*
X187152900Y-110254140D01*
X187152900Y-110107000D01*
X187425400Y-110107000D01*
X187425400Y-110266146D01*
X187431641Y-110324187D01*
X187480632Y-110455537D01*
X187564641Y-110567758D01*
X187676862Y-110651767D01*
X187808212Y-110700758D01*
X187866253Y-110706999D01*
X187866270Y-110707000D01*
X188087900Y-110707000D01*
X188087900Y-110107000D01*
X188337900Y-110107000D01*
X188337900Y-110707000D01*
X188559530Y-110707000D01*
X188559546Y-110706999D01*
X188617587Y-110700758D01*
X188748937Y-110651767D01*
X188861158Y-110567758D01*
X188945167Y-110455537D01*
X188994158Y-110324187D01*
X189000399Y-110266146D01*
X189000400Y-110266129D01*
X189000400Y-110107000D01*
X188337900Y-110107000D01*
X188087900Y-110107000D01*
X187425400Y-110107000D01*
X187152900Y-110107000D01*
X187152900Y-109725450D01*
X187172585Y-109658411D01*
X187189219Y-109637769D01*
X187213719Y-109613269D01*
X187275042Y-109579784D01*
X187344734Y-109584768D01*
X187400667Y-109626640D01*
X187425084Y-109692104D01*
X187425400Y-109700950D01*
X187425400Y-109857000D01*
X188087900Y-109857000D01*
X188087900Y-109257000D01*
X188337900Y-109257000D01*
X188337900Y-109857000D01*
X189000400Y-109857000D01*
X189000400Y-109697870D01*
X189000399Y-109697853D01*
X188994158Y-109639812D01*
X188945167Y-109508462D01*
X188861158Y-109396241D01*
X188748937Y-109312232D01*
X188617587Y-109263241D01*
X188559546Y-109257000D01*
X188337900Y-109257000D01*
X188087900Y-109257000D01*
X187869350Y-109257000D01*
X187802311Y-109237315D01*
X187756556Y-109184511D01*
X187746612Y-109115353D01*
X187775637Y-109051797D01*
X187781669Y-109045319D01*
X187856315Y-108970674D01*
X188492169Y-108334819D01*
X188553493Y-108301334D01*
X188579851Y-108298500D01*
X188750735Y-108298500D01*
X188750740Y-108298500D01*
X188821688Y-108288163D01*
X188889211Y-108255153D01*
X188931125Y-108234663D01*
X189017263Y-108148525D01*
X189044012Y-108093807D01*
X189070763Y-108039088D01*
X189070763Y-108039083D01*
X189071752Y-108035889D01*
X189073945Y-108032578D01*
X189074993Y-108030437D01*
X189075274Y-108030574D01*
X189110352Y-107977650D01*
X189174311Y-107949525D01*
X189190224Y-107948500D01*
X189345313Y-107948500D01*
X189369505Y-107950883D01*
X189371443Y-107951268D01*
X189382400Y-107953448D01*
X189465609Y-107936895D01*
X189465611Y-107936895D01*
X189470761Y-107935870D01*
X189480921Y-107933850D01*
X189564443Y-107878043D01*
X189571748Y-107867108D01*
X189587165Y-107848322D01*
X190161869Y-107273618D01*
X190223192Y-107240134D01*
X190249550Y-107237300D01*
X191084800Y-107237300D01*
X191151839Y-107256985D01*
X191197594Y-107309789D01*
X191208800Y-107361299D01*
X191208800Y-107714140D01*
X191219137Y-107785088D01*
X191219137Y-107785089D01*
X191219138Y-107785091D01*
X191272636Y-107894525D01*
X191358774Y-107980663D01*
X191448734Y-108024641D01*
X191468212Y-108034163D01*
X191539160Y-108044500D01*
X191539165Y-108044500D01*
X192208435Y-108044500D01*
X192208440Y-108044500D01*
X192279388Y-108034163D01*
X192347639Y-108000797D01*
X192388825Y-107980663D01*
X192474963Y-107894525D01*
X192518891Y-107804667D01*
X192528463Y-107785088D01*
X192538800Y-107714140D01*
X192538800Y-107169860D01*
X192528463Y-107098912D01*
X192516998Y-107075459D01*
X192474963Y-106989474D01*
X192388825Y-106903336D01*
X192279391Y-106849838D01*
X192279389Y-106849837D01*
X192279388Y-106849837D01*
X192208440Y-106839500D01*
X192208435Y-106839500D01*
X191686748Y-106839500D01*
X191619709Y-106819815D01*
X191599067Y-106803181D01*
X191598645Y-106802759D01*
X191598643Y-106802758D01*
X191598643Y-106802757D01*
X191515121Y-106746950D01*
X191515119Y-106746949D01*
X191503613Y-106744660D01*
X191499814Y-106743905D01*
X191499813Y-106743904D01*
X191416601Y-106727352D01*
X191416600Y-106727352D01*
X191410744Y-106728517D01*
X191403706Y-106729917D01*
X191379513Y-106732300D01*
X190470100Y-106732300D01*
X190403061Y-106712615D01*
X190357306Y-106659811D01*
X190346100Y-106608300D01*
X190346100Y-104112350D01*
X190365785Y-104045311D01*
X190382410Y-104024678D01*
X190488272Y-103918816D01*
X190549593Y-103885334D01*
X190575951Y-103882500D01*
X191279076Y-103882500D01*
X191322243Y-103873913D01*
X191322243Y-103873912D01*
X191322247Y-103873912D01*
X191371202Y-103841202D01*
X191403912Y-103792247D01*
X191403913Y-103792243D01*
X191412500Y-103749076D01*
X191412500Y-103350923D01*
X191403913Y-103307756D01*
X191403912Y-103307753D01*
X191394649Y-103293890D01*
X191373772Y-103227212D01*
X191392257Y-103159832D01*
X191394649Y-103156110D01*
X191403912Y-103142247D01*
X191403987Y-103141869D01*
X191412500Y-103099076D01*
X191412500Y-102700923D01*
X191403913Y-102657756D01*
X191403911Y-102657750D01*
X191394648Y-102643887D01*
X191373772Y-102577209D01*
X191392258Y-102509829D01*
X191394618Y-102506155D01*
X191403912Y-102492247D01*
X191405576Y-102483882D01*
X191412500Y-102449076D01*
X191412500Y-102050923D01*
X191402508Y-102000692D01*
X191408735Y-101931100D01*
X191451598Y-101875923D01*
X191517487Y-101852678D01*
X191524125Y-101852500D01*
X192064509Y-101852500D01*
X192088701Y-101854883D01*
X192090639Y-101855268D01*
X192101596Y-101857448D01*
X192184805Y-101840895D01*
X192184807Y-101840895D01*
X192189957Y-101839870D01*
X192200117Y-101837850D01*
X192283639Y-101782043D01*
X192290944Y-101771108D01*
X192306361Y-101752322D01*
X193106722Y-100951961D01*
X193125502Y-100936548D01*
X193136443Y-100929239D01*
X193136444Y-100929237D01*
X193139179Y-100927410D01*
X193205858Y-100906536D01*
X193273237Y-100925024D01*
X193295746Y-100942835D01*
X194105229Y-101752318D01*
X194120650Y-101771108D01*
X194127954Y-101782040D01*
X194127956Y-101782041D01*
X194127957Y-101782043D01*
X194153446Y-101799074D01*
X194211475Y-101837848D01*
X194211476Y-101837848D01*
X194211479Y-101837850D01*
X194226776Y-101840892D01*
X194226784Y-101840896D01*
X194226785Y-101840894D01*
X194310000Y-101857448D01*
X194310001Y-101857448D01*
X194322895Y-101854883D01*
X194347087Y-101852500D01*
X195215875Y-101852500D01*
X195282914Y-101872185D01*
X195328669Y-101924989D01*
X195338613Y-101994147D01*
X195337492Y-102000692D01*
X195327500Y-102050923D01*
X195327500Y-102050926D01*
X195327500Y-102449074D01*
X195327500Y-102449076D01*
X195327499Y-102449076D01*
X195336086Y-102492243D01*
X195336088Y-102492248D01*
X195345352Y-102506113D01*
X195366227Y-102572791D01*
X195347740Y-102640171D01*
X195345352Y-102643887D01*
X195336088Y-102657751D01*
X195336086Y-102657756D01*
X195327500Y-102700923D01*
X195327500Y-102700925D01*
X195327500Y-102700926D01*
X195327500Y-103099074D01*
X195327500Y-103099076D01*
X195327499Y-103099076D01*
X195336086Y-103142243D01*
X195336088Y-103142248D01*
X195345352Y-103156113D01*
X195366227Y-103222791D01*
X195347740Y-103290171D01*
X195345352Y-103293887D01*
X195336088Y-103307751D01*
X195336086Y-103307756D01*
X195327500Y-103350923D01*
X195327500Y-103350926D01*
X195327500Y-103749074D01*
X195327500Y-103749076D01*
X195327499Y-103749076D01*
X195336086Y-103792243D01*
X195336089Y-103792249D01*
X195368796Y-103841201D01*
X195376790Y-103846542D01*
X195421596Y-103900153D01*
X195430306Y-103969477D01*
X195400153Y-104032506D01*
X195395584Y-104037327D01*
X195327728Y-104105182D01*
X195266408Y-104138666D01*
X195240049Y-104141500D01*
X194144987Y-104141500D01*
X194120794Y-104139117D01*
X194107900Y-104136552D01*
X194107898Y-104136552D01*
X194009383Y-104156148D01*
X194009380Y-104156149D01*
X193925857Y-104211956D01*
X193918551Y-104222891D01*
X193903133Y-104241676D01*
X193322830Y-104821981D01*
X193261507Y-104855466D01*
X193235149Y-104858300D01*
X192706460Y-104858300D01*
X192635512Y-104868637D01*
X192635510Y-104868637D01*
X192635508Y-104868638D01*
X192526074Y-104922136D01*
X192439936Y-105008274D01*
X192386438Y-105117708D01*
X192386437Y-105117710D01*
X192386437Y-105117712D01*
X192376100Y-105188660D01*
X192376100Y-105732940D01*
X192386437Y-105803888D01*
X192386437Y-105803889D01*
X192386438Y-105803891D01*
X192439936Y-105913325D01*
X192526074Y-105999463D01*
X192610405Y-106040689D01*
X192635512Y-106052963D01*
X192682479Y-106059806D01*
X192745978Y-106088950D01*
X192783642Y-106147799D01*
X192788600Y-106182510D01*
X192788600Y-106847213D01*
X192786217Y-106871405D01*
X192783652Y-106884299D01*
X192783652Y-106884300D01*
X192794492Y-106938794D01*
X192803248Y-106982816D01*
X192803249Y-106982819D01*
X192803249Y-106982820D01*
X192803250Y-106982821D01*
X192856605Y-107062673D01*
X192859057Y-107066343D01*
X192869990Y-107073648D01*
X192888774Y-107089063D01*
X192897477Y-107097766D01*
X192930965Y-107159085D01*
X192933800Y-107185450D01*
X192933800Y-107698548D01*
X192914115Y-107765587D01*
X192897481Y-107786228D01*
X192887672Y-107796038D01*
X192868892Y-107811449D01*
X192865394Y-107813788D01*
X192857956Y-107818758D01*
X192808933Y-107892126D01*
X192793512Y-107910916D01*
X192792525Y-107911902D01*
X192795223Y-107936999D01*
X192794810Y-107939172D01*
X192782552Y-108000797D01*
X192782552Y-108000798D01*
X192782552Y-108000800D01*
X192785117Y-108013692D01*
X192787500Y-108037886D01*
X192787500Y-108505574D01*
X192767815Y-108572613D01*
X192715011Y-108618368D01*
X192693521Y-108624701D01*
X192693612Y-108624994D01*
X192684409Y-108627837D01*
X192574974Y-108681336D01*
X192488836Y-108767474D01*
X192435338Y-108876908D01*
X192435337Y-108876910D01*
X192435337Y-108876912D01*
X192425000Y-108947860D01*
X192425000Y-109492140D01*
X192435337Y-109563088D01*
X192435337Y-109563089D01*
X192435338Y-109563091D01*
X192488836Y-109672525D01*
X192574974Y-109758663D01*
X192679743Y-109809880D01*
X192684412Y-109812163D01*
X192755360Y-109822500D01*
X192755365Y-109822500D01*
X193324635Y-109822500D01*
X193324640Y-109822500D01*
X193395588Y-109812163D01*
X193451474Y-109784841D01*
X193505025Y-109758663D01*
X193591163Y-109672525D01*
X193634064Y-109584768D01*
X193644663Y-109563088D01*
X193655000Y-109492140D01*
X193655000Y-108947860D01*
X193644663Y-108876912D01*
X193637621Y-108862508D01*
X193591163Y-108767474D01*
X193559089Y-108735400D01*
X198197200Y-108735400D01*
X198197200Y-108894546D01*
X198203441Y-108952587D01*
X198252432Y-109083937D01*
X198336441Y-109196158D01*
X198448662Y-109280167D01*
X198580012Y-109329158D01*
X198638053Y-109335399D01*
X198638070Y-109335400D01*
X198859700Y-109335400D01*
X198859700Y-108735400D01*
X199109700Y-108735400D01*
X199109700Y-109335400D01*
X199331330Y-109335400D01*
X199331346Y-109335399D01*
X199389387Y-109329158D01*
X199520737Y-109280167D01*
X199632958Y-109196158D01*
X199716967Y-109083937D01*
X199765958Y-108952587D01*
X199772199Y-108894546D01*
X199772200Y-108894529D01*
X199772200Y-108735400D01*
X199109700Y-108735400D01*
X198859700Y-108735400D01*
X198197200Y-108735400D01*
X193559089Y-108735400D01*
X193505025Y-108681336D01*
X193395590Y-108627837D01*
X193386388Y-108624994D01*
X193387017Y-108622955D01*
X193335111Y-108599126D01*
X193297454Y-108540273D01*
X193292500Y-108505574D01*
X193292500Y-108485400D01*
X198197200Y-108485400D01*
X198859700Y-108485400D01*
X198859700Y-107885400D01*
X199109700Y-107885400D01*
X199109700Y-108485400D01*
X199772200Y-108485400D01*
X199772200Y-108326270D01*
X199772199Y-108326253D01*
X199765958Y-108268212D01*
X199716967Y-108136862D01*
X199632958Y-108024641D01*
X199520737Y-107940632D01*
X199389387Y-107891641D01*
X199331346Y-107885400D01*
X199109700Y-107885400D01*
X198859700Y-107885400D01*
X198638053Y-107885400D01*
X198580012Y-107891641D01*
X198448662Y-107940632D01*
X198336441Y-108024641D01*
X198252432Y-108136862D01*
X198203441Y-108268212D01*
X198197200Y-108326253D01*
X198197200Y-108485400D01*
X193292500Y-108485400D01*
X193292500Y-108168500D01*
X193312185Y-108101461D01*
X193364989Y-108055706D01*
X193416500Y-108044500D01*
X193933435Y-108044500D01*
X193933440Y-108044500D01*
X194004388Y-108034163D01*
X194072639Y-108000797D01*
X194113825Y-107980663D01*
X194199963Y-107894525D01*
X194243891Y-107804667D01*
X194253463Y-107785088D01*
X194263800Y-107714140D01*
X194263800Y-107169860D01*
X194253463Y-107098912D01*
X194241998Y-107075459D01*
X194199963Y-106989474D01*
X194113825Y-106903336D01*
X194004391Y-106849838D01*
X194004389Y-106849837D01*
X194004388Y-106849837D01*
X193933440Y-106839500D01*
X193933435Y-106839500D01*
X193417600Y-106839500D01*
X193350561Y-106819815D01*
X193304806Y-106767011D01*
X193293600Y-106715500D01*
X193293600Y-106182510D01*
X193313285Y-106115471D01*
X193366089Y-106069716D01*
X193399718Y-106059806D01*
X193446688Y-106052963D01*
X193537921Y-106008362D01*
X193556125Y-105999463D01*
X193642263Y-105913325D01*
X193682284Y-105831460D01*
X193695763Y-105803888D01*
X193706100Y-105732940D01*
X193706100Y-105585800D01*
X193978600Y-105585800D01*
X193978600Y-105744946D01*
X193984841Y-105802987D01*
X194033832Y-105934337D01*
X194117841Y-106046558D01*
X194230062Y-106130567D01*
X194361412Y-106179558D01*
X194419453Y-106185799D01*
X194419470Y-106185800D01*
X194641100Y-106185800D01*
X194641100Y-105585800D01*
X194891100Y-105585800D01*
X194891100Y-106185800D01*
X195112730Y-106185800D01*
X195112746Y-106185799D01*
X195170787Y-106179558D01*
X195302137Y-106130567D01*
X195414358Y-106046558D01*
X195498367Y-105934337D01*
X195547358Y-105802987D01*
X195553599Y-105744946D01*
X195553600Y-105744929D01*
X195553600Y-105585800D01*
X194891100Y-105585800D01*
X194641100Y-105585800D01*
X193978600Y-105585800D01*
X193706100Y-105585800D01*
X193706100Y-105204250D01*
X193725785Y-105137211D01*
X193742419Y-105116569D01*
X193766919Y-105092069D01*
X193828242Y-105058584D01*
X193897934Y-105063568D01*
X193953867Y-105105440D01*
X193978284Y-105170904D01*
X193978600Y-105179750D01*
X193978600Y-105335800D01*
X195553600Y-105335800D01*
X195553600Y-105176670D01*
X195553599Y-105176653D01*
X195547358Y-105118612D01*
X195498367Y-104987262D01*
X195414358Y-104875041D01*
X195397122Y-104862138D01*
X195355251Y-104806204D01*
X195350267Y-104736512D01*
X195383752Y-104675189D01*
X195445076Y-104641705D01*
X195447147Y-104641273D01*
X195479209Y-104634895D01*
X195479211Y-104634895D01*
X195484361Y-104633870D01*
X195494521Y-104631850D01*
X195578043Y-104576043D01*
X195585348Y-104565108D01*
X195600765Y-104546322D01*
X196228269Y-103918819D01*
X196289593Y-103885334D01*
X196315951Y-103882500D01*
X197019076Y-103882500D01*
X197062243Y-103873913D01*
X197062243Y-103873912D01*
X197062247Y-103873912D01*
X197065005Y-103872068D01*
X197071936Y-103869898D01*
X197073528Y-103869239D01*
X197073586Y-103869381D01*
X197131678Y-103851188D01*
X197199059Y-103869669D01*
X197245753Y-103921645D01*
X197257899Y-103975167D01*
X197257900Y-104146916D01*
X197255517Y-104171109D01*
X197252952Y-104184003D01*
X197252952Y-104184004D01*
X197265184Y-104245495D01*
X197272549Y-104282525D01*
X197306003Y-104332592D01*
X197328357Y-104366047D01*
X197339290Y-104373352D01*
X197358080Y-104388773D01*
X197669125Y-104699818D01*
X197684546Y-104718608D01*
X197691850Y-104729540D01*
X197691852Y-104729541D01*
X197691853Y-104729543D01*
X197719693Y-104748145D01*
X197775371Y-104785348D01*
X197775372Y-104785348D01*
X197775375Y-104785350D01*
X197790672Y-104788392D01*
X197790680Y-104788396D01*
X197790681Y-104788394D01*
X197873896Y-104804948D01*
X197873897Y-104804948D01*
X197886791Y-104802383D01*
X197910983Y-104800000D01*
X199024012Y-104800000D01*
X199091051Y-104819685D01*
X199111693Y-104836319D01*
X199628892Y-105353518D01*
X199644313Y-105372308D01*
X199651619Y-105383242D01*
X199651620Y-105383243D01*
X199708405Y-105421185D01*
X199715836Y-105426150D01*
X199715835Y-105426150D01*
X199735140Y-105439049D01*
X199735141Y-105439049D01*
X199735142Y-105439050D01*
X199735144Y-105439050D01*
X199735146Y-105439051D01*
X199833661Y-105458647D01*
X199833663Y-105458647D01*
X199833664Y-105458647D01*
X199846553Y-105456083D01*
X199870745Y-105453700D01*
X200650849Y-105453700D01*
X200717888Y-105473385D01*
X200738530Y-105490019D01*
X201231779Y-105983268D01*
X201265264Y-106044591D01*
X201260280Y-106114283D01*
X201231779Y-106158630D01*
X200838427Y-106551982D01*
X200819642Y-106567400D01*
X200808707Y-106574707D01*
X200801400Y-106585642D01*
X200785982Y-106604427D01*
X200557376Y-106833033D01*
X200538592Y-106848449D01*
X200534615Y-106851108D01*
X200527656Y-106855758D01*
X200478633Y-106929126D01*
X200463212Y-106947916D01*
X200462225Y-106948902D01*
X200464923Y-106973999D01*
X200464510Y-106976172D01*
X200452252Y-107037797D01*
X200452252Y-107037798D01*
X200452252Y-107037800D01*
X200454007Y-107046621D01*
X200454817Y-107050692D01*
X200457200Y-107074886D01*
X200457200Y-107888689D01*
X200437515Y-107955728D01*
X200384711Y-108001483D01*
X200351079Y-108011393D01*
X200304112Y-108018236D01*
X200304109Y-108018237D01*
X200194674Y-108071736D01*
X200108536Y-108157874D01*
X200055038Y-108267308D01*
X200055037Y-108267310D01*
X200055037Y-108267312D01*
X200044700Y-108338260D01*
X200044700Y-108882540D01*
X200055037Y-108953488D01*
X200055037Y-108953489D01*
X200055038Y-108953491D01*
X200108536Y-109062925D01*
X200194674Y-109149063D01*
X200288899Y-109195126D01*
X200304112Y-109202563D01*
X200375060Y-109212900D01*
X200375065Y-109212900D01*
X201044335Y-109212900D01*
X201044340Y-109212900D01*
X201115288Y-109202563D01*
X201171174Y-109175241D01*
X201224725Y-109149063D01*
X201310863Y-109062925D01*
X201355961Y-108970674D01*
X201364363Y-108953488D01*
X201374700Y-108882540D01*
X201374700Y-108338260D01*
X201364363Y-108267312D01*
X201360104Y-108258600D01*
X201310863Y-108157874D01*
X201224725Y-108071736D01*
X201115290Y-108018237D01*
X201115287Y-108018236D01*
X201068321Y-108011393D01*
X201004820Y-107982248D01*
X200967157Y-107923398D01*
X200962200Y-107888689D01*
X200962200Y-107384650D01*
X200981885Y-107317611D01*
X201034689Y-107271856D01*
X201103847Y-107261912D01*
X201167403Y-107290937D01*
X201173874Y-107296963D01*
X201300726Y-107423815D01*
X201422329Y-107545418D01*
X201437750Y-107564208D01*
X201445054Y-107575140D01*
X201445056Y-107575141D01*
X201445057Y-107575143D01*
X201472897Y-107593745D01*
X201528575Y-107630948D01*
X201528576Y-107630948D01*
X201528579Y-107630950D01*
X201543876Y-107633992D01*
X201543884Y-107633996D01*
X201543885Y-107633994D01*
X201627100Y-107650548D01*
X201627101Y-107650548D01*
X201639995Y-107647983D01*
X201664187Y-107645600D01*
X202282375Y-107645600D01*
X202349414Y-107665285D01*
X202395169Y-107718089D01*
X202401500Y-107739578D01*
X202401794Y-107739488D01*
X202404637Y-107748690D01*
X202458136Y-107858125D01*
X202544274Y-107944263D01*
X202649043Y-107995480D01*
X202653712Y-107997763D01*
X202724660Y-108008100D01*
X202724665Y-108008100D01*
X203268935Y-108008100D01*
X203268940Y-108008100D01*
X203339888Y-107997763D01*
X203423133Y-107957067D01*
X203449325Y-107944263D01*
X203535460Y-107858128D01*
X203535462Y-107858126D01*
X203585264Y-107756253D01*
X203632391Y-107704673D01*
X203699925Y-107686758D01*
X203766424Y-107708199D01*
X203784345Y-107723034D01*
X204282781Y-108221470D01*
X204316266Y-108282793D01*
X204319100Y-108309151D01*
X204319100Y-108779137D01*
X204299415Y-108846176D01*
X204267153Y-108880055D01*
X204260870Y-108884540D01*
X204174736Y-108970674D01*
X204121238Y-109080108D01*
X204121237Y-109080110D01*
X204121237Y-109080112D01*
X204110900Y-109151060D01*
X204110900Y-109695340D01*
X204121237Y-109766288D01*
X204121237Y-109766289D01*
X204121238Y-109766291D01*
X204174736Y-109875725D01*
X204260874Y-109961863D01*
X204365643Y-110013080D01*
X204370312Y-110015363D01*
X204441260Y-110025700D01*
X204441265Y-110025700D01*
X205110535Y-110025700D01*
X205110540Y-110025700D01*
X205181488Y-110015363D01*
X205237374Y-109988041D01*
X205290925Y-109961863D01*
X205377063Y-109875725D01*
X205408137Y-109812161D01*
X205430563Y-109766288D01*
X205440900Y-109695340D01*
X205440900Y-109151060D01*
X205430563Y-109080112D01*
X205407756Y-109033459D01*
X205377063Y-108970674D01*
X205290925Y-108884536D01*
X205181491Y-108831038D01*
X205181489Y-108831037D01*
X205181488Y-108831037D01*
X205110540Y-108820700D01*
X205110535Y-108820700D01*
X204948100Y-108820700D01*
X204881061Y-108801015D01*
X204835306Y-108748211D01*
X204824100Y-108696700D01*
X204824100Y-108190286D01*
X204826483Y-108166092D01*
X204827679Y-108160080D01*
X204829048Y-108153200D01*
X204811833Y-108066659D01*
X204811231Y-108060551D01*
X204809450Y-108054681D01*
X204809450Y-108054680D01*
X204809450Y-108054679D01*
X204753643Y-107971157D01*
X204753640Y-107971155D01*
X204753640Y-107971154D01*
X204742708Y-107963850D01*
X204723918Y-107948429D01*
X204016269Y-107240780D01*
X204000848Y-107221990D01*
X203993543Y-107211057D01*
X203910021Y-107155250D01*
X203910019Y-107155249D01*
X203898513Y-107152960D01*
X203894714Y-107152205D01*
X203894713Y-107152204D01*
X203811501Y-107135652D01*
X203811500Y-107135652D01*
X203798606Y-107138217D01*
X203774413Y-107140600D01*
X203711225Y-107140600D01*
X203644186Y-107120915D01*
X203598431Y-107068111D01*
X203592099Y-107046621D01*
X203591806Y-107046712D01*
X203588962Y-107037509D01*
X203535463Y-106928074D01*
X203449325Y-106841936D01*
X203339891Y-106788438D01*
X203339889Y-106788437D01*
X203339888Y-106788437D01*
X203268940Y-106778100D01*
X202724660Y-106778100D01*
X202653712Y-106788437D01*
X202653710Y-106788437D01*
X202653708Y-106788438D01*
X202544274Y-106841936D01*
X202458136Y-106928074D01*
X202404637Y-107037509D01*
X202401794Y-107046712D01*
X202399752Y-107046081D01*
X202375939Y-107097974D01*
X202317092Y-107135641D01*
X202282375Y-107140600D01*
X201783051Y-107140600D01*
X201716012Y-107120915D01*
X201695370Y-107104281D01*
X201435519Y-106844430D01*
X201402034Y-106783107D01*
X201407018Y-106713415D01*
X201435515Y-106669072D01*
X201675922Y-106428665D01*
X201694708Y-106413248D01*
X201705643Y-106405943D01*
X201721227Y-106382620D01*
X201761449Y-106322424D01*
X201761450Y-106322421D01*
X201769781Y-106280539D01*
X201781048Y-106223900D01*
X201781048Y-106223899D01*
X201778483Y-106211005D01*
X201776100Y-106186813D01*
X201776100Y-105955081D01*
X201778483Y-105930888D01*
X201781047Y-105918000D01*
X201763830Y-105831448D01*
X201763230Y-105825345D01*
X201761450Y-105819479D01*
X201761450Y-105819478D01*
X201705643Y-105735957D01*
X201705640Y-105735954D01*
X201694708Y-105728650D01*
X201675918Y-105713229D01*
X201278070Y-105315381D01*
X201244585Y-105254058D01*
X201249569Y-105184366D01*
X201291441Y-105128433D01*
X201356905Y-105104016D01*
X201365751Y-105103700D01*
X202606381Y-105103700D01*
X202673420Y-105123385D01*
X202719175Y-105176189D01*
X202729119Y-105245347D01*
X202717781Y-105282161D01*
X202698837Y-105320909D01*
X202695686Y-105342541D01*
X202688500Y-105391860D01*
X202688500Y-105936140D01*
X202698837Y-106007088D01*
X202698837Y-106007089D01*
X202698838Y-106007091D01*
X202752336Y-106116525D01*
X202838474Y-106202663D01*
X202943243Y-106253880D01*
X202947912Y-106256163D01*
X203018860Y-106266500D01*
X203018865Y-106266500D01*
X203588135Y-106266500D01*
X203588140Y-106266500D01*
X203659088Y-106256163D01*
X203702049Y-106235160D01*
X203770919Y-106223400D01*
X203835217Y-106250742D01*
X203844190Y-106258879D01*
X204417629Y-106832318D01*
X204433050Y-106851108D01*
X204440354Y-106862040D01*
X204440356Y-106862041D01*
X204440357Y-106862043D01*
X204467548Y-106880211D01*
X204523875Y-106917848D01*
X204523876Y-106917848D01*
X204523879Y-106917850D01*
X204539176Y-106920892D01*
X204539184Y-106920896D01*
X204539185Y-106920894D01*
X204622400Y-106937448D01*
X204622401Y-106937448D01*
X204635295Y-106934883D01*
X204659487Y-106932500D01*
X206643376Y-106932500D01*
X206710415Y-106952185D01*
X206756170Y-107004989D01*
X206761848Y-107019889D01*
X206762837Y-107023089D01*
X206816336Y-107132525D01*
X206902474Y-107218663D01*
X206984195Y-107258613D01*
X207011912Y-107272163D01*
X207058879Y-107279006D01*
X207122378Y-107308150D01*
X207160042Y-107366999D01*
X207165000Y-107401710D01*
X207165000Y-108350649D01*
X207145315Y-108417688D01*
X207128681Y-108438330D01*
X206782630Y-108784381D01*
X206721307Y-108817866D01*
X206694949Y-108820700D01*
X206166260Y-108820700D01*
X206095312Y-108831037D01*
X206095310Y-108831037D01*
X206095308Y-108831038D01*
X205985874Y-108884536D01*
X205899736Y-108970674D01*
X205846238Y-109080108D01*
X205846237Y-109080110D01*
X205846237Y-109080112D01*
X205835900Y-109151060D01*
X205835900Y-109695340D01*
X205846237Y-109766288D01*
X205846237Y-109766289D01*
X205846238Y-109766291D01*
X205899736Y-109875725D01*
X205985874Y-109961863D01*
X206090643Y-110013080D01*
X206095312Y-110015363D01*
X206166260Y-110025700D01*
X206166265Y-110025700D01*
X206835535Y-110025700D01*
X206835540Y-110025700D01*
X206906488Y-110015363D01*
X206962374Y-109988041D01*
X207015925Y-109961863D01*
X207102063Y-109875725D01*
X207133137Y-109812161D01*
X207155563Y-109766288D01*
X207165900Y-109695340D01*
X207165900Y-109166650D01*
X207185585Y-109099611D01*
X207202219Y-109078969D01*
X207379243Y-108901945D01*
X207569822Y-108711365D01*
X207588608Y-108695948D01*
X207599543Y-108688643D01*
X207655350Y-108605121D01*
X207655752Y-108603100D01*
X207674948Y-108506600D01*
X207672382Y-108493705D01*
X207670000Y-108469513D01*
X207670000Y-107401710D01*
X207689685Y-107334671D01*
X207742489Y-107288916D01*
X207776118Y-107279006D01*
X207823088Y-107272163D01*
X207887283Y-107240780D01*
X207932525Y-107218663D01*
X208018663Y-107132525D01*
X208047446Y-107073648D01*
X208072163Y-107023088D01*
X208082500Y-106952140D01*
X208082500Y-106805000D01*
X208355000Y-106805000D01*
X208355000Y-106964146D01*
X208361241Y-107022187D01*
X208410232Y-107153537D01*
X208494241Y-107265758D01*
X208606462Y-107349767D01*
X208737812Y-107398758D01*
X208795853Y-107404999D01*
X208795870Y-107405000D01*
X209017500Y-107405000D01*
X209017500Y-106805000D01*
X208355000Y-106805000D01*
X208082500Y-106805000D01*
X208082500Y-106407860D01*
X208072163Y-106336912D01*
X208059742Y-106311505D01*
X208018663Y-106227474D01*
X207932525Y-106141336D01*
X207823091Y-106087838D01*
X207823089Y-106087837D01*
X207823088Y-106087837D01*
X207752140Y-106077500D01*
X207082860Y-106077500D01*
X207011912Y-106087837D01*
X207011910Y-106087837D01*
X207011908Y-106087838D01*
X206902474Y-106141336D01*
X206816336Y-106227474D01*
X206762837Y-106336910D01*
X206761848Y-106340111D01*
X206759654Y-106343421D01*
X206758607Y-106345563D01*
X206758325Y-106345425D01*
X206723248Y-106398350D01*
X206659289Y-106426475D01*
X206643376Y-106427500D01*
X205665691Y-106427500D01*
X205598652Y-106407815D01*
X205552897Y-106355011D01*
X205542953Y-106285853D01*
X205571978Y-106222297D01*
X205593292Y-106202896D01*
X205679663Y-106116525D01*
X205714829Y-106044591D01*
X205733163Y-106007088D01*
X205743500Y-105936140D01*
X205743500Y-105457450D01*
X205763185Y-105390411D01*
X205779819Y-105369769D01*
X205892318Y-105257270D01*
X205911111Y-105241847D01*
X205922043Y-105234543D01*
X205976771Y-105152636D01*
X205979032Y-105149471D01*
X205987880Y-105137874D01*
X205984523Y-105121750D01*
X205986503Y-105107519D01*
X205997448Y-105052500D01*
X205994882Y-105039597D01*
X205992500Y-105015409D01*
X205992500Y-104516500D01*
X206012185Y-104449461D01*
X206064989Y-104403706D01*
X206116500Y-104392500D01*
X208733649Y-104392500D01*
X208800688Y-104412185D01*
X208821330Y-104428819D01*
X209041181Y-104648669D01*
X209074666Y-104709992D01*
X209077500Y-104736350D01*
X209077500Y-105831000D01*
X209057815Y-105898039D01*
X209005011Y-105943794D01*
X208953500Y-105955000D01*
X208795853Y-105955000D01*
X208737812Y-105961241D01*
X208606462Y-106010232D01*
X208494241Y-106094241D01*
X208410232Y-106206462D01*
X208361241Y-106337812D01*
X208355000Y-106395853D01*
X208355000Y-106555000D01*
X209143500Y-106555000D01*
X209210539Y-106574685D01*
X209256294Y-106627489D01*
X209267500Y-106679000D01*
X209267499Y-107404999D01*
X209267500Y-107405000D01*
X209489130Y-107405000D01*
X209489146Y-107404999D01*
X209515244Y-107402193D01*
X209584003Y-107414597D01*
X209635141Y-107462207D01*
X209652500Y-107525482D01*
X209652500Y-108556649D01*
X209632815Y-108623688D01*
X209616181Y-108644330D01*
X206185330Y-112075181D01*
X206124007Y-112108666D01*
X206097649Y-112111500D01*
X202996951Y-112111500D01*
X202929912Y-112091815D01*
X202884157Y-112039011D01*
X202874213Y-111969853D01*
X202903238Y-111906297D01*
X202909270Y-111899819D01*
X203222645Y-111586443D01*
X203352322Y-111456765D01*
X203371108Y-111441348D01*
X203382043Y-111434043D01*
X203400896Y-111405825D01*
X203437850Y-111350522D01*
X203446730Y-111305880D01*
X203457448Y-111252000D01*
X203457448Y-111251999D01*
X203454883Y-111239105D01*
X203452500Y-111214913D01*
X203452500Y-109817450D01*
X203472185Y-109750411D01*
X203488820Y-109729768D01*
X203535463Y-109683125D01*
X203583546Y-109584768D01*
X203588963Y-109573688D01*
X203599300Y-109502740D01*
X203599300Y-108933460D01*
X203588963Y-108862512D01*
X203580977Y-108846176D01*
X203535463Y-108753074D01*
X203449325Y-108666936D01*
X203339891Y-108613438D01*
X203339889Y-108613437D01*
X203339888Y-108613437D01*
X203268940Y-108603100D01*
X202724660Y-108603100D01*
X202653712Y-108613437D01*
X202653710Y-108613437D01*
X202653708Y-108613438D01*
X202544274Y-108666936D01*
X202544272Y-108666938D01*
X202458140Y-108753071D01*
X202458136Y-108753074D01*
X202404638Y-108862508D01*
X202404637Y-108862510D01*
X202404637Y-108862512D01*
X202394300Y-108933460D01*
X202394300Y-109502740D01*
X202404637Y-109573688D01*
X202404637Y-109573689D01*
X202404638Y-109573691D01*
X202458136Y-109683125D01*
X202544274Y-109769263D01*
X202632025Y-109812161D01*
X202653712Y-109822763D01*
X202724660Y-109833100D01*
X202823500Y-109833100D01*
X202890539Y-109852785D01*
X202936294Y-109905589D01*
X202947500Y-109957100D01*
X202947500Y-111096049D01*
X202927815Y-111163088D01*
X202911181Y-111183730D01*
X202369730Y-111725181D01*
X202308407Y-111758666D01*
X202282049Y-111761500D01*
X189329950Y-111761500D01*
X189262911Y-111741815D01*
X189217156Y-111689011D01*
X189207212Y-111619853D01*
X189236237Y-111556297D01*
X189242269Y-111549819D01*
X190933270Y-109858819D01*
X190994593Y-109825334D01*
X191020951Y-109822500D01*
X191499635Y-109822500D01*
X191499640Y-109822500D01*
X191570588Y-109812163D01*
X191626474Y-109784841D01*
X191680025Y-109758663D01*
X191766163Y-109672525D01*
X191809064Y-109584768D01*
X191819663Y-109563088D01*
X191830000Y-109492140D01*
X191830000Y-108947860D01*
X191819663Y-108876912D01*
X191812621Y-108862508D01*
X191766163Y-108767474D01*
X191680025Y-108681336D01*
X191570591Y-108627838D01*
X191570589Y-108627837D01*
X191570588Y-108627837D01*
X191499640Y-108617500D01*
X190930360Y-108617500D01*
X190859412Y-108627837D01*
X190859410Y-108627837D01*
X190859408Y-108627838D01*
X190749974Y-108681336D01*
X190663836Y-108767474D01*
X190610338Y-108876908D01*
X190610337Y-108876910D01*
X190610337Y-108876912D01*
X190600000Y-108947860D01*
X190600000Y-108947864D01*
X190600000Y-108947865D01*
X190600000Y-109426549D01*
X190580315Y-109493588D01*
X190563681Y-109514230D01*
X188962330Y-111115581D01*
X188901007Y-111149066D01*
X188874649Y-111151900D01*
X184296950Y-111151900D01*
X184229911Y-111132215D01*
X184184156Y-111079411D01*
X184174212Y-111010253D01*
X184203237Y-110946697D01*
X184209269Y-110940219D01*
X184209268Y-110940218D01*
X184454722Y-110694765D01*
X184473508Y-110679348D01*
X184484443Y-110672043D01*
X184506046Y-110639711D01*
X184540249Y-110588524D01*
X184540722Y-110586150D01*
X184554900Y-110514870D01*
X184559847Y-110490000D01*
X184557282Y-110477104D01*
X184554900Y-110452915D01*
X184554900Y-108889100D01*
X184574585Y-108822061D01*
X184627389Y-108776306D01*
X184678900Y-108765100D01*
X185177813Y-108765100D01*
X185202005Y-108767482D01*
X185214900Y-108770048D01*
X185300229Y-108753074D01*
X185313421Y-108750450D01*
X185396943Y-108694643D01*
X185404248Y-108683708D01*
X185419665Y-108664922D01*
X185925320Y-108159267D01*
X185986641Y-108125784D01*
X186056333Y-108130768D01*
X186100680Y-108159269D01*
X186176074Y-108234663D01*
X186258075Y-108274750D01*
X186285512Y-108288163D01*
X186356460Y-108298500D01*
X186356465Y-108298500D01*
X186925735Y-108298500D01*
X186925740Y-108298500D01*
X186996688Y-108288163D01*
X187064211Y-108255153D01*
X187106125Y-108234663D01*
X187192263Y-108148525D01*
X187218441Y-108094974D01*
X187245763Y-108039088D01*
X187256100Y-107968140D01*
X187256100Y-107423860D01*
X187245763Y-107352912D01*
X187241869Y-107344947D01*
X187192263Y-107243474D01*
X187106125Y-107157336D01*
X186996691Y-107103838D01*
X186996689Y-107103837D01*
X186996688Y-107103837D01*
X186925740Y-107093500D01*
X186356460Y-107093500D01*
X186285512Y-107103837D01*
X186285510Y-107103837D01*
X186285508Y-107103838D01*
X186176074Y-107157336D01*
X186089936Y-107243474D01*
X186036437Y-107352909D01*
X186036437Y-107352910D01*
X186036359Y-107353447D01*
X186036090Y-107354031D01*
X186033594Y-107362112D01*
X186032532Y-107361783D01*
X186007212Y-107416947D01*
X185948361Y-107454608D01*
X185937851Y-107457180D01*
X185932983Y-107458148D01*
X185932980Y-107458149D01*
X185849457Y-107513956D01*
X185842151Y-107524891D01*
X185826733Y-107543676D01*
X185146630Y-108223781D01*
X185085307Y-108257266D01*
X185058949Y-108260100D01*
X184339482Y-108260100D01*
X184315290Y-108257717D01*
X184302401Y-108255153D01*
X184302399Y-108255153D01*
X184234043Y-108268750D01*
X184203877Y-108274750D01*
X184120357Y-108330557D01*
X184064549Y-108414078D01*
X184064549Y-108414079D01*
X184044953Y-108512597D01*
X184044953Y-108512600D01*
X184047517Y-108525492D01*
X184049899Y-108549681D01*
X184049900Y-110334048D01*
X184030215Y-110401087D01*
X184013582Y-110421728D01*
X183878528Y-110556782D01*
X183817208Y-110590266D01*
X183790849Y-110593100D01*
X180902351Y-110593100D01*
X180835312Y-110573415D01*
X180814670Y-110556781D01*
X179409619Y-109151730D01*
X179376134Y-109090407D01*
X179373300Y-109064049D01*
X179373300Y-107479081D01*
X179375683Y-107454888D01*
X179375739Y-107454608D01*
X179378247Y-107442000D01*
X179378246Y-107441997D01*
X179378247Y-107441997D01*
X179358650Y-107343479D01*
X179358650Y-107343478D01*
X179302843Y-107259957D01*
X179259297Y-107230861D01*
X179219321Y-107204150D01*
X179219320Y-107204149D01*
X179219319Y-107204149D01*
X179219247Y-107204135D01*
X179219247Y-107204134D01*
X179120802Y-107184553D01*
X179120799Y-107184553D01*
X179107910Y-107187117D01*
X179083718Y-107189500D01*
X178996365Y-107189500D01*
X178929326Y-107169815D01*
X178883571Y-107117011D01*
X178872962Y-107077654D01*
X178872689Y-107074886D01*
X178864957Y-106996376D01*
X178809062Y-106812117D01*
X178772602Y-106743905D01*
X178718297Y-106642307D01*
X178718293Y-106642300D01*
X178656789Y-106567358D01*
X178629476Y-106503048D01*
X178641267Y-106434181D01*
X178688419Y-106382620D01*
X178755961Y-106364737D01*
X178822450Y-106386209D01*
X178840323Y-106401012D01*
X180766181Y-108326869D01*
X180799666Y-108388192D01*
X180802500Y-108414550D01*
X180802500Y-108505574D01*
X180782815Y-108572613D01*
X180730011Y-108618368D01*
X180708521Y-108624701D01*
X180708612Y-108624994D01*
X180699409Y-108627837D01*
X180589974Y-108681336D01*
X180503836Y-108767474D01*
X180450338Y-108876908D01*
X180450337Y-108876910D01*
X180450337Y-108876912D01*
X180440000Y-108947860D01*
X180440000Y-109492140D01*
X180450337Y-109563088D01*
X180450337Y-109563089D01*
X180450338Y-109563091D01*
X180503836Y-109672525D01*
X180589974Y-109758663D01*
X180694743Y-109809880D01*
X180699412Y-109812163D01*
X180770360Y-109822500D01*
X180770365Y-109822500D01*
X181339635Y-109822500D01*
X181339640Y-109822500D01*
X181410588Y-109812163D01*
X181466474Y-109784841D01*
X181520025Y-109758663D01*
X181606163Y-109672525D01*
X181649064Y-109584768D01*
X181659663Y-109563088D01*
X181670000Y-109492140D01*
X181670000Y-108947860D01*
X181659663Y-108876912D01*
X181652621Y-108862508D01*
X181606163Y-108767474D01*
X181520025Y-108681336D01*
X181410590Y-108627837D01*
X181401388Y-108624994D01*
X181402017Y-108622955D01*
X181350111Y-108599126D01*
X181312454Y-108540273D01*
X181307500Y-108505574D01*
X181307500Y-108295681D01*
X181309883Y-108271488D01*
X181312447Y-108258600D01*
X181312446Y-108258597D01*
X181312447Y-108258597D01*
X181292851Y-108160080D01*
X181287025Y-108151362D01*
X181287023Y-108151356D01*
X181287022Y-108151357D01*
X181237043Y-108076557D01*
X181229828Y-108071736D01*
X181226108Y-108069250D01*
X181207318Y-108053829D01*
X178919169Y-105765680D01*
X178903748Y-105746890D01*
X178896443Y-105735957D01*
X178812921Y-105680150D01*
X178812919Y-105680149D01*
X178801413Y-105677860D01*
X178797614Y-105677105D01*
X178797613Y-105677104D01*
X178714401Y-105660552D01*
X178714400Y-105660552D01*
X178701506Y-105663117D01*
X178677313Y-105665500D01*
X178549172Y-105665500D01*
X178482133Y-105645815D01*
X178436378Y-105593011D01*
X178426434Y-105523853D01*
X178455459Y-105460297D01*
X178470507Y-105445647D01*
X178596141Y-105342541D01*
X178645694Y-105282161D01*
X178718294Y-105193698D01*
X178809062Y-105023883D01*
X178816455Y-104999511D01*
X178819795Y-104988503D01*
X178858093Y-104930065D01*
X178921906Y-104901609D01*
X178938455Y-104900500D01*
X182153500Y-104900500D01*
X182220539Y-104920185D01*
X182266294Y-104972989D01*
X182277500Y-105024499D01*
X182277500Y-105337140D01*
X182287837Y-105408088D01*
X182287837Y-105408089D01*
X182287838Y-105408091D01*
X182341336Y-105517525D01*
X182427474Y-105603663D01*
X182532243Y-105654880D01*
X182536912Y-105657163D01*
X182607860Y-105667500D01*
X182607865Y-105667500D01*
X183152135Y-105667500D01*
X183152140Y-105667500D01*
X183223088Y-105657163D01*
X183280326Y-105629181D01*
X183332525Y-105603663D01*
X183418663Y-105517525D01*
X183453438Y-105446391D01*
X183472163Y-105408088D01*
X183482500Y-105337140D01*
X183482500Y-104767860D01*
X183472163Y-104696912D01*
X183461543Y-104675189D01*
X183418663Y-104587474D01*
X183332525Y-104501336D01*
X183223091Y-104447838D01*
X183223089Y-104447837D01*
X183223088Y-104447837D01*
X183152140Y-104437500D01*
X183152135Y-104437500D01*
X182652568Y-104437500D01*
X182585529Y-104417815D01*
X182583717Y-104416628D01*
X182574021Y-104410150D01*
X182574019Y-104410149D01*
X182562513Y-104407860D01*
X182558714Y-104407105D01*
X182558713Y-104407104D01*
X182475501Y-104390552D01*
X182475500Y-104390552D01*
X182464813Y-104392678D01*
X182462606Y-104393117D01*
X182438413Y-104395500D01*
X178938455Y-104395500D01*
X178871416Y-104375815D01*
X178825661Y-104323011D01*
X178819795Y-104307497D01*
X178809061Y-104272114D01*
X178718297Y-104102307D01*
X178718293Y-104102300D01*
X178596141Y-103953458D01*
X178447299Y-103831306D01*
X178447292Y-103831302D01*
X178277484Y-103740538D01*
X178093226Y-103684643D01*
X177901600Y-103665770D01*
X177709973Y-103684643D01*
X177525715Y-103740538D01*
X177355907Y-103831302D01*
X177355900Y-103831306D01*
X177207058Y-103953458D01*
X177154753Y-104017193D01*
X177097007Y-104056527D01*
X177027163Y-104058398D01*
X176967394Y-104022210D01*
X176936679Y-103959454D01*
X176934900Y-103938528D01*
X176934900Y-103483150D01*
X176954585Y-103416111D01*
X176971215Y-103395473D01*
X177346977Y-103019710D01*
X177408300Y-102986226D01*
X177477992Y-102991210D01*
X177493109Y-102998032D01*
X177525717Y-103015462D01*
X177709976Y-103071357D01*
X177901600Y-103090230D01*
X178093224Y-103071357D01*
X178277483Y-103015462D01*
X178447298Y-102924694D01*
X178596141Y-102802541D01*
X178718294Y-102653698D01*
X178809062Y-102483883D01*
X178864957Y-102299624D01*
X178883830Y-102108000D01*
X178864957Y-101916376D01*
X178809062Y-101732117D01*
X178790432Y-101697262D01*
X178778105Y-101674200D01*
X184126700Y-101674200D01*
X184126700Y-101833346D01*
X184132941Y-101891387D01*
X184181932Y-102022737D01*
X184265941Y-102134958D01*
X184378162Y-102218967D01*
X184509512Y-102267958D01*
X184567553Y-102274199D01*
X184567570Y-102274200D01*
X184789200Y-102274200D01*
X184789200Y-101674200D01*
X185039200Y-101674200D01*
X185039200Y-102274200D01*
X185260830Y-102274200D01*
X185260846Y-102274199D01*
X185318887Y-102267958D01*
X185450237Y-102218967D01*
X185562458Y-102134958D01*
X185646467Y-102022737D01*
X185695458Y-101891387D01*
X185701699Y-101833346D01*
X185701700Y-101833329D01*
X185701700Y-101674200D01*
X185039200Y-101674200D01*
X184789200Y-101674200D01*
X184126700Y-101674200D01*
X178778105Y-101674200D01*
X178718297Y-101562307D01*
X178718293Y-101562300D01*
X178604957Y-101424200D01*
X184126700Y-101424200D01*
X184789200Y-101424200D01*
X184789200Y-100824200D01*
X185039200Y-100824200D01*
X185039200Y-101424200D01*
X185701700Y-101424200D01*
X185701700Y-101265070D01*
X185701699Y-101265053D01*
X185695458Y-101207012D01*
X185646467Y-101075662D01*
X185562458Y-100963441D01*
X185450237Y-100879432D01*
X185318887Y-100830441D01*
X185260846Y-100824200D01*
X185039200Y-100824200D01*
X184789200Y-100824200D01*
X184567553Y-100824200D01*
X184509512Y-100830441D01*
X184378162Y-100879432D01*
X184265941Y-100963441D01*
X184181932Y-101075662D01*
X184132941Y-101207012D01*
X184126700Y-101265053D01*
X184126700Y-101424200D01*
X178604957Y-101424200D01*
X178596141Y-101413458D01*
X178447299Y-101291306D01*
X178447292Y-101291302D01*
X178277484Y-101200538D01*
X178093226Y-101144643D01*
X177901600Y-101125770D01*
X177709973Y-101144643D01*
X177525715Y-101200538D01*
X177355907Y-101291302D01*
X177355900Y-101291306D01*
X177207058Y-101413458D01*
X177084906Y-101562300D01*
X177084902Y-101562307D01*
X176994138Y-101732115D01*
X176938243Y-101916373D01*
X176919370Y-102108000D01*
X176938243Y-102299626D01*
X176994137Y-102483882D01*
X176998609Y-102492248D01*
X177008006Y-102509829D01*
X177011565Y-102516486D01*
X177025807Y-102584889D01*
X177000808Y-102650133D01*
X176989888Y-102662621D01*
X176530076Y-103122433D01*
X176511292Y-103137849D01*
X176504711Y-103142248D01*
X176500356Y-103145158D01*
X176451333Y-103218526D01*
X176435912Y-103237316D01*
X176434925Y-103238302D01*
X176437623Y-103263399D01*
X176437210Y-103265572D01*
X176424952Y-103327197D01*
X176424952Y-103327199D01*
X176424952Y-103327200D01*
X176425267Y-103328785D01*
X176427517Y-103340096D01*
X176429899Y-103364286D01*
X176429899Y-105525313D01*
X176427517Y-105549501D01*
X176424952Y-105562398D01*
X176424952Y-105562400D01*
X176434691Y-105611358D01*
X176444549Y-105660921D01*
X176457398Y-105680150D01*
X176500357Y-105744443D01*
X176511290Y-105751748D01*
X176530080Y-105767169D01*
X176833229Y-106070318D01*
X176848650Y-106089108D01*
X176852080Y-106094241D01*
X176855957Y-106100043D01*
X176880626Y-106116526D01*
X176917193Y-106140959D01*
X176917192Y-106140959D01*
X176939478Y-106155849D01*
X176939481Y-106155851D01*
X177037998Y-106175447D01*
X177038000Y-106175447D01*
X177038001Y-106175447D01*
X177050890Y-106172883D01*
X177075082Y-106170500D01*
X177254028Y-106170500D01*
X177321067Y-106190185D01*
X177366822Y-106242989D01*
X177376766Y-106312147D01*
X177347741Y-106375703D01*
X177332693Y-106390353D01*
X177207058Y-106493458D01*
X177084906Y-106642300D01*
X177084902Y-106642307D01*
X176994138Y-106812115D01*
X176938243Y-106996373D01*
X176919370Y-107188000D01*
X176938243Y-107379626D01*
X176994138Y-107563884D01*
X177084902Y-107733692D01*
X177084906Y-107733699D01*
X177207058Y-107882541D01*
X177355900Y-108004693D01*
X177355907Y-108004697D01*
X177490346Y-108076556D01*
X177525717Y-108095462D01*
X177709976Y-108151357D01*
X177901600Y-108170230D01*
X178093224Y-108151357D01*
X178277483Y-108095462D01*
X178447298Y-108004694D01*
X178596141Y-107882541D01*
X178648447Y-107818806D01*
X178706192Y-107779472D01*
X178776037Y-107777601D01*
X178835805Y-107813788D01*
X178866521Y-107876544D01*
X178868300Y-107897471D01*
X178868300Y-109018528D01*
X178848615Y-109085567D01*
X178795811Y-109131322D01*
X178726653Y-109141266D01*
X178663097Y-109112241D01*
X178648447Y-109097193D01*
X178596141Y-109033458D01*
X178447299Y-108911306D01*
X178447292Y-108911302D01*
X178277484Y-108820538D01*
X178093226Y-108764643D01*
X177901600Y-108745770D01*
X177709973Y-108764643D01*
X177525715Y-108820538D01*
X177355907Y-108911302D01*
X177355900Y-108911306D01*
X177207058Y-109033458D01*
X177084906Y-109182300D01*
X177084902Y-109182307D01*
X176994138Y-109352115D01*
X176938243Y-109536373D01*
X176919370Y-109728000D01*
X176938243Y-109919626D01*
X176994138Y-110103884D01*
X177084902Y-110273692D01*
X177084906Y-110273699D01*
X177207058Y-110422541D01*
X177355900Y-110544693D01*
X177355907Y-110544697D01*
X177493113Y-110618035D01*
X177525717Y-110635462D01*
X177709976Y-110691357D01*
X177901600Y-110710230D01*
X178093224Y-110691357D01*
X178277483Y-110635462D01*
X178310086Y-110618034D01*
X178378488Y-110603792D01*
X178443733Y-110628791D01*
X178456222Y-110639711D01*
X179366331Y-111549819D01*
X179399816Y-111611142D01*
X179394832Y-111680833D01*
X179352960Y-111736767D01*
X179287496Y-111761184D01*
X179278650Y-111761500D01*
X179225950Y-111761500D01*
X179158911Y-111741815D01*
X179138269Y-111725181D01*
X178614369Y-111201280D01*
X178598948Y-111182490D01*
X178591643Y-111171557D01*
X178508121Y-111115750D01*
X178508119Y-111115749D01*
X178496613Y-111113460D01*
X178492814Y-111112705D01*
X178492813Y-111112704D01*
X178409601Y-111096152D01*
X178409600Y-111096152D01*
X178399808Y-111098100D01*
X178396706Y-111098717D01*
X178372513Y-111101100D01*
X177346351Y-111101100D01*
X177279312Y-111081415D01*
X177258670Y-111064781D01*
X176708758Y-110514869D01*
X176158416Y-109964526D01*
X176124933Y-109903206D01*
X176122099Y-109876857D01*
X176122099Y-100435149D01*
X176141784Y-100368111D01*
X176158418Y-100347469D01*
X176649069Y-99856819D01*
X176710392Y-99823334D01*
X176736750Y-99820500D01*
X176864745Y-99820500D01*
X176931784Y-99840185D01*
X176977539Y-99892989D01*
X176983405Y-99908503D01*
X176994138Y-99943885D01*
X177084902Y-100113692D01*
X177084906Y-100113699D01*
X177207058Y-100262541D01*
X177355900Y-100384693D01*
X177355907Y-100384697D01*
X177498578Y-100460956D01*
X177525717Y-100475462D01*
X177709976Y-100531357D01*
X177901600Y-100550230D01*
X178093224Y-100531357D01*
X178277483Y-100475462D01*
X178447298Y-100384694D01*
X178596141Y-100262541D01*
X178718294Y-100113698D01*
X178762860Y-100030321D01*
X182086453Y-100030321D01*
X182252612Y-100146666D01*
X182450840Y-100239101D01*
X182450849Y-100239105D01*
X182662105Y-100295710D01*
X182662115Y-100295712D01*
X182879999Y-100314775D01*
X182880001Y-100314775D01*
X183097884Y-100295712D01*
X183097894Y-100295710D01*
X183309150Y-100239105D01*
X183309159Y-100239101D01*
X183507387Y-100146666D01*
X183673545Y-100030321D01*
X182880000Y-99236777D01*
X182086453Y-100030321D01*
X178762860Y-100030321D01*
X178809062Y-99943883D01*
X178864957Y-99759624D01*
X178883830Y-99568000D01*
X178864957Y-99376376D01*
X178809062Y-99192117D01*
X178808629Y-99191307D01*
X178738444Y-99060000D01*
X181625224Y-99060000D01*
X181644287Y-99277884D01*
X181644289Y-99277894D01*
X181700894Y-99489150D01*
X181700898Y-99489159D01*
X181793332Y-99687386D01*
X181793333Y-99687388D01*
X181909677Y-99853545D01*
X182703223Y-99060000D01*
X183056777Y-99060000D01*
X183850321Y-99853545D01*
X183966666Y-99687387D01*
X184059101Y-99489159D01*
X184059105Y-99489150D01*
X184115710Y-99277894D01*
X184115712Y-99277884D01*
X184134775Y-99060000D01*
X184134775Y-99059999D01*
X184115712Y-98842115D01*
X184115710Y-98842105D01*
X184059105Y-98630849D01*
X184059101Y-98630840D01*
X183966668Y-98432615D01*
X183850320Y-98266454D01*
X183056777Y-99059999D01*
X183056777Y-99060000D01*
X182703223Y-99060000D01*
X182703223Y-99059999D01*
X181909678Y-98266454D01*
X181793333Y-98432613D01*
X181700898Y-98630840D01*
X181700894Y-98630849D01*
X181644289Y-98842105D01*
X181644287Y-98842115D01*
X181625224Y-99059999D01*
X181625224Y-99060000D01*
X178738444Y-99060000D01*
X178718297Y-99022307D01*
X178718293Y-99022300D01*
X178596141Y-98873458D01*
X178447299Y-98751306D01*
X178447292Y-98751302D01*
X178277484Y-98660538D01*
X178093226Y-98604643D01*
X177901600Y-98585770D01*
X177709973Y-98604643D01*
X177525715Y-98660538D01*
X177355907Y-98751302D01*
X177355900Y-98751306D01*
X177207058Y-98873458D01*
X177084906Y-99022300D01*
X177084902Y-99022307D01*
X176994138Y-99192114D01*
X176983405Y-99227497D01*
X176945107Y-99285935D01*
X176881294Y-99314391D01*
X176864745Y-99315500D01*
X176617887Y-99315500D01*
X176593695Y-99313117D01*
X176580801Y-99310552D01*
X176580800Y-99310552D01*
X176502699Y-99326088D01*
X176482278Y-99330149D01*
X176398758Y-99385956D01*
X176391449Y-99396894D01*
X176376031Y-99415679D01*
X175978181Y-99813530D01*
X175916858Y-99847015D01*
X175847167Y-99842031D01*
X175791233Y-99800160D01*
X175766816Y-99734695D01*
X175766500Y-99725849D01*
X175766500Y-98657150D01*
X175786185Y-98590111D01*
X175802814Y-98569474D01*
X176282610Y-98089678D01*
X182086454Y-98089678D01*
X182880000Y-98883223D01*
X182880001Y-98883223D01*
X183673545Y-98089677D01*
X183673545Y-98089676D01*
X183507388Y-97973333D01*
X183507386Y-97973332D01*
X183309159Y-97880898D01*
X183309150Y-97880894D01*
X183097894Y-97824289D01*
X183097884Y-97824287D01*
X182880001Y-97805225D01*
X182879999Y-97805225D01*
X182662115Y-97824287D01*
X182662105Y-97824289D01*
X182450849Y-97880894D01*
X182450840Y-97880898D01*
X182252613Y-97973333D01*
X182086454Y-98089678D01*
X176282610Y-98089678D01*
X176712418Y-97659870D01*
X176773742Y-97626385D01*
X176843434Y-97631369D01*
X176899367Y-97673241D01*
X176923784Y-97738705D01*
X176924100Y-97747551D01*
X176924100Y-97890558D01*
X176931498Y-97927749D01*
X176959677Y-97969922D01*
X177001850Y-97998101D01*
X177001852Y-97998102D01*
X177029805Y-98003662D01*
X177039041Y-98005500D01*
X177039042Y-98005500D01*
X178764159Y-98005500D01*
X178771557Y-98004028D01*
X178801348Y-97998102D01*
X178843522Y-97969922D01*
X178871702Y-97927748D01*
X178879100Y-97890558D01*
X178879100Y-96165442D01*
X178871702Y-96128252D01*
X178870099Y-96125853D01*
X178843522Y-96086077D01*
X178801349Y-96057898D01*
X178764159Y-96050500D01*
X178764158Y-96050500D01*
X177039042Y-96050500D01*
X177039041Y-96050500D01*
X177001850Y-96057898D01*
X176959677Y-96086077D01*
X176931498Y-96128250D01*
X176924100Y-96165441D01*
X176924100Y-96681337D01*
X176904415Y-96748376D01*
X176896768Y-96755002D01*
X176863258Y-96806133D01*
X176851788Y-96814799D01*
X176805158Y-96845956D01*
X176797851Y-96856891D01*
X176782433Y-96875676D01*
X175381381Y-98276729D01*
X175320058Y-98310214D01*
X175250366Y-98305230D01*
X175194433Y-98263358D01*
X175170016Y-98197894D01*
X175169700Y-98189048D01*
X175169700Y-95605599D01*
X185352170Y-95605599D01*
X185371043Y-95797226D01*
X185426938Y-95981484D01*
X185517702Y-96151292D01*
X185517706Y-96151299D01*
X185639858Y-96300141D01*
X185788700Y-96422293D01*
X185788707Y-96422297D01*
X185925913Y-96495635D01*
X185958517Y-96513062D01*
X185993895Y-96523794D01*
X186052333Y-96562090D01*
X186080790Y-96625902D01*
X186081900Y-96642454D01*
X186081900Y-98231900D01*
X186062215Y-98298939D01*
X186009411Y-98344694D01*
X185957900Y-98355900D01*
X185899260Y-98355900D01*
X185828312Y-98366237D01*
X185828310Y-98366237D01*
X185828308Y-98366238D01*
X185718874Y-98419736D01*
X185632736Y-98505874D01*
X185579238Y-98615308D01*
X185579237Y-98615310D01*
X185579237Y-98615312D01*
X185568900Y-98686260D01*
X185568900Y-99230540D01*
X185579237Y-99301488D01*
X185579237Y-99301489D01*
X185579238Y-99301491D01*
X185632736Y-99410925D01*
X185718874Y-99497063D01*
X185823643Y-99548280D01*
X185828312Y-99550563D01*
X185899260Y-99560900D01*
X185899265Y-99560900D01*
X186468535Y-99560900D01*
X186468540Y-99560900D01*
X186539488Y-99550563D01*
X186623703Y-99509393D01*
X186648925Y-99497063D01*
X186735063Y-99410925D01*
X186776433Y-99326300D01*
X186788563Y-99301488D01*
X186798900Y-99230540D01*
X187393900Y-99230540D01*
X187404237Y-99301488D01*
X187404237Y-99301489D01*
X187404238Y-99301491D01*
X187457736Y-99410925D01*
X187543874Y-99497063D01*
X187648643Y-99548280D01*
X187653312Y-99550563D01*
X187724260Y-99560900D01*
X188202949Y-99560900D01*
X188269988Y-99580585D01*
X188290630Y-99597219D01*
X189145729Y-100452318D01*
X189161150Y-100471108D01*
X189168454Y-100482040D01*
X189168457Y-100482043D01*
X189251975Y-100537848D01*
X189251976Y-100537848D01*
X189251979Y-100537850D01*
X189264294Y-100540299D01*
X189264295Y-100540300D01*
X189264296Y-100540300D01*
X189362479Y-100559831D01*
X189362237Y-100561044D01*
X189417029Y-100577133D01*
X189462784Y-100629937D01*
X189472728Y-100699095D01*
X189471608Y-100705638D01*
X189465000Y-100738860D01*
X189465000Y-100825000D01*
X191535000Y-100825000D01*
X191535000Y-100738857D01*
X191534999Y-100738855D01*
X191519306Y-100659960D01*
X191519305Y-100659956D01*
X191459518Y-100570480D01*
X191450884Y-100561846D01*
X191453602Y-100559127D01*
X191422801Y-100522267D01*
X191412500Y-100472785D01*
X191412500Y-100127215D01*
X191432185Y-100060176D01*
X191452365Y-100039632D01*
X191450885Y-100038152D01*
X191459521Y-100029516D01*
X191519304Y-99940043D01*
X191519306Y-99940039D01*
X191534999Y-99861144D01*
X191535000Y-99861142D01*
X191535000Y-99775000D01*
X189465000Y-99775000D01*
X189457953Y-99782046D01*
X189445315Y-99825088D01*
X189392511Y-99870843D01*
X189323353Y-99880787D01*
X189259797Y-99851762D01*
X189253319Y-99845730D01*
X188660219Y-99252630D01*
X188626734Y-99191307D01*
X188623900Y-99164949D01*
X188623900Y-99125000D01*
X189465000Y-99125000D01*
X189465000Y-99211144D01*
X189482835Y-99300808D01*
X189482836Y-99349189D01*
X189465000Y-99438860D01*
X189465000Y-99525000D01*
X190375000Y-99525000D01*
X190375000Y-99125000D01*
X190625000Y-99125000D01*
X190625000Y-99525000D01*
X191535000Y-99525000D01*
X191535000Y-99438857D01*
X191534999Y-99438855D01*
X191517164Y-99349190D01*
X191517164Y-99300807D01*
X191535000Y-99211142D01*
X191535000Y-99125000D01*
X190625000Y-99125000D01*
X190375000Y-99125000D01*
X189465000Y-99125000D01*
X188623900Y-99125000D01*
X188623900Y-98875000D01*
X189465000Y-98875000D01*
X190375000Y-98875000D01*
X190375000Y-98545000D01*
X190625000Y-98545000D01*
X190625000Y-98875000D01*
X191535000Y-98875000D01*
X191535000Y-98788857D01*
X191534999Y-98788855D01*
X191519306Y-98709960D01*
X191519304Y-98709956D01*
X191459519Y-98620480D01*
X191370043Y-98560695D01*
X191370039Y-98560693D01*
X191291144Y-98545000D01*
X190625000Y-98545000D01*
X190375000Y-98545000D01*
X189708855Y-98545000D01*
X189629960Y-98560693D01*
X189629956Y-98560695D01*
X189540480Y-98620480D01*
X189480695Y-98709956D01*
X189480693Y-98709960D01*
X189465000Y-98788855D01*
X189465000Y-98875000D01*
X188623900Y-98875000D01*
X188623900Y-98686265D01*
X188623900Y-98686264D01*
X188623900Y-98686260D01*
X188613563Y-98615312D01*
X188611230Y-98610539D01*
X188560063Y-98505874D01*
X188473925Y-98419736D01*
X188364491Y-98366238D01*
X188364489Y-98366237D01*
X188364488Y-98366237D01*
X188293540Y-98355900D01*
X187724260Y-98355900D01*
X187653312Y-98366237D01*
X187653310Y-98366237D01*
X187653308Y-98366238D01*
X187543874Y-98419736D01*
X187457736Y-98505874D01*
X187404238Y-98615308D01*
X187404237Y-98615310D01*
X187404237Y-98615312D01*
X187393900Y-98686260D01*
X187393900Y-99230540D01*
X186798900Y-99230540D01*
X186798900Y-98686260D01*
X186788563Y-98615312D01*
X186786230Y-98610539D01*
X186735063Y-98505874D01*
X186648926Y-98419737D01*
X186640563Y-98413766D01*
X186642663Y-98410824D01*
X186604854Y-98376277D01*
X186586900Y-98312010D01*
X186586900Y-96642454D01*
X186606585Y-96575415D01*
X186659389Y-96529660D01*
X186674898Y-96523795D01*
X186710283Y-96513062D01*
X186880098Y-96422294D01*
X187028941Y-96300141D01*
X187151094Y-96151298D01*
X187241862Y-95981483D01*
X187297757Y-95797224D01*
X187316630Y-95605600D01*
X187297757Y-95413976D01*
X187241862Y-95229717D01*
X187151094Y-95059902D01*
X187151093Y-95059900D01*
X187028941Y-94911058D01*
X186880099Y-94788906D01*
X186880092Y-94788902D01*
X186710284Y-94698138D01*
X186526026Y-94642243D01*
X186334400Y-94623370D01*
X186142773Y-94642243D01*
X185958515Y-94698138D01*
X185788707Y-94788902D01*
X185788700Y-94788906D01*
X185639858Y-94911058D01*
X185517706Y-95059900D01*
X185517702Y-95059907D01*
X185426938Y-95229715D01*
X185371043Y-95413973D01*
X185352170Y-95605599D01*
X175169700Y-95605599D01*
X175169700Y-94369300D01*
X175189385Y-94302261D01*
X175242189Y-94256506D01*
X175293700Y-94245300D01*
X204021390Y-94245300D01*
X204088429Y-94264985D01*
G37*
%TD.AperFunction*%
%TA.AperFunction,Conductor*%
G36*
X203520417Y-100244685D02*
G01*
X203566172Y-100297489D01*
X203576116Y-100366647D01*
X203547091Y-100430203D01*
X203496712Y-100465182D01*
X203475662Y-100473033D01*
X203363441Y-100557041D01*
X203279432Y-100669262D01*
X203230441Y-100800612D01*
X203224200Y-100858653D01*
X203224200Y-101017800D01*
X204799200Y-101017800D01*
X204799200Y-100858670D01*
X204799199Y-100858653D01*
X204792958Y-100800612D01*
X204743967Y-100669262D01*
X204659958Y-100557041D01*
X204547737Y-100473033D01*
X204526688Y-100465182D01*
X204470755Y-100423310D01*
X204446338Y-100357846D01*
X204461190Y-100289573D01*
X204510595Y-100240168D01*
X204570022Y-100225000D01*
X205025575Y-100225000D01*
X205092614Y-100244685D01*
X205138369Y-100297489D01*
X205144700Y-100318978D01*
X205144994Y-100318888D01*
X205147837Y-100328090D01*
X205201336Y-100437525D01*
X205287474Y-100523663D01*
X205371635Y-100564806D01*
X205396912Y-100577163D01*
X205467860Y-100587500D01*
X205946549Y-100587500D01*
X206013588Y-100607185D01*
X206034230Y-100623819D01*
X206314780Y-100904369D01*
X206348265Y-100965692D01*
X206351099Y-100992050D01*
X206351100Y-103036113D01*
X206348717Y-103060305D01*
X206346152Y-103073199D01*
X206346151Y-103073200D01*
X206359812Y-103141869D01*
X206365750Y-103171722D01*
X206421556Y-103255242D01*
X206432490Y-103262548D01*
X206451280Y-103277969D01*
X206849130Y-103675819D01*
X206882615Y-103737142D01*
X206877631Y-103806834D01*
X206835759Y-103862767D01*
X206770295Y-103887184D01*
X206761449Y-103887500D01*
X205777082Y-103887500D01*
X205752890Y-103885117D01*
X205740001Y-103882553D01*
X205740000Y-103882553D01*
X205715130Y-103887500D01*
X205690579Y-103892383D01*
X205641477Y-103902150D01*
X205557957Y-103957957D01*
X205502149Y-104041478D01*
X205502149Y-104041479D01*
X205482553Y-104139997D01*
X205482553Y-104139999D01*
X205482553Y-104140000D01*
X205483725Y-104145894D01*
X205485117Y-104152888D01*
X205487500Y-104177081D01*
X205487500Y-104896548D01*
X205467815Y-104963587D01*
X205451182Y-104984228D01*
X205410231Y-105025180D01*
X205348909Y-105058666D01*
X205322549Y-105061500D01*
X204843860Y-105061500D01*
X204772912Y-105071837D01*
X204772910Y-105071837D01*
X204772908Y-105071838D01*
X204663474Y-105125336D01*
X204577336Y-105211474D01*
X204523838Y-105320908D01*
X204523838Y-105320909D01*
X204523837Y-105320912D01*
X204513500Y-105391860D01*
X204513500Y-105391865D01*
X204513500Y-105914649D01*
X204493815Y-105981688D01*
X204441011Y-106027443D01*
X204371853Y-106037387D01*
X204308297Y-106008362D01*
X204301819Y-106002330D01*
X203954819Y-105655330D01*
X203921334Y-105594007D01*
X203918500Y-105567649D01*
X203918500Y-105391865D01*
X203918500Y-105391864D01*
X203918500Y-105391860D01*
X203908163Y-105320912D01*
X203893262Y-105290432D01*
X203854663Y-105211474D01*
X203768525Y-105125336D01*
X203659091Y-105071838D01*
X203659089Y-105071837D01*
X203659088Y-105071837D01*
X203588140Y-105061500D01*
X203588135Y-105061500D01*
X203580300Y-105061500D01*
X203513261Y-105041815D01*
X203467506Y-104989011D01*
X203456300Y-104937500D01*
X203456300Y-104888281D01*
X203458683Y-104864088D01*
X203459071Y-104862138D01*
X203461247Y-104851200D01*
X203461246Y-104851197D01*
X203461247Y-104851197D01*
X203441650Y-104752679D01*
X203441650Y-104752678D01*
X203412101Y-104708456D01*
X203385843Y-104669157D01*
X203334564Y-104634894D01*
X203302322Y-104613350D01*
X203255642Y-104604065D01*
X203228670Y-104598700D01*
X203203800Y-104593753D01*
X203203799Y-104593753D01*
X203190910Y-104596317D01*
X203166718Y-104598700D01*
X200134588Y-104598700D01*
X200067549Y-104579015D01*
X200046907Y-104562381D01*
X199733107Y-104248581D01*
X199699622Y-104187258D01*
X199704606Y-104117566D01*
X199746478Y-104061633D01*
X199811942Y-104037216D01*
X199820788Y-104036900D01*
X201322811Y-104036900D01*
X201377272Y-104049500D01*
X201422809Y-104071762D01*
X201422810Y-104071762D01*
X201422812Y-104071763D01*
X201493760Y-104082100D01*
X201493765Y-104082100D01*
X202163035Y-104082100D01*
X202163040Y-104082100D01*
X202233988Y-104071763D01*
X202289874Y-104044441D01*
X202343425Y-104018263D01*
X202429563Y-103932125D01*
X202461002Y-103867815D01*
X202483063Y-103822688D01*
X202493400Y-103751740D01*
X202493400Y-103604600D01*
X202765900Y-103604600D01*
X202765900Y-103763746D01*
X202772141Y-103821787D01*
X202821132Y-103953137D01*
X202905141Y-104065358D01*
X203017361Y-104149366D01*
X203017362Y-104149366D01*
X203148712Y-104198358D01*
X203206753Y-104204599D01*
X203206770Y-104204600D01*
X203428400Y-104204600D01*
X203428400Y-103604600D01*
X203678400Y-103604600D01*
X203678400Y-104204600D01*
X203900030Y-104204600D01*
X203900046Y-104204599D01*
X203958087Y-104198358D01*
X204089437Y-104149366D01*
X204089439Y-104149366D01*
X204201658Y-104065358D01*
X204285667Y-103953137D01*
X204334658Y-103821787D01*
X204340899Y-103763746D01*
X204340900Y-103763729D01*
X204340900Y-103604600D01*
X203678400Y-103604600D01*
X203428400Y-103604600D01*
X202765900Y-103604600D01*
X202493400Y-103604600D01*
X202493400Y-103354600D01*
X202765900Y-103354600D01*
X203428400Y-103354600D01*
X203428400Y-102754600D01*
X203678400Y-102754600D01*
X203678400Y-103354600D01*
X204340900Y-103354600D01*
X204340900Y-103195470D01*
X204340899Y-103195453D01*
X204334658Y-103137412D01*
X204285667Y-103006062D01*
X204201658Y-102893841D01*
X204089437Y-102809832D01*
X203958087Y-102760841D01*
X203900046Y-102754600D01*
X203678400Y-102754600D01*
X203428400Y-102754600D01*
X203206753Y-102754600D01*
X203148712Y-102760841D01*
X203017362Y-102809832D01*
X202905141Y-102893841D01*
X202821132Y-103006062D01*
X202772141Y-103137412D01*
X202765900Y-103195453D01*
X202765900Y-103354600D01*
X202493400Y-103354600D01*
X202493400Y-103207460D01*
X202483063Y-103136512D01*
X202473603Y-103117161D01*
X202429563Y-103027074D01*
X202343425Y-102940936D01*
X202233991Y-102887438D01*
X202233989Y-102887437D01*
X202233988Y-102887437D01*
X202163040Y-102877100D01*
X201493760Y-102877100D01*
X201422812Y-102887437D01*
X201422810Y-102887437D01*
X201422808Y-102887438D01*
X201313374Y-102940936D01*
X201227236Y-103027074D01*
X201173738Y-103136508D01*
X201173737Y-103136510D01*
X201173737Y-103136512D01*
X201163400Y-103207460D01*
X201163400Y-103207465D01*
X201163400Y-103407900D01*
X201143715Y-103474939D01*
X201090911Y-103520694D01*
X201039400Y-103531900D01*
X199704184Y-103531900D01*
X199637145Y-103512215D01*
X199616503Y-103495581D01*
X199460103Y-103339181D01*
X199426618Y-103277858D01*
X199431602Y-103208166D01*
X199473474Y-103152233D01*
X199538938Y-103127816D01*
X199547784Y-103127500D01*
X200019635Y-103127500D01*
X200019640Y-103127500D01*
X200090588Y-103117163D01*
X200184288Y-103071356D01*
X200200025Y-103063663D01*
X200286163Y-102977525D01*
X200328385Y-102891157D01*
X200339663Y-102868088D01*
X200350000Y-102797140D01*
X200350000Y-102227860D01*
X200339663Y-102156912D01*
X200332061Y-102141361D01*
X200286163Y-102047474D01*
X200252070Y-102013381D01*
X200218585Y-101952058D01*
X200223569Y-101882366D01*
X200265441Y-101826433D01*
X200330905Y-101802016D01*
X200339751Y-101801700D01*
X200419713Y-101801700D01*
X200443905Y-101804083D01*
X200445843Y-101804468D01*
X200456800Y-101806648D01*
X200540009Y-101790095D01*
X200540011Y-101790095D01*
X200545161Y-101789070D01*
X200555321Y-101787050D01*
X200638843Y-101731243D01*
X200646144Y-101720315D01*
X200661563Y-101701525D01*
X200721071Y-101642017D01*
X200782396Y-101608533D01*
X200808752Y-101605700D01*
X201644550Y-101605700D01*
X201711589Y-101625385D01*
X201732232Y-101642020D01*
X201771673Y-101681461D01*
X201771674Y-101681463D01*
X201873503Y-101731243D01*
X201881112Y-101734963D01*
X201952060Y-101745300D01*
X201952065Y-101745300D01*
X202621335Y-101745300D01*
X202621340Y-101745300D01*
X202692288Y-101734963D01*
X202748174Y-101707641D01*
X202801725Y-101681463D01*
X202887863Y-101595325D01*
X202914041Y-101541774D01*
X202941363Y-101485888D01*
X202951700Y-101414940D01*
X202951700Y-101267800D01*
X203224200Y-101267800D01*
X203224200Y-101426946D01*
X203230441Y-101484987D01*
X203279432Y-101616337D01*
X203363441Y-101728558D01*
X203475662Y-101812567D01*
X203607012Y-101861558D01*
X203665053Y-101867799D01*
X203665070Y-101867800D01*
X203886700Y-101867800D01*
X203886700Y-101267800D01*
X204136700Y-101267800D01*
X204136700Y-101867800D01*
X204358330Y-101867800D01*
X204358346Y-101867799D01*
X204416387Y-101861558D01*
X204547737Y-101812567D01*
X204659958Y-101728558D01*
X204743967Y-101616337D01*
X204792958Y-101484987D01*
X204799199Y-101426946D01*
X204799200Y-101426929D01*
X204799200Y-101267800D01*
X204136700Y-101267800D01*
X203886700Y-101267800D01*
X203224200Y-101267800D01*
X202951700Y-101267800D01*
X202951700Y-100870660D01*
X202941363Y-100799712D01*
X202925839Y-100767957D01*
X202887863Y-100690274D01*
X202801725Y-100604136D01*
X202692291Y-100550638D01*
X202692289Y-100550637D01*
X202692288Y-100550637D01*
X202621340Y-100540300D01*
X201952060Y-100540300D01*
X201881112Y-100550637D01*
X201881110Y-100550637D01*
X201881108Y-100550638D01*
X201771674Y-100604136D01*
X201685536Y-100690274D01*
X201632038Y-100799708D01*
X201632037Y-100799710D01*
X201632037Y-100799712D01*
X201621700Y-100870660D01*
X201621700Y-100870665D01*
X201621700Y-100976700D01*
X201602015Y-101043739D01*
X201549211Y-101089494D01*
X201497700Y-101100700D01*
X201029300Y-101100700D01*
X200962261Y-101081015D01*
X200916506Y-101028211D01*
X200905300Y-100976700D01*
X200905300Y-100349000D01*
X200924985Y-100281961D01*
X200977789Y-100236206D01*
X201029300Y-100225000D01*
X203453378Y-100225000D01*
X203520417Y-100244685D01*
G37*
%TD.AperFunction*%
%TD*%
M02*
